<ttFont>
<head>
    <!-- Most of this table will be recalculated by the compiler -->
    <tableVersion value="1.0"/>
    <fontRevision value="1.00099"/>
    <checkSumAdjustment value="0x6cae7301"/>
    <magicNumber value="0x5f0f3cf5"/>
    <flags value="00000000 00000111"/>
    <unitsPerEm value="1000"/>
    <created value="Sun May 21 05:43:47 2017"/>
    <modified value="Tue Jun  6 10:29:29 2017"/>
    <xMin value="-576"/>
    <yMin value="-602"/>
    <xMax value="2430"/>
    <yMax value="970"/>
    <macStyle value="00000000 00000000"/>
    <lowestRecPPEM value="7"/>
    <fontDirectionHint value="2"/>
    <indexToLocFormat value="1"/>
    <glyphDataFormat value="0"/>
  </head>
    <TTGlyph name=".notdef" xMin="80" yMin="0" xMax="580" yMax="674">
      <contour>
        <pt x="580" y="674" on="1"/>
        <pt x="580" y="0" on="1"/>
        <pt x="80" y="0" on="1"/>
        <pt x="80" y="674" on="1"/>
      </contour>
      <contour>
        <pt x="480" y="100" on="1"/>
        <pt x="480" y="574" on="1"/>
        <pt x="180" y="574" on="1"/>
        <pt x="180" y="100" on="1"/>
      </contour>
    </TTGlyph>
    <TTGlyph name="A" xMin="10" yMin="9" xMax="640" yMax="642">
      <contour>
        <pt x="640" y="12" on="1"/>
        <pt x="640" y="9" on="1"/>
        <pt x="470" y="9" on="1"/>
        <pt x="433" y="130" on="1"/>
        <pt x="217" y="130" on="1"/>
        <pt x="180" y="9" on="1"/>
        <pt x="10" y="9" on="1"/>
        <pt x="10" y="11" on="1"/>
        <pt x="215" y="642" on="1"/>
        <pt x="435" y="642" on="1"/>
      </contour>
      <contour>
        <pt x="397" y="255" on="1"/>
        <pt x="344" y="441" on="0"/>
        <pt x="327" y="528" on="1"/>
        <pt x="323" y="528" on="1"/>
        <pt x="308" y="450" on="0"/>
        <pt x="254" y="255" on="1"/>
      </contour>
    </TTGlyph>
    <TTGlyph name="AE" xMin="10" yMin="9" xMax="930" yMax="642">
      <contour>
        <pt x="620" y="512" on="1"/>
        <pt x="620" y="392" on="1"/>
        <pt x="889" y="392" on="1"/>
        <pt x="889" y="262" on="1"/>
        <pt x="620" y="262" on="1"/>
        <pt x="620" y="139" on="1"/>
        <pt x="930" y="139" on="1"/>
        <pt x="930" y="9" on="1"/>
        <pt x="460" y="9" on="1"/>
        <pt x="460" y="130" on="1"/>
        <pt x="259" y="130" on="1"/>
        <pt x="199" y="9" on="1"/>
        <pt x="10" y="9" on="1"/>
        <pt x="10" y="11" on="1"/>
        <pt x="343" y="642" on="1"/>
        <pt x="930" y="642" on="1"/>
        <pt x="930" y="512" on="1"/>
      </contour>
      <contour>
        <pt x="460" y="255" on="1"/>
        <pt x="460" y="528" on="1"/>
        <pt x="456" y="528" on="1"/>
        <pt x="427" y="467" on="0"/>
        <pt x="321" y="255" on="1"/>
      </contour>
    </TTGlyph>
    <TTGlyph name="Aacute" xMin="10" yMin="9" xMax="640" yMax="837">
      <component glyphName="A" x="0" y="0" flags="0x0"/>
      <component glyphName="acute" x="241" y="0" flags="0x0"/>
    </TTGlyph>
    <TTGlyph name="Abreve" xMin="10" yMin="9" xMax="640" yMax="837">
      <component glyphName="A" x="0" y="0" flags="0x0"/>
      <component glyphName="breve" x="116" y="0" flags="0x0"/>
    </TTGlyph>
    <TTGlyph name="Acircumflex" xMin="10" yMin="9" xMax="640" yMax="836">
      <component glyphName="A" x="0" y="0" flags="0x0"/>
      <component glyphName="circumflex" x="184" y="0" flags="0x0"/>
    </TTGlyph>
    <TTGlyph name="Adieresis" xMin="10" yMin="9" xMax="640" yMax="787">
      <component glyphName="A" x="0" y="0" flags="0x0"/>
      <component glyphName="dieresis" x="156" y="0" flags="0x0"/>
    </TTGlyph>
    <TTGlyph name="Agrave" xMin="10" yMin="9" xMax="640" yMax="836">
      <component glyphName="A" x="0" y="0" flags="0x0"/>
      <component glyphName="grave" x="138" y="0" flags="0x0"/>
    </TTGlyph>
    <TTGlyph name="Amacron" xMin="10" yMin="9" xMax="640" yMax="782">
      <component glyphName="A" x="0" y="0" flags="0x0"/>
      <component glyphName="macron" x="163" y="0" flags="0x0"/>
    </TTGlyph>
    <TTGlyph name="Aogonek" xMin="10" yMin="-211" xMax="704" yMax="642">
      <component glyphName="A" x="0" y="0" flags="0x0"/>
      <component glyphName="ogonek" x="500" y="0" flags="0x0"/>
    </TTGlyph>
    <TTGlyph name="Aring" xMin="10" yMin="9" xMax="640" yMax="875">
      <component glyphName="A" x="0" y="0" flags="0x0"/>
      <component glyphName="ring" x="223" y="0" flags="0x0"/>
    </TTGlyph>
    <TTGlyph name="Atilde" xMin="10" yMin="9" xMax="640" yMax="819">
      <component glyphName="A" x="0" y="0" flags="0x0"/>
      <component glyphName="tilde" x="138" y="0" flags="0x0"/>
    </TTGlyph>
    <TTGlyph name="B" xMin="60" yMin="9" xMax="596" yMax="642">
      <contour>
        <pt x="485" y="324" on="0"/>
        <pt x="563" y="290" on="0"/>
        <pt x="596" y="225" on="0"/>
        <pt x="596" y="171" on="1"/>
        <pt x="596" y="88" on="0"/>
        <pt x="493" y="9" on="0"/>
        <pt x="372" y="9" on="1"/>
        <pt x="60" y="9" on="1"/>
        <pt x="60" y="642" on="1"/>
        <pt x="362" y="642" on="1"/>
        <pt x="443" y="642" on="0"/>
        <pt x="537" y="608" on="0"/>
        <pt x="576" y="541" on="0"/>
        <pt x="576" y="488" on="1"/>
        <pt x="576" y="414" on="0"/>
        <pt x="505" y="340" on="0"/>
        <pt x="417" y="333" on="1"/>
        <pt x="417" y="330" on="1"/>
      </contour>
      <contour>
        <pt x="411" y="489" on="0"/>
        <pt x="368" y="516" on="0"/>
        <pt x="318" y="516" on="1"/>
        <pt x="220" y="516" on="1"/>
        <pt x="220" y="392" on="1"/>
        <pt x="318" y="392" on="1"/>
        <pt x="369" y="392" on="0"/>
        <pt x="411" y="418" on="0"/>
        <pt x="411" y="454" on="1"/>
      </contour>
      <contour>
        <pt x="388" y="134" on="0"/>
        <pt x="431" y="162" on="0"/>
        <pt x="431" y="198" on="1"/>
        <pt x="431" y="234" on="0"/>
        <pt x="389" y="261" on="0"/>
        <pt x="338" y="261" on="1"/>
        <pt x="220" y="261" on="1"/>
        <pt x="220" y="134" on="1"/>
        <pt x="338" y="134" on="1"/>
      </contour>
    </TTGlyph>
    <TTGlyph name="C" xMin="40" yMin="0" xMax="532" yMax="651">
      <contour>
        <pt x="532" y="20" on="1"/>
        <pt x="483" y="9" on="0"/>
        <pt x="391" y="0" on="0"/>
        <pt x="329" y="0" on="1"/>
        <pt x="216" y="0" on="0"/>
        <pt x="94" y="53" on="0"/>
        <pt x="40" y="194" on="0"/>
        <pt x="40" y="331" on="1"/>
        <pt x="40" y="463" on="0"/>
        <pt x="94" y="599" on="0"/>
        <pt x="216" y="651" on="0"/>
        <pt x="329" y="651" on="1"/>
        <pt x="391" y="651" on="0"/>
        <pt x="483" y="642" on="0"/>
        <pt x="532" y="631" on="1"/>
        <pt x="532" y="501" on="1"/>
        <pt x="529" y="499" on="1"/>
        <pt x="485" y="509" on="0"/>
        <pt x="407" y="518" on="0"/>
        <pt x="352" y="518" on="1"/>
        <pt x="286" y="518" on="0"/>
        <pt x="225" y="492" on="0"/>
        <pt x="200" y="415" on="0"/>
        <pt x="200" y="331" on="1"/>
        <pt x="200" y="242" on="0"/>
        <pt x="225" y="160" on="0"/>
        <pt x="286" y="133" on="0"/>
        <pt x="352" y="133" on="1"/>
        <pt x="409" y="133" on="0"/>
        <pt x="487" y="140" on="0"/>
        <pt x="527" y="150" on="1"/>
        <pt x="532" y="146" on="1"/>
      </contour>
    </TTGlyph>
    <TTGlyph name="Cacute" xMin="40" yMin="0" xMax="532" yMax="837">
      <component glyphName="C" x="0" y="0" flags="0x0"/>
      <component glyphName="acute" x="193" y="0" flags="0x0"/>
    </TTGlyph>
    <TTGlyph name="Ccaron" xMin="40" yMin="0" xMax="532" yMax="836">
      <component glyphName="C" x="0" y="0" flags="0x0"/>
      <component glyphName="caron" x="151" y="0" flags="0x0"/>
    </TTGlyph>
    <TTGlyph name="Ccedilla" xMin="40" yMin="-218" xMax="532" yMax="651">
      <contour>
        <pt x="286" y="518" on="0"/>
        <pt x="225" y="492" on="0"/>
        <pt x="200" y="415" on="0"/>
        <pt x="200" y="331" on="1"/>
        <pt x="200" y="242" on="0"/>
        <pt x="225" y="160" on="0"/>
        <pt x="286" y="133" on="0"/>
        <pt x="352" y="133" on="1"/>
        <pt x="409" y="133" on="0"/>
        <pt x="487" y="140" on="0"/>
        <pt x="527" y="150" on="1"/>
        <pt x="532" y="146" on="1"/>
        <pt x="532" y="20" on="1"/>
        <pt x="460" y="4" on="0"/>
        <pt x="384" y="1" on="1"/>
        <pt x="375" y="-35" on="1"/>
        <pt x="421" y="-40" on="0"/>
        <pt x="461" y="-77" on="0"/>
        <pt x="461" y="-119" on="1"/>
        <pt x="461" y="-174" on="0"/>
        <pt x="405" y="-218" on="0"/>
        <pt x="336" y="-218" on="1"/>
        <pt x="268" y="-218" on="0"/>
        <pt x="232" y="-211" on="1"/>
        <pt x="232" y="-134" on="1"/>
        <pt x="237" y="-131" on="1"/>
        <pt x="261" y="-137" on="0"/>
        <pt x="307" y="-137" on="1"/>
        <pt x="346" y="-137" on="0"/>
        <pt x="377" y="-127" on="0"/>
        <pt x="377" y="-115" on="1"/>
        <pt x="377" y="-103" on="0"/>
        <pt x="341" y="-92" on="0"/>
        <pt x="289" y="-91" on="1"/>
        <pt x="275" y="-91" on="1"/>
        <pt x="294" y="1" on="1"/>
        <pt x="196" y="4" on="0"/>
        <pt x="88" y="62" on="0"/>
        <pt x="40" y="202" on="0"/>
        <pt x="40" y="331" on="1"/>
        <pt x="40" y="463" on="0"/>
        <pt x="94" y="599" on="0"/>
        <pt x="216" y="651" on="0"/>
        <pt x="329" y="651" on="1"/>
        <pt x="391" y="651" on="0"/>
        <pt x="483" y="642" on="0"/>
        <pt x="532" y="631" on="1"/>
        <pt x="532" y="501" on="1"/>
        <pt x="529" y="499" on="1"/>
        <pt x="485" y="509" on="0"/>
        <pt x="407" y="518" on="0"/>
        <pt x="352" y="518" on="1"/>
      </contour>
    </TTGlyph>
    <TTGlyph name="Ccircumflex" xMin="40" yMin="0" xMax="532" yMax="836">
      <component glyphName="C" x="0" y="0" flags="0x0"/>
      <component glyphName="circumflex" x="205" y="0" flags="0x0"/>
    </TTGlyph>
    <TTGlyph name="Cdotaccent" xMin="40" yMin="0" xMax="532" yMax="799">
      <component glyphName="C" x="0" y="0" flags="0x0"/>
      <component glyphName="dotaccent" x="259" y="43" flags="0x4"/>
    </TTGlyph>
    <TTGlyph name="D" xMin="60" yMin="9" xMax="630" yMax="642">
      <contour>
        <pt x="452" y="642" on="0"/>
        <pt x="575" y="591" on="0"/>
        <pt x="630" y="458" on="0"/>
        <pt x="630" y="331" on="1"/>
        <pt x="630" y="199" on="0"/>
        <pt x="575" y="62" on="0"/>
        <pt x="452" y="9" on="0"/>
        <pt x="337" y="9" on="1"/>
        <pt x="60" y="9" on="1"/>
        <pt x="60" y="642" on="1"/>
        <pt x="337" y="642" on="1"/>
      </contour>
      <contour>
        <pt x="376" y="144" on="0"/>
        <pt x="439" y="171" on="0"/>
        <pt x="468" y="250" on="0"/>
        <pt x="468" y="331" on="1"/>
        <pt x="468" y="408" on="0"/>
        <pt x="439" y="482" on="0"/>
        <pt x="376" y="507" on="0"/>
        <pt x="314" y="507" on="1"/>
        <pt x="220" y="507" on="1"/>
        <pt x="220" y="144" on="1"/>
        <pt x="314" y="144" on="1"/>
      </contour>
    </TTGlyph>
    <TTGlyph name="Dcaron" xMin="60" yMin="9" xMax="630" yMax="836">
      <component glyphName="D" x="0" y="0" flags="0x0"/>
      <component glyphName="caron" x="131" y="0" flags="0x0"/>
    </TTGlyph>
    <TTGlyph name="Dcroat" xMin="10" yMin="9" xMax="640" yMax="642">
      <component glyphName="Eth" x="0" y="0" flags="0x0"/>
    </TTGlyph>
    <TTGlyph name="E" xMin="60" yMin="9" xMax="530" yMax="642">
      <contour>
        <pt x="220" y="512" on="1"/>
        <pt x="220" y="392" on="1"/>
        <pt x="489" y="392" on="1"/>
        <pt x="489" y="262" on="1"/>
        <pt x="220" y="262" on="1"/>
        <pt x="220" y="139" on="1"/>
        <pt x="530" y="139" on="1"/>
        <pt x="530" y="9" on="1"/>
        <pt x="60" y="9" on="1"/>
        <pt x="60" y="642" on="1"/>
        <pt x="530" y="642" on="1"/>
        <pt x="530" y="512" on="1"/>
      </contour>
    </TTGlyph>
    <TTGlyph name="Eacute" xMin="60" yMin="9" xMax="530" yMax="837">
      <component glyphName="E" x="0" y="0" flags="0x0"/>
      <component glyphName="acute" x="230" y="0" flags="0x0"/>
    </TTGlyph>
    <TTGlyph name="Ebreve" xMin="60" yMin="9" xMax="530" yMax="837">
      <component glyphName="E" x="0" y="0" flags="0x0"/>
      <component glyphName="breve" x="86" y="0" flags="0x0"/>
    </TTGlyph>
    <TTGlyph name="Ecaron" xMin="60" yMin="9" xMax="530" yMax="836">
      <component glyphName="E" x="0" y="0" flags="0x0"/>
      <component glyphName="caron" x="121" y="0" flags="0x0"/>
    </TTGlyph>
    <TTGlyph name="Ecircumflex" xMin="60" yMin="9" xMax="530" yMax="836">
      <component glyphName="E" x="0" y="0" flags="0x0"/>
      <component glyphName="circumflex" x="154" y="0" flags="0x0"/>
    </TTGlyph>
    <TTGlyph name="Edieresis" xMin="60" yMin="9" xMax="530" yMax="787">
      <component glyphName="E" x="0" y="0" flags="0x0"/>
      <component glyphName="dieresis" x="126" y="0" flags="0x0"/>
    </TTGlyph>
    <TTGlyph name="Edotaccent" xMin="60" yMin="9" xMax="530" yMax="799">
      <component glyphName="E" x="0" y="0" flags="0x0"/>
      <component glyphName="dotaccent" x="218" y="43" flags="0x4"/>
    </TTGlyph>
    <TTGlyph name="Egrave" xMin="60" yMin="9" xMax="530" yMax="836">
      <component glyphName="E" x="0" y="0" flags="0x0"/>
      <component glyphName="grave" x="100" y="0" flags="0x0"/>
    </TTGlyph>
    <TTGlyph name="Emacron" xMin="60" yMin="9" xMax="530" yMax="782">
      <component glyphName="E" x="0" y="0" flags="0x0"/>
      <component glyphName="macron" x="133" y="0" flags="0x0"/>
    </TTGlyph>
    <TTGlyph name="Eng" xMin="60" yMin="-230" xMax="630" yMax="642">
      <contour>
        <pt x="630" y="642" on="1"/>
        <pt x="630" y="9" on="1"/>
        <pt x="629" y="-115" on="0"/>
        <pt x="523" y="-230" on="0"/>
        <pt x="402" y="-230" on="1"/>
        <pt x="340" y="-230" on="0"/>
        <pt x="301" y="-222" on="1"/>
        <pt x="301" y="-86" on="1"/>
        <pt x="304" y="-83" on="1"/>
        <pt x="336" y="-88" on="0"/>
        <pt x="371" y="-88" on="1"/>
        <pt x="411" y="-88" on="0"/>
        <pt x="452" y="-72" on="0"/>
        <pt x="469" y="-31" on="0"/>
        <pt x="471" y="9" on="1"/>
        <pt x="291" y="277" on="1"/>
        <pt x="259" y="325" on="0"/>
        <pt x="225" y="382" on="0"/>
        <pt x="203" y="427" on="1"/>
        <pt x="200" y="423" on="1"/>
        <pt x="212" y="380" on="0"/>
        <pt x="220" y="300" on="0"/>
        <pt x="220" y="253" on="1"/>
        <pt x="220" y="9" on="1"/>
        <pt x="60" y="9" on="1"/>
        <pt x="60" y="642" on="1"/>
        <pt x="219" y="642" on="1"/>
        <pt x="399" y="374" on="1"/>
        <pt x="431" y="326" on="0"/>
        <pt x="465" y="269" on="0"/>
        <pt x="487" y="224" on="1"/>
        <pt x="490" y="228" on="1"/>
        <pt x="470" y="314" on="0"/>
        <pt x="470" y="388" on="1"/>
        <pt x="470" y="642" on="1"/>
      </contour>
    </TTGlyph>
    <TTGlyph name="Eogonek" xMin="60" yMin="-211" xMax="595" yMax="642">
      <component glyphName="E" x="0" y="0" flags="0x0"/>
      <component glyphName="ogonek" x="391" y="0" flags="0x0"/>
    </TTGlyph>
    <TTGlyph name="Eth" xMin="10" yMin="9" xMax="640" yMax="642">
      <contour>
        <pt x="462" y="642" on="0"/>
        <pt x="585" y="591" on="0"/>
        <pt x="640" y="458" on="0"/>
        <pt x="640" y="331" on="1"/>
        <pt x="640" y="199" on="0"/>
        <pt x="585" y="62" on="0"/>
        <pt x="462" y="9" on="0"/>
        <pt x="347" y="9" on="1"/>
        <pt x="70" y="9" on="1"/>
        <pt x="70" y="262" on="1"/>
        <pt x="10" y="262" on="1"/>
        <pt x="10" y="392" on="1"/>
        <pt x="70" y="392" on="1"/>
        <pt x="70" y="642" on="1"/>
        <pt x="347" y="642" on="1"/>
      </contour>
      <contour>
        <pt x="386" y="144" on="0"/>
        <pt x="449" y="171" on="0"/>
        <pt x="478" y="250" on="0"/>
        <pt x="478" y="331" on="1"/>
        <pt x="478" y="408" on="0"/>
        <pt x="449" y="482" on="0"/>
        <pt x="386" y="507" on="0"/>
        <pt x="324" y="507" on="1"/>
        <pt x="230" y="507" on="1"/>
        <pt x="230" y="392" on="1"/>
        <pt x="339" y="392" on="1"/>
        <pt x="339" y="262" on="1"/>
        <pt x="230" y="262" on="1"/>
        <pt x="230" y="144" on="1"/>
        <pt x="324" y="144" on="1"/>
      </contour>
    </TTGlyph>
    <TTGlyph name="Euro" xMin="30" yMin="0" xMax="595" yMax="651">
      <contour>
        <pt x="350" y="518" on="0"/>
        <pt x="288" y="493" on="0"/>
        <pt x="275" y="454" on="1"/>
        <pt x="461" y="454" on="1"/>
        <pt x="461" y="344" on="1"/>
        <pt x="263" y="344" on="1"/>
        <pt x="263" y="331" on="1"/>
        <pt x="263" y="304" on="1"/>
        <pt x="461" y="304" on="1"/>
        <pt x="461" y="194" on="1"/>
        <pt x="278" y="194" on="1"/>
        <pt x="292" y="158" on="0"/>
        <pt x="353" y="133" on="0"/>
        <pt x="415" y="133" on="1"/>
        <pt x="472" y="133" on="0"/>
        <pt x="550" y="140" on="0"/>
        <pt x="590" y="150" on="1"/>
        <pt x="595" y="146" on="1"/>
        <pt x="595" y="20" on="1"/>
        <pt x="546" y="9" on="0"/>
        <pt x="454" y="0" on="0"/>
        <pt x="392" y="0" on="1"/>
        <pt x="301" y="0" on="0"/>
        <pt x="189" y="33" on="0"/>
        <pt x="124" y="117" on="0"/>
        <pt x="112" y="194" on="1"/>
        <pt x="30" y="194" on="1"/>
        <pt x="30" y="304" on="1"/>
        <pt x="103" y="304" on="1"/>
        <pt x="103" y="331" on="1"/>
        <pt x="103" y="344" on="1"/>
        <pt x="30" y="344" on="1"/>
        <pt x="30" y="454" on="1"/>
        <pt x="111" y="454" on="1"/>
        <pt x="122" y="532" on="0"/>
        <pt x="186" y="617" on="0"/>
        <pt x="299" y="651" on="0"/>
        <pt x="392" y="651" on="1"/>
        <pt x="454" y="651" on="0"/>
        <pt x="546" y="642" on="0"/>
        <pt x="595" y="631" on="1"/>
        <pt x="595" y="501" on="1"/>
        <pt x="592" y="499" on="1"/>
        <pt x="548" y="509" on="0"/>
        <pt x="470" y="518" on="0"/>
        <pt x="415" y="518" on="1"/>
      </contour>
    </TTGlyph>
    <TTGlyph name="F" xMin="60" yMin="9" xMax="530" yMax="642">
      <contour>
        <pt x="220" y="512" on="1"/>
        <pt x="220" y="367" on="1"/>
        <pt x="510" y="367" on="1"/>
        <pt x="510" y="237" on="1"/>
        <pt x="220" y="237" on="1"/>
        <pt x="220" y="9" on="1"/>
        <pt x="60" y="9" on="1"/>
        <pt x="60" y="642" on="1"/>
        <pt x="530" y="642" on="1"/>
        <pt x="530" y="512" on="1"/>
      </contour>
    </TTGlyph>
    <TTGlyph name="G" xMin="40" yMin="0" xMax="605" yMax="651">
      <contour>
        <pt x="465" y="139" on="1"/>
        <pt x="445" y="134" on="0"/>
        <pt x="372" y="134" on="1"/>
        <pt x="299" y="134" on="0"/>
        <pt x="228" y="165" on="0"/>
        <pt x="200" y="247" on="0"/>
        <pt x="200" y="331" on="1"/>
        <pt x="200" y="409" on="0"/>
        <pt x="248" y="490" on="0"/>
        <pt x="333" y="516" on="0"/>
        <pt x="402" y="516" on="1"/>
        <pt x="491" y="516" on="0"/>
        <pt x="569" y="498" on="1"/>
        <pt x="572" y="500" on="1"/>
        <pt x="572" y="632" on="1"/>
        <pt x="485" y="651" on="0"/>
        <pt x="379" y="651" on="1"/>
        <pt x="263" y="651" on="0"/>
        <pt x="117" y="598" on="0"/>
        <pt x="40" y="458" on="0"/>
        <pt x="40" y="331" on="1"/>
        <pt x="40" y="207" on="0"/>
        <pt x="96" y="64" on="0"/>
        <pt x="231" y="0" on="0"/>
        <pt x="352" y="0" on="1"/>
        <pt x="438" y="0" on="0"/>
        <pt x="557" y="22" on="0"/>
        <pt x="605" y="44" on="1"/>
        <pt x="605" y="384" on="1"/>
        <pt x="344" y="383" on="1"/>
        <pt x="344" y="253" on="1"/>
        <pt x="373" y="252" on="1"/>
        <pt x="417" y="252" on="0"/>
        <pt x="466" y="259" on="1"/>
        <pt x="468" y="256" on="1"/>
        <pt x="465" y="229" on="0"/>
        <pt x="465" y="196" on="1"/>
      </contour>
    </TTGlyph>
    <TTGlyph name="Gbreve" xMin="40" yMin="0" xMax="605" yMax="837">
      <component glyphName="G" x="0" y="0" flags="0x0"/>
      <component glyphName="breve" x="114" y="0" flags="0x0"/>
    </TTGlyph>
    <TTGlyph name="Gcircumflex" xMin="40" yMin="0" xMax="605" yMax="836">
      <component glyphName="G" x="0" y="0" flags="0x0"/>
      <component glyphName="circumflex" x="182" y="0" flags="0x0"/>
    </TTGlyph>
    <TTGlyph name="Gdotaccent" xMin="40" yMin="0" xMax="605" yMax="799">
      <component glyphName="G" x="0" y="0" flags="0x0"/>
      <component glyphName="dotaccent" x="246" y="43" flags="0x4"/>
    </TTGlyph>
    <TTGlyph name="H" xMin="60" yMin="9" xMax="620" yMax="642">
      <contour>
        <pt x="620" y="642" on="1"/>
        <pt x="620" y="9" on="1"/>
        <pt x="460" y="9" on="1"/>
        <pt x="460" y="270" on="1"/>
        <pt x="220" y="270" on="1"/>
        <pt x="220" y="9" on="1"/>
        <pt x="60" y="9" on="1"/>
        <pt x="60" y="642" on="1"/>
        <pt x="220" y="642" on="1"/>
        <pt x="220" y="400" on="1"/>
        <pt x="460" y="400" on="1"/>
        <pt x="460" y="642" on="1"/>
      </contour>
    </TTGlyph>
    <TTGlyph name="Hbar" xMin="60" yMin="9" xMax="620" yMax="642">
      <contour>
        <pt x="620" y="642" on="1"/>
        <pt x="620" y="9" on="1"/>
        <pt x="460" y="9" on="1"/>
        <pt x="460" y="190" on="1"/>
        <pt x="220" y="190" on="1"/>
        <pt x="220" y="9" on="1"/>
        <pt x="60" y="9" on="1"/>
        <pt x="60" y="642" on="1"/>
        <pt x="220" y="642" on="1"/>
        <pt x="220" y="500" on="1"/>
        <pt x="460" y="500" on="1"/>
        <pt x="460" y="642" on="1"/>
      </contour>
      <contour>
        <pt x="460" y="310" on="1"/>
        <pt x="460" y="380" on="1"/>
        <pt x="220" y="380" on="1"/>
        <pt x="220" y="310" on="1"/>
      </contour>
    </TTGlyph>
    <TTGlyph name="Hcircumflex" xMin="60" yMin="9" xMax="620" yMax="836">
      <component glyphName="H" x="0" y="0" flags="0x0"/>
      <component glyphName="circumflex" x="199" y="0" flags="0x0"/>
    </TTGlyph>
    <TTGlyph name="I" xMin="60" yMin="9" xMax="220" yMax="642">
      <contour>
        <pt x="60" y="9" on="1"/>
        <pt x="60" y="642" on="1"/>
        <pt x="220" y="642" on="1"/>
        <pt x="220" y="9" on="1"/>
      </contour>
    </TTGlyph>
    <TTGlyph name="IJ" xMin="60" yMin="0" xMax="688" yMax="642">
      <component glyphName="I" x="0" y="0" flags="0x0"/>
      <component glyphName="J" x="280" y="0" flags="0x0"/>
    </TTGlyph>
    <TTGlyph name="Iacute" xMin="60" yMin="9" xMax="320" yMax="837">
      <component glyphName="I" x="0" y="0" flags="0x0"/>
      <component glyphName="acute" x="60" y="0" flags="0x0"/>
    </TTGlyph>
    <TTGlyph name="Ibreve" xMin="-63" yMin="9" xMax="335" yMax="837">
      <component glyphName="I" x="0" y="0" flags="0x0"/>
      <component glyphName="breve" x="-73" y="0" flags="0x0"/>
    </TTGlyph>
    <TTGlyph name="Icircumflex" xMin="-13" yMin="9" xMax="315" yMax="836">
      <component glyphName="I" x="0" y="0" flags="0x0"/>
      <component glyphName="circumflex" x="10" y="0" flags="0x0"/>
    </TTGlyph>
    <TTGlyph name="Idieresis" xMin="15" yMin="9" xMax="334" yMax="787">
      <component glyphName="I" x="35" y="0" flags="0x0"/>
      <component glyphName="dieresis" x="5" y="0" flags="0x0"/>
    </TTGlyph>
    <TTGlyph name="Idotaccent" xMin="60" yMin="9" xMax="220" yMax="799">
      <component glyphName="I" x="0" y="0" flags="0x0"/>
      <component glyphName="dotaccent" x="64" y="43" flags="0x4"/>
    </TTGlyph>
    <TTGlyph name="Igrave" xMin="-43" yMin="9" xMax="220" yMax="836">
      <component glyphName="I" x="0" y="0" flags="0x0"/>
      <component glyphName="grave" x="-63" y="0" flags="0x0"/>
    </TTGlyph>
    <TTGlyph name="Imacron" xMin="30" yMin="9" xMax="334" yMax="782">
      <component glyphName="I" x="42" y="0" flags="0x0"/>
      <component glyphName="macron" x="20" y="0" flags="0x0"/>
    </TTGlyph>
    <TTGlyph name="Iogonek" xMin="60" yMin="-211" xMax="285" yMax="642">
      <component glyphName="I" x="0" y="0" flags="0x0"/>
      <component glyphName="ogonek" x="81" y="0" flags="0x0"/>
    </TTGlyph>
    <TTGlyph name="Itilde" xMin="-37" yMin="9" xMax="331" yMax="819">
      <contour>
        <pt x="224" y="682" on="0"/>
        <pt x="185" y="695" on="0"/>
        <pt x="154" y="707" on="1"/>
        <pt x="133" y="715" on="0"/>
        <pt x="91" y="729" on="0"/>
        <pt x="77" y="729" on="1"/>
        <pt x="50" y="729" on="0"/>
        <pt x="50" y="702" on="1"/>
        <pt x="51" y="691" on="1"/>
        <pt x="-34" y="691" on="1"/>
        <pt x="-35" y="695" on="0"/>
        <pt x="-37" y="721" on="0"/>
        <pt x="-37" y="735" on="1"/>
        <pt x="-37" y="778" on="0"/>
        <pt x="10" y="819" on="0"/>
        <pt x="52" y="819" on="1"/>
        <pt x="69" y="819" on="0"/>
        <pt x="105" y="807" on="0"/>
        <pt x="140" y="794" on="1"/>
        <pt x="168" y="783" on="0"/>
        <pt x="203" y="772" on="0"/>
        <pt x="217" y="772" on="1"/>
        <pt x="243" y="772" on="0"/>
        <pt x="243" y="799" on="1"/>
        <pt x="243" y="806" on="0"/>
        <pt x="242" y="810" on="1"/>
        <pt x="328" y="810" on="1"/>
        <pt x="329" y="806" on="0"/>
        <pt x="331" y="780" on="0"/>
        <pt x="331" y="766" on="1"/>
        <pt x="331" y="723" on="0"/>
        <pt x="284" y="682" on="0"/>
        <pt x="241" y="682" on="1"/>
      </contour>
      <contour>
        <pt x="60" y="9" on="1"/>
        <pt x="60" y="642" on="1"/>
        <pt x="220" y="642" on="1"/>
        <pt x="220" y="9" on="1"/>
      </contour>
    </TTGlyph>
    <TTGlyph name="J" xMin="20" yMin="0" xMax="408" yMax="642">
      <contour>
        <pt x="408" y="642" on="1"/>
        <pt x="408" y="241" on="1"/>
        <pt x="408" y="117" on="0"/>
        <pt x="302" y="0" on="0"/>
        <pt x="180" y="0" on="1"/>
        <pt x="129" y="0" on="0"/>
        <pt x="59" y="10" on="0"/>
        <pt x="20" y="23" on="1"/>
        <pt x="20" y="160" on="1"/>
        <pt x="24" y="162" on="1"/>
        <pt x="56" y="151" on="0"/>
        <pt x="110" y="142" on="0"/>
        <pt x="149" y="142" on="1"/>
        <pt x="192" y="142" on="0"/>
        <pt x="234" y="161" on="0"/>
        <pt x="249" y="209" on="0"/>
        <pt x="249" y="258" on="1"/>
        <pt x="248" y="642" on="1"/>
      </contour>
    </TTGlyph>
    <TTGlyph name="Jcircumflex" xMin="20" yMin="0" xMax="497" yMax="836">
      <component glyphName="J" x="0" y="0" flags="0x0"/>
      <component glyphName="circumflex" x="192" y="0" flags="0x0"/>
    </TTGlyph>
    <TTGlyph name="K" xMin="60" yMin="9" xMax="602" yMax="642">
      <contour>
        <pt x="602" y="12" on="1"/>
        <pt x="602" y="9" on="1"/>
        <pt x="418" y="9" on="1"/>
        <pt x="293" y="201" on="1"/>
        <pt x="293" y="200" on="1"/>
        <pt x="279" y="223" on="0"/>
        <pt x="237" y="271" on="0"/>
        <pt x="225" y="271" on="1"/>
        <pt x="220" y="271" on="1"/>
        <pt x="220" y="9" on="1"/>
        <pt x="60" y="9" on="1"/>
        <pt x="60" y="642" on="1"/>
        <pt x="220" y="642" on="1"/>
        <pt x="220" y="377" on="1"/>
        <pt x="223" y="377" on="1"/>
        <pt x="238" y="377" on="0"/>
        <pt x="271" y="425" on="1"/>
        <pt x="405" y="642" on="1"/>
        <pt x="579" y="642" on="1"/>
        <pt x="579" y="639" on="1"/>
        <pt x="465" y="455" on="1"/>
        <pt x="393" y="335" on="0"/>
        <pt x="361" y="325" on="1"/>
        <pt x="361" y="322" on="1"/>
        <pt x="380" y="314" on="0"/>
        <pt x="434" y="250" on="0"/>
        <pt x="469" y="201" on="1"/>
      </contour>
    </TTGlyph>
    <TTGlyph name="L" xMin="60" yMin="9" xMax="520" yMax="642">
      <contour>
        <pt x="520" y="145" on="1"/>
        <pt x="520" y="9" on="1"/>
        <pt x="60" y="9" on="1"/>
        <pt x="60" y="642" on="1"/>
        <pt x="220" y="642" on="1"/>
        <pt x="220" y="145" on="1"/>
      </contour>
    </TTGlyph>
    <TTGlyph name="Lacute" xMin="60" yMin="9" xMax="520" yMax="837">
      <component glyphName="L" x="0" y="0" flags="0x0"/>
      <component glyphName="acute" x="60" y="0" flags="0x0"/>
    </TTGlyph>
    <TTGlyph name="Lcaron" xMin="-33" yMin="9" xMax="520" yMax="836">
      <component glyphName="L" x="0" y="0" flags="0x0"/>
      <component glyphName="caron" x="-43" y="0" flags="0x0"/>
    </TTGlyph>
    <TTGlyph name="Ldot" xMin="60" yMin="9" xMax="520" yMax="642">
      <component glyphName="L" x="0" y="0" flags="0x0"/>
      <component glyphName="periodcentered" x="260" y="99" flags="0x4"/>
    </TTGlyph>
    <TTGlyph name="Lslash" xMin="60" yMin="9" xMax="520" yMax="642">
      <component glyphName="L" x="0" y="0" flags="0x0"/>
    </TTGlyph>
    <TTGlyph name="M" xMin="63" yMin="9" xMax="805" yMax="642">
      <contour>
        <pt x="312" y="159" on="0"/>
        <pt x="226" y="474" on="0"/>
        <pt x="211" y="533" on="1"/>
        <pt x="207" y="532" on="1"/>
        <pt x="211" y="505" on="0"/>
        <pt x="216" y="404" on="0"/>
        <pt x="216" y="363" on="1"/>
        <pt x="216" y="9" on="1"/>
        <pt x="63" y="9" on="1"/>
        <pt x="63" y="642" on="1"/>
        <pt x="331" y="642" on="1"/>
        <pt x="341" y="602" on="0"/>
        <pt x="365" y="514" on="1"/>
        <pt x="396" y="400" on="0"/>
        <pt x="429" y="264" on="0"/>
        <pt x="436" y="216" on="1"/>
        <pt x="438" y="216" on="1"/>
        <pt x="444" y="265" on="0"/>
        <pt x="476" y="395" on="0"/>
        <pt x="509" y="520" on="1"/>
        <pt x="541" y="642" on="1"/>
        <pt x="805" y="642" on="1"/>
        <pt x="805" y="9" on="1"/>
        <pt x="654" y="9" on="1"/>
        <pt x="654" y="363" on="1"/>
        <pt x="654" y="404" on="0"/>
        <pt x="659" y="505" on="0"/>
        <pt x="663" y="532" on="1"/>
        <pt x="659" y="533" on="1"/>
        <pt x="648" y="489" on="0"/>
        <pt x="558" y="166" on="0"/>
        <pt x="521" y="41" on="1"/>
        <pt x="349" y="41" on="1"/>
      </contour>
    </TTGlyph>
    <TTGlyph name="N" xMin="60" yMin="9" xMax="630" yMax="642">
      <contour>
        <pt x="470" y="388" on="1"/>
        <pt x="470" y="314" on="0"/>
        <pt x="490" y="228" on="1"/>
        <pt x="487" y="224" on="1"/>
        <pt x="465" y="269" on="0"/>
        <pt x="431" y="326" on="0"/>
        <pt x="399" y="374" on="1"/>
        <pt x="219" y="642" on="1"/>
        <pt x="60" y="642" on="1"/>
        <pt x="60" y="9" on="1"/>
        <pt x="220" y="9" on="1"/>
        <pt x="220" y="253" on="1"/>
        <pt x="220" y="300" on="0"/>
        <pt x="212" y="380" on="0"/>
        <pt x="200" y="423" on="1"/>
        <pt x="203" y="427" on="1"/>
        <pt x="225" y="382" on="0"/>
        <pt x="259" y="325" on="0"/>
        <pt x="291" y="277" on="1"/>
        <pt x="471" y="9" on="1"/>
        <pt x="630" y="9" on="1"/>
        <pt x="630" y="642" on="1"/>
        <pt x="470" y="642" on="1"/>
      </contour>
    </TTGlyph>
    <TTGlyph name="Nacute" xMin="60" yMin="9" xMax="630" yMax="837">
      <component glyphName="N" x="0" y="0" flags="0x0"/>
      <component glyphName="acute" x="280" y="0" flags="0x0"/>
    </TTGlyph>
    <TTGlyph name="Ncaron" xMin="60" yMin="9" xMax="630" yMax="836">
      <component glyphName="N" x="0" y="0" flags="0x0"/>
      <component glyphName="caron" x="180" y="0" flags="0x0"/>
    </TTGlyph>
    <TTGlyph name="Ntilde" xMin="60" yMin="9" xMax="630" yMax="819">
      <component glyphName="N" x="0" y="0" flags="0x0"/>
      <component glyphName="tilde" x="158" y="0" flags="0x0"/>
    </TTGlyph>
    <TTGlyph name="O" xMin="40" yMin="0" xMax="661" yMax="651">
      <contour>
        <pt x="40" y="450" on="0"/>
        <pt x="95" y="589" on="0"/>
        <pt x="229" y="651" on="0"/>
        <pt x="351" y="651" on="1"/>
        <pt x="473" y="651" on="0"/>
        <pt x="606" y="589" on="0"/>
        <pt x="661" y="450" on="0"/>
        <pt x="661" y="326" on="1"/>
        <pt x="661" y="201" on="0"/>
        <pt x="606" y="62" on="0"/>
        <pt x="473" y="0" on="0"/>
        <pt x="351" y="0" on="1"/>
        <pt x="229" y="0" on="0"/>
        <pt x="95" y="62" on="0"/>
        <pt x="40" y="201" on="0"/>
        <pt x="40" y="326" on="1"/>
      </contour>
      <contour>
        <pt x="416" y="140" on="0"/>
        <pt x="479" y="172" on="0"/>
        <pt x="501" y="248" on="0"/>
        <pt x="501" y="326" on="1"/>
        <pt x="501" y="402" on="0"/>
        <pt x="479" y="478" on="0"/>
        <pt x="416" y="511" on="0"/>
        <pt x="351" y="511" on="1"/>
        <pt x="287" y="511" on="0"/>
        <pt x="223" y="478" on="0"/>
        <pt x="200" y="401" on="0"/>
        <pt x="200" y="326" on="1"/>
        <pt x="200" y="249" on="0"/>
        <pt x="223" y="172" on="0"/>
        <pt x="286" y="140" on="0"/>
        <pt x="351" y="140" on="1"/>
      </contour>
    </TTGlyph>
    <TTGlyph name="OE" xMin="40" yMin="1" xMax="961" yMax="651">
      <contour>
        <pt x="651" y="512" on="1"/>
        <pt x="651" y="392" on="1"/>
        <pt x="920" y="392" on="1"/>
        <pt x="920" y="262" on="1"/>
        <pt x="651" y="262" on="1"/>
        <pt x="651" y="139" on="1"/>
        <pt x="961" y="139" on="1"/>
        <pt x="961" y="9" on="1"/>
        <pt x="491" y="9" on="1"/>
        <pt x="491" y="50" on="1"/>
        <pt x="490" y="50" on="1"/>
        <pt x="474" y="28" on="0"/>
        <pt x="390" y="1" on="0"/>
        <pt x="331" y="1" on="1"/>
        <pt x="219" y="1" on="0"/>
        <pt x="94" y="63" on="0"/>
        <pt x="40" y="203" on="0"/>
        <pt x="40" y="326" on="1"/>
        <pt x="40" y="449" on="0"/>
        <pt x="94" y="589" on="0"/>
        <pt x="219" y="651" on="0"/>
        <pt x="331" y="651" on="1"/>
        <pt x="390" y="651" on="0"/>
        <pt x="474" y="624" on="0"/>
        <pt x="490" y="602" on="1"/>
        <pt x="491" y="602" on="1"/>
        <pt x="491" y="642" on="1"/>
        <pt x="961" y="642" on="1"/>
        <pt x="961" y="512" on="1"/>
      </contour>
      <contour>
        <pt x="419" y="141" on="0"/>
        <pt x="491" y="176" on="0"/>
        <pt x="491" y="216" on="1"/>
        <pt x="491" y="436" on="1"/>
        <pt x="491" y="476" on="0"/>
        <pt x="419" y="511" on="0"/>
        <pt x="351" y="511" on="1"/>
        <pt x="287" y="511" on="0"/>
        <pt x="223" y="478" on="0"/>
        <pt x="200" y="401" on="0"/>
        <pt x="200" y="326" on="1"/>
        <pt x="200" y="251" on="0"/>
        <pt x="223" y="174" on="0"/>
        <pt x="287" y="141" on="0"/>
        <pt x="351" y="141" on="1"/>
      </contour>
    </TTGlyph>
    <TTGlyph name="Oacute" xMin="40" yMin="0" xMax="661" yMax="837">
      <component glyphName="O" x="0" y="0" flags="0x0"/>
      <component glyphName="acute" x="270" y="0" flags="0x0"/>
    </TTGlyph>
    <TTGlyph name="Obreve" xMin="40" yMin="0" xMax="661" yMax="837">
      <component glyphName="O" x="0" y="0" flags="0x0"/>
      <component glyphName="breve" x="142" y="0" flags="0x0"/>
    </TTGlyph>
    <TTGlyph name="Ocircumflex" xMin="40" yMin="0" xMax="661" yMax="836">
      <component glyphName="O" x="0" y="0" flags="0x0"/>
      <component glyphName="circumflex" x="210" y="0" flags="0x0"/>
    </TTGlyph>
    <TTGlyph name="Odieresis" xMin="40" yMin="0" xMax="661" yMax="787">
      <component glyphName="O" x="0" y="0" flags="0x0"/>
      <component glyphName="dieresis" x="181" y="0" flags="0x0"/>
    </TTGlyph>
    <TTGlyph name="Ograve" xMin="40" yMin="0" xMax="661" yMax="836">
      <component glyphName="O" x="0" y="0" flags="0x0"/>
      <component glyphName="grave" x="150" y="0" flags="0x0"/>
    </TTGlyph>
    <TTGlyph name="Ohungarumlaut" xMin="40" yMin="0" xMax="661" yMax="834">
      <component glyphName="O" x="0" y="0" flags="0x0"/>
      <component glyphName="hungarumlaut" x="130" y="72" flags="0x4"/>
    </TTGlyph>
    <TTGlyph name="Omacron" xMin="40" yMin="0" xMax="661" yMax="792">
      <component glyphName="O" x="0" y="0" flags="0x0"/>
      <component glyphName="macron" x="189" y="10" flags="0x4"/>
    </TTGlyph>
    <TTGlyph name="Oslash" xMin="-10" yMin="0" xMax="693" yMax="651">
      <contour>
        <pt x="693" y="527" on="1"/>
        <pt x="636" y="485" on="1"/>
        <pt x="652" y="422" on="0"/>
        <pt x="652" y="326" on="1"/>
        <pt x="652" y="201" on="0"/>
        <pt x="597" y="62" on="0"/>
        <pt x="464" y="0" on="0"/>
        <pt x="342" y="0" on="1"/>
        <pt x="245" y="0" on="0"/>
        <pt x="123" y="38" on="0"/>
        <pt x="88" y="81" on="1"/>
        <pt x="-9" y="9" on="1"/>
        <pt x="-10" y="9" on="1"/>
        <pt x="-10" y="124" on="1"/>
        <pt x="47" y="166" on="1"/>
        <pt x="31" y="229" on="0"/>
        <pt x="31" y="326" on="1"/>
        <pt x="31" y="450" on="0"/>
        <pt x="86" y="589" on="0"/>
        <pt x="220" y="651" on="0"/>
        <pt x="342" y="651" on="1"/>
        <pt x="439" y="651" on="0"/>
        <pt x="561" y="613" on="0"/>
        <pt x="595" y="570" on="1"/>
        <pt x="692" y="642" on="1"/>
        <pt x="693" y="642" on="1"/>
      </contour>
      <contour>
        <pt x="191" y="289" on="0"/>
        <pt x="192" y="273" on="1"/>
        <pt x="464" y="474" on="1"/>
        <pt x="448" y="494" on="0"/>
        <pt x="390" y="511" on="0"/>
        <pt x="342" y="511" on="1"/>
        <pt x="278" y="511" on="0"/>
        <pt x="214" y="478" on="0"/>
        <pt x="191" y="401" on="0"/>
        <pt x="191" y="326" on="1"/>
      </contour>
      <contour>
        <pt x="492" y="362" on="0"/>
        <pt x="491" y="378" on="1"/>
        <pt x="219" y="177" on="1"/>
        <pt x="235" y="157" on="0"/>
        <pt x="294" y="140" on="0"/>
        <pt x="342" y="140" on="1"/>
        <pt x="407" y="140" on="0"/>
        <pt x="470" y="172" on="0"/>
        <pt x="492" y="248" on="0"/>
        <pt x="492" y="326" on="1"/>
      </contour>
    </TTGlyph>
    <TTGlyph name="Otilde" xMin="40" yMin="0" xMax="661" yMax="819">
      <component glyphName="O" x="0" y="0" flags="0x0"/>
      <component glyphName="tilde" x="164" y="0" flags="0x0"/>
    </TTGlyph>
    <TTGlyph name="P" xMin="60" yMin="9" xMax="601" yMax="642">
      <contour>
        <pt x="438" y="642" on="0"/>
        <pt x="551" y="596" on="0"/>
        <pt x="601" y="492" on="0"/>
        <pt x="601" y="403" on="1"/>
        <pt x="601" y="318" on="0"/>
        <pt x="550" y="213" on="0"/>
        <pt x="437" y="164" on="0"/>
        <pt x="342" y="164" on="1"/>
        <pt x="220" y="164" on="1"/>
        <pt x="220" y="9" on="1"/>
        <pt x="60" y="9" on="1"/>
        <pt x="60" y="642" on="1"/>
        <pt x="342" y="642" on="1"/>
      </contour>
      <contour>
        <pt x="363" y="295" on="0"/>
        <pt x="414" y="316" on="0"/>
        <pt x="435" y="362" on="0"/>
        <pt x="435" y="403" on="1"/>
        <pt x="435" y="462" on="0"/>
        <pt x="385" y="511" on="0"/>
        <pt x="316" y="511" on="1"/>
        <pt x="220" y="511" on="1"/>
        <pt x="220" y="295" on="1"/>
        <pt x="316" y="295" on="1"/>
      </contour>
    </TTGlyph>
    <TTGlyph name="Q" xMin="40" yMin="-127" xMax="661" yMax="651">
      <contour>
        <pt x="499" y="11" on="1"/>
        <pt x="552" y="-48" on="0"/>
        <pt x="596" y="-124" on="1"/>
        <pt x="596" y="-127" on="1"/>
        <pt x="414" y="-127" on="1"/>
        <pt x="343" y="0" on="1"/>
        <pt x="224" y="1" on="0"/>
        <pt x="94" y="64" on="0"/>
        <pt x="40" y="203" on="0"/>
        <pt x="40" y="326" on="1"/>
        <pt x="40" y="450" on="0"/>
        <pt x="95" y="589" on="0"/>
        <pt x="229" y="651" on="0"/>
        <pt x="351" y="651" on="1"/>
        <pt x="473" y="651" on="0"/>
        <pt x="606" y="589" on="0"/>
        <pt x="661" y="450" on="0"/>
        <pt x="661" y="326" on="1"/>
        <pt x="661" y="231" on="0"/>
        <pt x="631" y="108" on="0"/>
        <pt x="560" y="33" on="0"/>
        <pt x="499" y="16" on="1"/>
      </contour>
      <contour>
        <pt x="200" y="249" on="0"/>
        <pt x="223" y="172" on="0"/>
        <pt x="286" y="140" on="0"/>
        <pt x="351" y="140" on="1"/>
        <pt x="416" y="140" on="0"/>
        <pt x="479" y="172" on="0"/>
        <pt x="501" y="248" on="0"/>
        <pt x="501" y="326" on="1"/>
        <pt x="501" y="402" on="0"/>
        <pt x="479" y="478" on="0"/>
        <pt x="416" y="511" on="0"/>
        <pt x="351" y="511" on="1"/>
        <pt x="287" y="511" on="0"/>
        <pt x="223" y="478" on="0"/>
        <pt x="200" y="401" on="0"/>
        <pt x="200" y="326" on="1"/>
      </contour>
    </TTGlyph>
    <TTGlyph name="R" xMin="60" yMin="9" xMax="614" yMax="642">
      <contour>
        <pt x="506" y="187" on="0"/>
        <pt x="614" y="10" on="1"/>
        <pt x="614" y="9" on="1"/>
        <pt x="428" y="9" on="1"/>
        <pt x="320" y="169" on="1"/>
        <pt x="305" y="192" on="0"/>
        <pt x="289" y="208" on="0"/>
        <pt x="268" y="212" on="0"/>
        <pt x="241" y="212" on="1"/>
        <pt x="220" y="212" on="1"/>
        <pt x="220" y="9" on="1"/>
        <pt x="60" y="9" on="1"/>
        <pt x="60" y="642" on="1"/>
        <pt x="362" y="642" on="1"/>
        <pt x="479" y="642" on="0"/>
        <pt x="590" y="536" on="0"/>
        <pt x="590" y="431" on="1"/>
        <pt x="590" y="353" on="0"/>
        <pt x="512" y="242" on="0"/>
        <pt x="448" y="228" on="1"/>
        <pt x="447" y="225" on="1"/>
      </contour>
      <contour>
        <pt x="385" y="342" on="0"/>
        <pt x="425" y="381" on="0"/>
        <pt x="425" y="427" on="1"/>
        <pt x="425" y="473" on="0"/>
        <pt x="385" y="512" on="0"/>
        <pt x="336" y="512" on="1"/>
        <pt x="220" y="512" on="1"/>
        <pt x="220" y="342" on="1"/>
        <pt x="336" y="342" on="1"/>
      </contour>
    </TTGlyph>
    <TTGlyph name="Racute" xMin="60" yMin="9" xMax="614" yMax="837">
      <component glyphName="R" x="0" y="0" flags="0x0"/>
      <component glyphName="acute" x="200" y="0" flags="0x0"/>
    </TTGlyph>
    <TTGlyph name="Rcaron" xMin="60" yMin="9" xMax="614" yMax="836">
      <component glyphName="R" x="0" y="0" flags="0x0"/>
      <component glyphName="caron" x="130" y="0" flags="0x0"/>
    </TTGlyph>
    <TTGlyph name="S" xMin="40" yMin="0" xMax="567" yMax="651">
      <contour>
        <pt x="138" y="140" on="0"/>
        <pt x="245" y="140" on="1"/>
        <pt x="315" y="140" on="0"/>
        <pt x="384" y="152" on="0"/>
        <pt x="407" y="179" on="0"/>
        <pt x="407" y="203" on="1"/>
        <pt x="407" y="223" on="0"/>
        <pt x="391" y="244" on="0"/>
        <pt x="345" y="257" on="0"/>
        <pt x="300" y="261" on="1"/>
        <pt x="234" y="267" on="1"/>
        <pt x="126" y="277" on="0"/>
        <pt x="40" y="370" on="0"/>
        <pt x="40" y="460" on="1"/>
        <pt x="40" y="529" on="0"/>
        <pt x="95" y="612" on="0"/>
        <pt x="218" y="651" on="0"/>
        <pt x="322" y="651" on="1"/>
        <pt x="456" y="651" on="0"/>
        <pt x="543" y="616" on="1"/>
        <pt x="540" y="480" on="1"/>
        <pt x="537" y="476" on="1"/>
        <pt x="438" y="511" on="0"/>
        <pt x="330" y="511" on="1"/>
        <pt x="278" y="511" on="0"/>
        <pt x="222" y="500" on="0"/>
        <pt x="200" y="476" on="0"/>
        <pt x="200" y="454" on="1"/>
        <pt x="200" y="431" on="0"/>
        <pt x="215" y="410" on="0"/>
        <pt x="257" y="399" on="0"/>
        <pt x="305" y="394" on="1"/>
        <pt x="368" y="387" on="1"/>
        <pt x="447" y="378" on="0"/>
        <pt x="533" y="333" on="0"/>
        <pt x="567" y="258" on="0"/>
        <pt x="567" y="200" on="1"/>
        <pt x="567" y="97" on="0"/>
        <pt x="431" y="0" on="0"/>
        <pt x="275" y="0" on="1"/>
        <pt x="149" y="0" on="0"/>
        <pt x="40" y="28" on="1"/>
        <pt x="40" y="169" on="1"/>
        <pt x="44" y="172" on="1"/>
      </contour>
    </TTGlyph>
    <TTGlyph name="Sacute" xMin="40" yMin="0" xMax="567" yMax="837">
      <component glyphName="S" x="0" y="0" flags="0x0"/>
      <component glyphName="acute" x="200" y="0" flags="0x0"/>
    </TTGlyph>
    <TTGlyph name="Scaron" xMin="40" yMin="0" xMax="567" yMax="836">
      <component glyphName="S" x="0" y="0" flags="0x0"/>
      <component glyphName="caron" x="130" y="0" flags="0x0"/>
    </TTGlyph>
    <TTGlyph name="Scircumflex" xMin="40" yMin="0" xMax="567" yMax="836">
      <component glyphName="S" x="0" y="0" flags="0x0"/>
      <component glyphName="circumflex" x="163" y="0" flags="0x0"/>
    </TTGlyph>
    <TTGlyph name="T" xMin="10" yMin="9" xMax="530" yMax="642">
      <contour>
        <pt x="530" y="507" on="1"/>
        <pt x="350" y="507" on="1"/>
        <pt x="350" y="9" on="1"/>
        <pt x="190" y="9" on="1"/>
        <pt x="190" y="507" on="1"/>
        <pt x="10" y="507" on="1"/>
        <pt x="10" y="642" on="1"/>
        <pt x="530" y="642" on="1"/>
      </contour>
    </TTGlyph>
    <TTGlyph name="Tbar" xMin="10" yMin="9" xMax="530" yMax="642">
      <contour>
        <pt x="350" y="507" on="1"/>
        <pt x="350" y="432" on="1"/>
        <pt x="530" y="432" on="1"/>
        <pt x="530" y="297" on="1"/>
        <pt x="350" y="297" on="1"/>
        <pt x="350" y="9" on="1"/>
        <pt x="190" y="9" on="1"/>
        <pt x="190" y="297" on="1"/>
        <pt x="10" y="297" on="1"/>
        <pt x="10" y="432" on="1"/>
        <pt x="190" y="432" on="1"/>
        <pt x="190" y="507" on="1"/>
        <pt x="10" y="507" on="1"/>
        <pt x="10" y="642" on="1"/>
        <pt x="530" y="642" on="1"/>
        <pt x="530" y="507" on="1"/>
      </contour>
    </TTGlyph>
    <TTGlyph name="Tcaron" xMin="10" yMin="9" xMax="530" yMax="836">
      <component glyphName="T" x="0" y="0" flags="0x0"/>
      <component glyphName="caron" x="96" y="0" flags="0x0"/>
    </TTGlyph>
    <TTGlyph name="Thorn" xMin="60" yMin="9" xMax="601" yMax="691">
      <contour>
        <pt x="438" y="631" on="0"/>
        <pt x="550" y="586" on="0"/>
        <pt x="601" y="487" on="0"/>
        <pt x="601" y="402" on="1"/>
        <pt x="601" y="321" on="0"/>
        <pt x="550" y="221" on="0"/>
        <pt x="437" y="173" on="0"/>
        <pt x="342" y="173" on="1"/>
        <pt x="220" y="173" on="1"/>
        <pt x="220" y="9" on="1"/>
        <pt x="60" y="9" on="1"/>
        <pt x="60" y="691" on="1"/>
        <pt x="220" y="691" on="1"/>
        <pt x="220" y="631" on="1"/>
        <pt x="342" y="631" on="1"/>
      </contour>
      <contour>
        <pt x="385" y="304" on="0"/>
        <pt x="435" y="348" on="0"/>
        <pt x="435" y="402" on="1"/>
        <pt x="435" y="454" on="0"/>
        <pt x="384" y="500" on="0"/>
        <pt x="316" y="500" on="1"/>
        <pt x="220" y="500" on="1"/>
        <pt x="220" y="304" on="1"/>
        <pt x="316" y="304" on="1"/>
      </contour>
    </TTGlyph>
    <TTGlyph name="U" xMin="60" yMin="0" xMax="608" yMax="642">
      <contour>
        <pt x="608" y="269" on="1"/>
        <pt x="608" y="168" on="0"/>
        <pt x="561" y="53" on="0"/>
        <pt x="445" y="0" on="0"/>
        <pt x="339" y="0" on="1"/>
        <pt x="229" y="0" on="0"/>
        <pt x="109" y="52" on="0"/>
        <pt x="60" y="167" on="0"/>
        <pt x="60" y="269" on="1"/>
        <pt x="60" y="642" on="1"/>
        <pt x="220" y="642" on="1"/>
        <pt x="220" y="272" on="1"/>
        <pt x="220" y="219" on="0"/>
        <pt x="240" y="163" on="0"/>
        <pt x="291" y="140" on="0"/>
        <pt x="339" y="140" on="1"/>
        <pt x="383" y="140" on="0"/>
        <pt x="430" y="163" on="0"/>
        <pt x="448" y="219" on="0"/>
        <pt x="448" y="272" on="1"/>
        <pt x="448" y="642" on="1"/>
        <pt x="608" y="642" on="1"/>
      </contour>
    </TTGlyph>
    <TTGlyph name="Uacute" xMin="60" yMin="0" xMax="608" yMax="837">
      <component glyphName="U" x="0" y="0" flags="0x0"/>
      <component glyphName="acute" x="250" y="0" flags="0x0"/>
    </TTGlyph>
    <TTGlyph name="Ubreve" xMin="60" yMin="0" xMax="608" yMax="837">
      <component glyphName="U" x="0" y="0" flags="0x0"/>
      <component glyphName="breve" x="125" y="0" flags="0x0"/>
    </TTGlyph>
    <TTGlyph name="Ucircumflex" xMin="60" yMin="0" xMax="608" yMax="836">
      <component glyphName="U" x="0" y="0" flags="0x0"/>
      <component glyphName="circumflex" x="193" y="0" flags="0x0"/>
    </TTGlyph>
    <TTGlyph name="Udieresis" xMin="60" yMin="0" xMax="608" yMax="787">
      <component glyphName="U" x="0" y="0" flags="0x0"/>
      <component glyphName="dieresis" x="165" y="0" flags="0x0"/>
    </TTGlyph>
    <TTGlyph name="Ugrave" xMin="60" yMin="0" xMax="608" yMax="836">
      <component glyphName="U" x="0" y="0" flags="0x0"/>
      <component glyphName="grave" x="150" y="0" flags="0x0"/>
    </TTGlyph>
    <TTGlyph name="Uhungarumlaut" xMin="60" yMin="0" xMax="614" yMax="837">
      <component glyphName="U" x="0" y="0" flags="0x0"/>
      <component glyphName="hungarumlaut" x="144" y="75" flags="0x4"/>
    </TTGlyph>
    <TTGlyph name="Umacron" xMin="60" yMin="0" xMax="608" yMax="782">
      <component glyphName="U" x="0" y="0" flags="0x0"/>
      <component glyphName="macron" x="172" y="0" flags="0x0"/>
    </TTGlyph>
    <TTGlyph name="Uogonek" xMin="60" yMin="-211" xMax="608" yMax="642">
      <contour>
        <pt x="608" y="642" on="1"/>
        <pt x="608" y="269" on="1"/>
        <pt x="608" y="177" on="0"/>
        <pt x="570" y="66" on="0"/>
        <pt x="477" y="8" on="0"/>
        <pt x="395" y="2" on="1"/>
        <pt x="371" y="-36" on="0"/>
        <pt x="371" y="-75" on="1"/>
        <pt x="371" y="-103" on="0"/>
        <pt x="397" y="-129" on="0"/>
        <pt x="430" y="-129" on="1"/>
        <pt x="450" y="-129" on="0"/>
        <pt x="462" y="-127" on="1"/>
        <pt x="464" y="-130" on="1"/>
        <pt x="463" y="-208" on="1"/>
        <pt x="409" y="-211" on="0"/>
        <pt x="408" y="-211" on="1"/>
        <pt x="334" y="-211" on="0"/>
        <pt x="270" y="-159" on="0"/>
        <pt x="270" y="-107" on="1"/>
        <pt x="270" y="-76" on="0"/>
        <pt x="291" y="-19" on="0"/>
        <pt x="310" y="0" on="1"/>
        <pt x="212" y="3" on="0"/>
        <pt x="104" y="59" on="0"/>
        <pt x="60" y="172" on="0"/>
        <pt x="60" y="269" on="1"/>
        <pt x="60" y="642" on="1"/>
        <pt x="220" y="642" on="1"/>
        <pt x="220" y="272" on="1"/>
        <pt x="220" y="219" on="0"/>
        <pt x="240" y="163" on="0"/>
        <pt x="291" y="140" on="0"/>
        <pt x="339" y="140" on="1"/>
        <pt x="383" y="140" on="0"/>
        <pt x="430" y="163" on="0"/>
        <pt x="448" y="219" on="0"/>
        <pt x="448" y="272" on="1"/>
        <pt x="448" y="642" on="1"/>
      </contour>
    </TTGlyph>
    <TTGlyph name="Uring" xMin="60" yMin="0" xMax="608" yMax="875">
      <component glyphName="U" x="0" y="0" flags="0x0"/>
      <component glyphName="ring" x="232" y="0" flags="0x0"/>
    </TTGlyph>
    <TTGlyph name="Utilde" xMin="60" yMin="0" xMax="608" yMax="819">
      <component glyphName="U" x="0" y="0" flags="0x0"/>
      <component glyphName="tilde" x="147" y="0" flags="0x0"/>
    </TTGlyph>
    <TTGlyph name="V" xMin="33" yMin="9" xMax="637" yMax="641">
      <contour>
        <pt x="440" y="9" on="1"/>
        <pt x="220" y="9" on="1"/>
        <pt x="33" y="641" on="1"/>
        <pt x="212" y="641" on="1"/>
        <pt x="245" y="536" on="0"/>
        <pt x="320" y="250" on="0"/>
        <pt x="333" y="177" on="1"/>
        <pt x="337" y="177" on="1"/>
        <pt x="351" y="254" on="0"/>
        <pt x="426" y="541" on="0"/>
        <pt x="458" y="641" on="1"/>
        <pt x="637" y="641" on="1"/>
      </contour>
    </TTGlyph>
    <TTGlyph name="W" xMin="20" yMin="9" xMax="872" yMax="642">
      <contour>
        <pt x="872" y="642" on="1"/>
        <pt x="738" y="9" on="1"/>
        <pt x="543" y="9" on="1"/>
        <pt x="485" y="210" on="0"/>
        <pt x="447" y="436" on="1"/>
        <pt x="445" y="436" on="1"/>
        <pt x="395" y="184" on="0"/>
        <pt x="349" y="9" on="1"/>
        <pt x="154" y="9" on="1"/>
        <pt x="20" y="642" on="1"/>
        <pt x="183" y="642" on="1"/>
        <pt x="216" y="480" on="0"/>
        <pt x="257" y="218" on="1"/>
        <pt x="259" y="218" on="1"/>
        <pt x="299" y="442" on="0"/>
        <pt x="349" y="642" on="1"/>
        <pt x="543" y="642" on="1"/>
        <pt x="633" y="218" on="1"/>
        <pt x="635" y="218" on="1"/>
        <pt x="709" y="642" on="1"/>
      </contour>
    </TTGlyph>
    <TTGlyph name="Wacute" xMin="20" yMin="9" xMax="872" yMax="837">
      <component glyphName="W" x="0" y="0" flags="0x0"/>
      <component glyphName="acute" x="360" y="0" flags="0x0"/>
    </TTGlyph>
    <TTGlyph name="Wcircumflex" xMin="20" yMin="9" xMax="872" yMax="836">
      <component glyphName="W" x="0" y="0" flags="0x0"/>
      <component glyphName="circumflex" x="305" y="0" flags="0x0"/>
    </TTGlyph>
    <TTGlyph name="Wdieresis" xMin="20" yMin="9" xMax="872" yMax="787">
      <component glyphName="W" x="0" y="0" flags="0x0"/>
      <component glyphName="dieresis" x="277" y="0" flags="0x0"/>
    </TTGlyph>
    <TTGlyph name="Wgrave" xMin="20" yMin="9" xMax="872" yMax="836">
      <component glyphName="W" x="0" y="0" flags="0x0"/>
      <component glyphName="grave" x="230" y="0" flags="0x0"/>
    </TTGlyph>
    <TTGlyph name="X" xMin="20" yMin="9" xMax="653" yMax="642">
      <contour>
        <pt x="653" y="9" on="1"/>
        <pt x="453" y="9" on="1"/>
        <pt x="338" y="233" on="1"/>
        <pt x="335" y="233" on="1"/>
        <pt x="220" y="9" on="1"/>
        <pt x="20" y="9" on="1"/>
        <pt x="205" y="332" on="1"/>
        <pt x="205" y="337" on="1"/>
        <pt x="32" y="642" on="1"/>
        <pt x="229" y="642" on="1"/>
        <pt x="335" y="422" on="1"/>
        <pt x="338" y="422" on="1"/>
        <pt x="444" y="642" on="1"/>
        <pt x="641" y="642" on="1"/>
        <pt x="468" y="337" on="1"/>
        <pt x="468" y="332" on="1"/>
      </contour>
    </TTGlyph>
    <TTGlyph name="Y" xMin="0" yMin="9" xMax="570" yMax="642">
      <contour>
        <pt x="570" y="642" on="1"/>
        <pt x="570" y="639" on="1"/>
        <pt x="365" y="205" on="1"/>
        <pt x="365" y="9" on="1"/>
        <pt x="205" y="9" on="1"/>
        <pt x="205" y="205" on="1"/>
        <pt x="0" y="639" on="1"/>
        <pt x="0" y="642" on="1"/>
        <pt x="175" y="642" on="1"/>
        <pt x="255" y="434" on="0"/>
        <pt x="283" y="356" on="1"/>
        <pt x="287" y="356" on="1"/>
        <pt x="315" y="434" on="0"/>
        <pt x="395" y="642" on="1"/>
      </contour>
    </TTGlyph>
    <TTGlyph name="Yacute" xMin="0" yMin="9" xMax="570" yMax="837">
      <component glyphName="Y" x="0" y="0" flags="0x0"/>
      <component glyphName="acute" x="200" y="0" flags="0x0"/>
    </TTGlyph>
    <TTGlyph name="Ycircumflex" xMin="0" yMin="9" xMax="570" yMax="836">
      <component glyphName="Y" x="0" y="0" flags="0x0"/>
      <component glyphName="circumflex" x="144" y="0" flags="0x0"/>
    </TTGlyph>
    <TTGlyph name="Ydieresis" xMin="0" yMin="9" xMax="570" yMax="787">
      <component glyphName="Y" x="0" y="0" flags="0x0"/>
      <component glyphName="dieresis" x="116" y="0" flags="0x0"/>
    </TTGlyph>
    <TTGlyph name="Ygrave" xMin="0" yMin="9" xMax="570" yMax="836">
      <component glyphName="Y" x="0" y="0" flags="0x0"/>
      <component glyphName="grave" x="70" y="0" flags="0x0"/>
    </TTGlyph>
    <TTGlyph name="Z" xMin="30" yMin="8" xMax="569" yMax="642">
      <contour>
        <pt x="46" y="513" on="1"/>
        <pt x="46" y="642" on="1"/>
        <pt x="553" y="642" on="1"/>
        <pt x="553" y="527" on="1"/>
        <pt x="247" y="139" on="1"/>
        <pt x="247" y="137" on="1"/>
        <pt x="569" y="137" on="1"/>
        <pt x="569" y="8" on="1"/>
        <pt x="30" y="8" on="1"/>
        <pt x="30" y="113" on="1"/>
        <pt x="353" y="511" on="1"/>
        <pt x="353" y="513" on="1"/>
      </contour>
    </TTGlyph>
    <TTGlyph name="Zacute" xMin="30" yMin="8" xMax="569" yMax="837">
      <component glyphName="Z" x="0" y="0" flags="0x0"/>
      <component glyphName="acute" x="200" y="0" flags="0x0"/>
    </TTGlyph>
    <TTGlyph name="Zcaron" xMin="30" yMin="8" xMax="569" yMax="836">
      <component glyphName="Z" x="0" y="0" flags="0x0"/>
      <component glyphName="caron" x="126" y="0" flags="0x0"/>
    </TTGlyph>
    <TTGlyph name="Zdotaccent" xMin="30" yMin="8" xMax="569" yMax="799">
      <component glyphName="Z" x="0" y="0" flags="0x0"/>
      <component glyphName="dotaccent" x="223" y="43" flags="0x4"/>
    </TTGlyph>
    <TTGlyph name="a" xMin="25" yMin="0" xMax="514" yMax="501">
      <contour>
        <pt x="346" y="501" on="0"/>
        <pt x="460" y="460" on="0"/>
        <pt x="514" y="353" on="0"/>
        <pt x="514" y="253" on="1"/>
        <pt x="514" y="9" on="1"/>
        <pt x="369" y="9" on="1"/>
        <pt x="364" y="55" on="1"/>
        <pt x="361" y="55" on="1"/>
        <pt x="319" y="0" on="0"/>
        <pt x="198" y="0" on="1"/>
        <pt x="112" y="0" on="0"/>
        <pt x="25" y="82" on="0"/>
        <pt x="25" y="162" on="1"/>
        <pt x="25" y="233" on="0"/>
        <pt x="118" y="310" on="0"/>
        <pt x="214" y="310" on="1"/>
        <pt x="362" y="310" on="1"/>
        <pt x="357" y="339" on="0"/>
        <pt x="330" y="369" on="0"/>
        <pt x="276" y="381" on="0"/>
        <pt x="227" y="381" on="1"/>
        <pt x="154" y="381" on="0"/>
        <pt x="66" y="360" on="1"/>
        <pt x="63" y="362" on="1"/>
        <pt x="64" y="478" on="1"/>
        <pt x="95" y="487" on="0"/>
        <pt x="200" y="501" on="0"/>
        <pt x="245" y="501" on="1"/>
      </contour>
      <contour>
        <pt x="302" y="118" on="0"/>
        <pt x="363" y="149" on="0"/>
        <pt x="364" y="183" on="1"/>
        <pt x="364" y="208" on="1"/>
        <pt x="251" y="208" on="1"/>
        <pt x="209" y="208" on="0"/>
        <pt x="172" y="184" on="0"/>
        <pt x="172" y="162" on="1"/>
        <pt x="172" y="138" on="0"/>
        <pt x="206" y="118" on="0"/>
        <pt x="239" y="118" on="1"/>
      </contour>
    </TTGlyph>
    <TTGlyph name="aacute" xMin="25" yMin="0" xMax="514" yMax="697">
      <component glyphName="a" x="0" y="0" flags="0x0"/>
      <component glyphName="acute" x="170" y="-140" flags="0x4"/>
    </TTGlyph>
    <TTGlyph name="abreve" xMin="25" yMin="0" xMax="514" yMax="703">
      <component glyphName="a" x="0" y="0" flags="0x0"/>
      <component glyphName="breve" x="61" y="-134" flags="0x4"/>
    </TTGlyph>
    <TTGlyph name="acircumflex" xMin="25" yMin="0" xMax="514" yMax="696">
      <component glyphName="a" x="0" y="0" flags="0x0"/>
      <component glyphName="circumflex" x="129" y="-140" flags="0x4"/>
    </TTGlyph>
    <TTGlyph name="acute" xMin="10" yMin="691" xMax="260" yMax="837">
      <contour>
        <pt x="138" y="691" on="1"/>
        <pt x="10" y="691" on="1"/>
        <pt x="112" y="837" on="1"/>
        <pt x="260" y="837" on="1"/>
        <pt x="260" y="830" on="1"/>
      </contour>
    </TTGlyph>
    <TTGlyph name="adieresis" xMin="25" yMin="0" xMax="514" yMax="650">
      <component glyphName="a" x="0" y="0" flags="0x0"/>
      <component glyphName="dieresis" x="100" y="-137" flags="0x4"/>
    </TTGlyph>
    <TTGlyph name="ae" xMin="25" yMin="0" xMax="853" yMax="501">
      <contour>
        <pt x="742" y="501" on="0"/>
        <pt x="853" y="392" on="0"/>
        <pt x="853" y="289" on="1"/>
        <pt x="853" y="244" on="0"/>
        <pt x="846" y="205" on="1"/>
        <pt x="842" y="201" on="1"/>
        <pt x="513" y="201" on="1"/>
        <pt x="518" y="172" on="0"/>
        <pt x="550" y="141" on="0"/>
        <pt x="612" y="129" on="0"/>
        <pt x="667" y="129" on="1"/>
        <pt x="755" y="129" on="0"/>
        <pt x="824" y="139" on="1"/>
        <pt x="828" y="136" on="1"/>
        <pt x="828" y="25" on="1"/>
        <pt x="798" y="14" on="0"/>
        <pt x="697" y="0" on="0"/>
        <pt x="633" y="0" on="1"/>
        <pt x="552" y="0" on="0"/>
        <pt x="441" y="37" on="0"/>
        <pt x="409" y="79" on="1"/>
        <pt x="407" y="79" on="1"/>
        <pt x="386" y="37" on="0"/>
        <pt x="296" y="0" on="0"/>
        <pt x="218" y="0" on="1"/>
        <pt x="124" y="0" on="0"/>
        <pt x="25" y="82" on="0"/>
        <pt x="25" y="162" on="1"/>
        <pt x="25" y="233" on="0"/>
        <pt x="118" y="310" on="0"/>
        <pt x="214" y="310" on="1"/>
        <pt x="363" y="310" on="1"/>
        <pt x="358" y="339" on="0"/>
        <pt x="331" y="369" on="0"/>
        <pt x="277" y="381" on="0"/>
        <pt x="228" y="381" on="1"/>
        <pt x="155" y="381" on="0"/>
        <pt x="67" y="360" on="1"/>
        <pt x="64" y="362" on="1"/>
        <pt x="65" y="478" on="1"/>
        <pt x="96" y="487" on="0"/>
        <pt x="201" y="501" on="0"/>
        <pt x="246" y="501" on="1"/>
        <pt x="315" y="501" on="0"/>
        <pt x="410" y="481" on="0"/>
        <pt x="440" y="456" on="1"/>
        <pt x="498" y="501" on="0"/>
        <pt x="612" y="501" on="1"/>
      </contour>
      <contour>
        <pt x="714" y="306" on="1"/>
        <pt x="714" y="345" on="0"/>
        <pt x="672" y="384" on="0"/>
        <pt x="612" y="384" on="1"/>
        <pt x="553" y="384" on="0"/>
        <pt x="510" y="345" on="0"/>
        <pt x="510" y="306" on="1"/>
      </contour>
      <contour>
        <pt x="311" y="118" on="0"/>
        <pt x="366" y="150" on="0"/>
        <pt x="367" y="196" on="1"/>
        <pt x="367" y="204" on="0"/>
        <pt x="366" y="208" on="1"/>
        <pt x="251" y="208" on="1"/>
        <pt x="209" y="208" on="0"/>
        <pt x="172" y="184" on="0"/>
        <pt x="172" y="162" on="1"/>
        <pt x="172" y="118" on="0"/>
        <pt x="249" y="118" on="1"/>
      </contour>
    </TTGlyph>
    <TTGlyph name="agrave" xMin="25" yMin="0" xMax="514" yMax="705">
      <component glyphName="a" x="0" y="0" flags="0x0"/>
      <component glyphName="grave" x="75" y="-131" flags="0x4"/>
    </TTGlyph>
    <TTGlyph name="amacron" xMin="25" yMin="0" xMax="514" yMax="651">
      <component glyphName="a" x="0" y="0" flags="0x0"/>
      <component glyphName="macron" x="108" y="-131" flags="0x4"/>
    </TTGlyph>
    <TTGlyph name="ampersand" xMin="40" yMin="0" xMax="632" yMax="652">
      <contour>
        <pt x="446" y="344" on="1"/>
        <pt x="580" y="344" on="1"/>
        <pt x="580" y="220" on="1"/>
        <pt x="580" y="180" on="0"/>
        <pt x="571" y="148" on="1"/>
        <pt x="632" y="95" on="1"/>
        <pt x="557" y="5" on="1"/>
        <pt x="507" y="49" on="1"/>
        <pt x="440" y="0" on="0"/>
        <pt x="311" y="0" on="1"/>
        <pt x="210" y="0" on="0"/>
        <pt x="93" y="38" on="0"/>
        <pt x="40" y="125" on="0"/>
        <pt x="40" y="201" on="1"/>
        <pt x="40" y="281" on="0"/>
        <pt x="98" y="362" on="0"/>
        <pt x="143" y="365" on="1"/>
        <pt x="145" y="369" on="1"/>
        <pt x="121" y="393" on="0"/>
        <pt x="102" y="448" on="0"/>
        <pt x="102" y="490" on="1"/>
        <pt x="102" y="575" on="0"/>
        <pt x="196" y="652" on="0"/>
        <pt x="311" y="652" on="1"/>
        <pt x="401" y="652" on="0"/>
        <pt x="495" y="620" on="0"/>
        <pt x="531" y="547" on="0"/>
        <pt x="531" y="479" on="1"/>
        <pt x="531" y="447" on="1"/>
        <pt x="385" y="447" on="1"/>
        <pt x="386" y="480" on="0"/>
        <pt x="375" y="513" on="0"/>
        <pt x="344" y="526" on="0"/>
        <pt x="313" y="526" on="1"/>
        <pt x="274" y="526" on="0"/>
        <pt x="247" y="502" on="0"/>
        <pt x="247" y="473" on="1"/>
        <pt x="247" y="451" on="0"/>
        <pt x="267" y="417" on="0"/>
        <pt x="297" y="391" on="1"/>
        <pt x="444" y="261" on="1"/>
        <pt x="446" y="261" on="1"/>
      </contour>
      <contour>
        <pt x="230" y="292" on="1"/>
        <pt x="213" y="290" on="0"/>
        <pt x="191" y="251" on="0"/>
        <pt x="191" y="217" on="1"/>
        <pt x="191" y="182" on="0"/>
        <pt x="211" y="147" on="0"/>
        <pt x="261" y="134" on="0"/>
        <pt x="311" y="134" on="1"/>
        <pt x="362" y="134" on="0"/>
        <pt x="395" y="145" on="1"/>
        <pt x="395" y="147" on="1"/>
      </contour>
    </TTGlyph>
    <TTGlyph name="aogonek" xMin="25" yMin="-211" xMax="579" yMax="501">
      <contour>
        <pt x="579" y="-130" on="1"/>
        <pt x="578" y="-208" on="1"/>
        <pt x="524" y="-211" on="0"/>
        <pt x="523" y="-211" on="1"/>
        <pt x="449" y="-211" on="0"/>
        <pt x="385" y="-159" on="0"/>
        <pt x="385" y="-107" on="1"/>
        <pt x="385" y="-73" on="0"/>
        <pt x="411" y="-10" on="0"/>
        <pt x="435" y="9" on="1"/>
        <pt x="369" y="9" on="1"/>
        <pt x="364" y="55" on="1"/>
        <pt x="361" y="55" on="1"/>
        <pt x="319" y="0" on="0"/>
        <pt x="198" y="0" on="1"/>
        <pt x="112" y="0" on="0"/>
        <pt x="25" y="82" on="0"/>
        <pt x="25" y="162" on="1"/>
        <pt x="25" y="233" on="0"/>
        <pt x="118" y="310" on="0"/>
        <pt x="214" y="310" on="1"/>
        <pt x="362" y="310" on="1"/>
        <pt x="357" y="339" on="0"/>
        <pt x="330" y="369" on="0"/>
        <pt x="276" y="381" on="0"/>
        <pt x="227" y="381" on="1"/>
        <pt x="154" y="381" on="0"/>
        <pt x="66" y="360" on="1"/>
        <pt x="63" y="362" on="1"/>
        <pt x="64" y="478" on="1"/>
        <pt x="95" y="487" on="0"/>
        <pt x="200" y="501" on="0"/>
        <pt x="245" y="501" on="1"/>
        <pt x="346" y="501" on="0"/>
        <pt x="460" y="460" on="0"/>
        <pt x="514" y="353" on="0"/>
        <pt x="514" y="253" on="1"/>
        <pt x="514" y="9" on="1"/>
        <pt x="486" y="-34" on="0"/>
        <pt x="486" y="-75" on="1"/>
        <pt x="486" y="-103" on="0"/>
        <pt x="512" y="-129" on="0"/>
        <pt x="545" y="-129" on="1"/>
        <pt x="565" y="-129" on="0"/>
        <pt x="577" y="-127" on="1"/>
      </contour>
      <contour>
        <pt x="302" y="118" on="0"/>
        <pt x="363" y="149" on="0"/>
        <pt x="364" y="183" on="1"/>
        <pt x="364" y="208" on="1"/>
        <pt x="251" y="208" on="1"/>
        <pt x="209" y="208" on="0"/>
        <pt x="172" y="184" on="0"/>
        <pt x="172" y="162" on="1"/>
        <pt x="172" y="138" on="0"/>
        <pt x="206" y="118" on="0"/>
        <pt x="239" y="118" on="1"/>
      </contour>
    </TTGlyph>
    <TTGlyph name="approxequal" xMin="35" yMin="114" xMax="572" yMax="511">
      <contour>
        <pt x="407" y="324" on="0"/>
        <pt x="348" y="342" on="0"/>
        <pt x="304" y="360" on="1"/>
        <pt x="262" y="377" on="0"/>
        <pt x="210" y="393" on="0"/>
        <pt x="189" y="393" on="1"/>
        <pt x="170" y="393" on="0"/>
        <pt x="149" y="374" on="0"/>
        <pt x="149" y="354" on="1"/>
        <pt x="149" y="349" on="0"/>
        <pt x="151" y="337" on="1"/>
        <pt x="39" y="337" on="1"/>
        <pt x="38" y="341" on="0"/>
        <pt x="35" y="371" on="0"/>
        <pt x="35" y="388" on="1"/>
        <pt x="35" y="450" on="0"/>
        <pt x="100" y="511" on="0"/>
        <pt x="153" y="511" on="1"/>
        <pt x="178" y="511" on="0"/>
        <pt x="238" y="493" on="0"/>
        <pt x="282" y="475" on="1"/>
        <pt x="322" y="459" on="0"/>
        <pt x="375" y="442" on="0"/>
        <pt x="397" y="442" on="1"/>
        <pt x="436" y="442" on="0"/>
        <pt x="436" y="481" on="1"/>
        <pt x="436" y="486" on="0"/>
        <pt x="434" y="498" on="1"/>
        <pt x="546" y="498" on="1"/>
        <pt x="547" y="494" on="0"/>
        <pt x="551" y="465" on="0"/>
        <pt x="551" y="447" on="1"/>
        <pt x="551" y="385" on="0"/>
        <pt x="485" y="324" on="0"/>
        <pt x="432" y="324" on="1"/>
      </contour>
      <contour>
        <pt x="428" y="114" on="0"/>
        <pt x="369" y="132" on="0"/>
        <pt x="325" y="150" on="1"/>
        <pt x="283" y="167" on="0"/>
        <pt x="231" y="183" on="0"/>
        <pt x="210" y="183" on="1"/>
        <pt x="191" y="183" on="0"/>
        <pt x="170" y="164" on="0"/>
        <pt x="170" y="144" on="1"/>
        <pt x="170" y="139" on="0"/>
        <pt x="172" y="127" on="1"/>
        <pt x="60" y="127" on="1"/>
        <pt x="59" y="131" on="0"/>
        <pt x="56" y="161" on="0"/>
        <pt x="56" y="178" on="1"/>
        <pt x="56" y="240" on="0"/>
        <pt x="121" y="301" on="0"/>
        <pt x="174" y="301" on="1"/>
        <pt x="199" y="301" on="0"/>
        <pt x="259" y="283" on="0"/>
        <pt x="303" y="265" on="1"/>
        <pt x="343" y="249" on="0"/>
        <pt x="396" y="232" on="0"/>
        <pt x="418" y="232" on="1"/>
        <pt x="457" y="232" on="0"/>
        <pt x="457" y="271" on="1"/>
        <pt x="457" y="276" on="0"/>
        <pt x="455" y="288" on="1"/>
        <pt x="567" y="288" on="1"/>
        <pt x="568" y="284" on="0"/>
        <pt x="572" y="255" on="0"/>
        <pt x="572" y="237" on="1"/>
        <pt x="572" y="175" on="0"/>
        <pt x="506" y="114" on="0"/>
        <pt x="453" y="114" on="1"/>
      </contour>
    </TTGlyph>
    <TTGlyph name="aring" xMin="25" yMin="0" xMax="514" yMax="736">
      <component glyphName="a" x="0" y="0" flags="0x0"/>
      <component glyphName="ring" x="167" y="-139" flags="0x4"/>
    </TTGlyph>
    <TTGlyph name="asciicircum" xMin="40" yMin="318" xMax="518" yMax="642">
      <contour>
        <pt x="518" y="318" on="1"/>
        <pt x="373" y="318" on="1"/>
        <pt x="280" y="528" on="1"/>
        <pt x="278" y="528" on="1"/>
        <pt x="184" y="318" on="1"/>
        <pt x="40" y="318" on="1"/>
        <pt x="178" y="642" on="1"/>
        <pt x="380" y="642" on="1"/>
      </contour>
    </TTGlyph>
    <TTGlyph name="asciitilde" xMin="40" yMin="234" xMax="556" yMax="421">
      <contour>
        <pt x="412" y="234" on="0"/>
        <pt x="353" y="252" on="0"/>
        <pt x="309" y="270" on="1"/>
        <pt x="267" y="287" on="0"/>
        <pt x="215" y="303" on="0"/>
        <pt x="194" y="303" on="1"/>
        <pt x="175" y="303" on="0"/>
        <pt x="154" y="284" on="0"/>
        <pt x="154" y="264" on="1"/>
        <pt x="154" y="259" on="0"/>
        <pt x="156" y="247" on="1"/>
        <pt x="44" y="247" on="1"/>
        <pt x="43" y="251" on="0"/>
        <pt x="40" y="281" on="0"/>
        <pt x="40" y="298" on="1"/>
        <pt x="40" y="360" on="0"/>
        <pt x="105" y="421" on="0"/>
        <pt x="158" y="421" on="1"/>
        <pt x="183" y="421" on="0"/>
        <pt x="243" y="403" on="0"/>
        <pt x="287" y="385" on="1"/>
        <pt x="327" y="369" on="0"/>
        <pt x="380" y="352" on="0"/>
        <pt x="402" y="352" on="1"/>
        <pt x="441" y="352" on="0"/>
        <pt x="441" y="391" on="1"/>
        <pt x="441" y="396" on="0"/>
        <pt x="439" y="408" on="1"/>
        <pt x="551" y="408" on="1"/>
        <pt x="552" y="404" on="0"/>
        <pt x="556" y="375" on="0"/>
        <pt x="556" y="357" on="1"/>
        <pt x="556" y="295" on="0"/>
        <pt x="490" y="234" on="0"/>
        <pt x="437" y="234" on="1"/>
      </contour>
    </TTGlyph>
    <TTGlyph name="asterisk" xMin="18" yMin="197" xMax="486" yMax="642">
      <contour>
        <pt x="143" y="512" on="1"/>
        <pt x="164" y="506" on="0"/>
        <pt x="200" y="478" on="0"/>
        <pt x="211" y="461" on="1"/>
        <pt x="212" y="462" on="1"/>
        <pt x="192" y="492" on="0"/>
        <pt x="192" y="548" on="1"/>
        <pt x="192" y="642" on="1"/>
        <pt x="310" y="642" on="1"/>
        <pt x="310" y="548" on="1"/>
        <pt x="310" y="522" on="0"/>
        <pt x="300" y="485" on="0"/>
        <pt x="289" y="462" on="1"/>
        <pt x="291" y="461" on="1"/>
        <pt x="303" y="478" on="0"/>
        <pt x="334" y="503" on="0"/>
        <pt x="361" y="512" on="1"/>
        <pt x="449" y="541" on="1"/>
        <pt x="486" y="429" on="1"/>
        <pt x="397" y="400" on="1"/>
        <pt x="361" y="389" on="0"/>
        <pt x="343" y="389" on="1"/>
        <pt x="335" y="389" on="0"/>
        <pt x="313" y="393" on="1"/>
        <pt x="312" y="390" on="1"/>
        <pt x="334" y="383" on="0"/>
        <pt x="362" y="362" on="0"/>
        <pt x="378" y="341" on="1"/>
        <pt x="433" y="267" on="1"/>
        <pt x="337" y="197" on="1"/>
        <pt x="282" y="271" on="1"/>
        <pt x="266" y="293" on="0"/>
        <pt x="253" y="325" on="0"/>
        <pt x="251" y="346" on="1"/>
        <pt x="249" y="346" on="1"/>
        <pt x="249" y="325" on="0"/>
        <pt x="238" y="294" on="0"/>
        <pt x="221" y="271" on="1"/>
        <pt x="167" y="197" on="1"/>
        <pt x="71" y="267" on="1"/>
        <pt x="125" y="342" on="1"/>
        <pt x="141" y="364" on="0"/>
        <pt x="168" y="382" on="0"/>
        <pt x="192" y="391" on="1"/>
        <pt x="191" y="394" on="1"/>
        <pt x="180" y="392" on="0"/>
        <pt x="162" y="392" on="1"/>
        <pt x="135" y="392" on="0"/>
        <pt x="107" y="401" on="1"/>
        <pt x="18" y="429" on="1"/>
        <pt x="55" y="540" on="1"/>
      </contour>
    </TTGlyph>
    <TTGlyph name="at" xMin="50" yMin="-170" xMax="960" yMax="661">
      <contour>
        <pt x="687" y="661" on="0"/>
        <pt x="883" y="577" on="0"/>
        <pt x="960" y="395" on="0"/>
        <pt x="960" y="231" on="1"/>
        <pt x="960" y="103" on="0"/>
        <pt x="934" y="-23" on="0"/>
        <pt x="855" y="-77" on="0"/>
        <pt x="771" y="-77" on="1"/>
        <pt x="686" y="-77" on="0"/>
        <pt x="603" y="-26" on="0"/>
        <pt x="592" y="35" on="1"/>
        <pt x="588" y="57" on="1"/>
        <pt x="586" y="57" on="1"/>
        <pt x="547" y="7" on="0"/>
        <pt x="442" y="7" on="1"/>
        <pt x="288" y="7" on="0"/>
        <pt x="288" y="158" on="1"/>
        <pt x="288" y="293" on="0"/>
        <pt x="455" y="293" on="1"/>
        <pt x="585" y="293" on="1"/>
        <pt x="579" y="327" on="0"/>
        <pt x="528" y="351" on="0"/>
        <pt x="466" y="351" on="1"/>
        <pt x="396" y="351" on="0"/>
        <pt x="324" y="333" on="1"/>
        <pt x="321" y="335" on="1"/>
        <pt x="321" y="448" on="1"/>
        <pt x="348" y="457" on="0"/>
        <pt x="439" y="470" on="0"/>
        <pt x="478" y="470" on="1"/>
        <pt x="565" y="470" on="0"/>
        <pt x="663" y="431" on="0"/>
        <pt x="711" y="327" on="0"/>
        <pt x="714" y="228" on="1"/>
        <pt x="715" y="208" on="0"/>
        <pt x="715" y="173" on="1"/>
        <pt x="717" y="105" on="0"/>
        <pt x="723" y="54" on="0"/>
        <pt x="742" y="35" on="0"/>
        <pt x="767" y="35" on="1"/>
        <pt x="793" y="35" on="0"/>
        <pt x="814" y="61" on="0"/>
        <pt x="820" y="123" on="0"/>
        <pt x="820" y="197" on="1"/>
        <pt x="820" y="228" on="1"/>
        <pt x="820" y="359" on="0"/>
        <pt x="779" y="481" on="0"/>
        <pt x="647" y="531" on="0"/>
        <pt x="502" y="531" on="1"/>
        <pt x="362" y="531" on="0"/>
        <pt x="232" y="481" on="0"/>
        <pt x="190" y="359" on="0"/>
        <pt x="190" y="231" on="1"/>
        <pt x="190" y="116" on="0"/>
        <pt x="230" y="6" on="0"/>
        <pt x="350" y="-40" on="0"/>
        <pt x="478" y="-40" on="1"/>
        <pt x="533" y="-40" on="0"/>
        <pt x="558" y="-34" on="1"/>
        <pt x="559" y="-35" on="1"/>
        <pt x="561" y="-163" on="1"/>
        <pt x="519" y="-170" on="0"/>
        <pt x="477" y="-170" on="1"/>
        <pt x="312" y="-170" on="0"/>
        <pt x="128" y="-91" on="0"/>
        <pt x="50" y="81" on="0"/>
        <pt x="50" y="231" on="1"/>
        <pt x="50" y="392" on="0"/>
        <pt x="131" y="577" on="0"/>
        <pt x="326" y="661" on="0"/>
        <pt x="502" y="661" on="1"/>
      </contour>
      <contour>
        <pt x="533" y="118" on="0"/>
        <pt x="587" y="146" on="0"/>
        <pt x="588" y="177" on="1"/>
        <pt x="588" y="198" on="1"/>
        <pt x="487" y="198" on="1"/>
        <pt x="450" y="198" on="0"/>
        <pt x="418" y="178" on="0"/>
        <pt x="418" y="158" on="1"/>
        <pt x="418" y="136" on="0"/>
        <pt x="447" y="118" on="0"/>
        <pt x="477" y="118" on="1"/>
      </contour>
    </TTGlyph>
    <TTGlyph name="atilde" xMin="25" yMin="0" xMax="514" yMax="680">
      <component glyphName="a" x="0" y="0" flags="0x0"/>
      <component glyphName="tilde" x="83" y="-139" flags="0x4"/>
    </TTGlyph>
    <TTGlyph name="b" xMin="60" yMin="0" xMax="554" yMax="682">
      <contour>
        <pt x="460" y="501" on="0"/>
        <pt x="554" y="388" on="0"/>
        <pt x="554" y="274" on="1"/>
        <pt x="554" y="135" on="0"/>
        <pt x="441" y="0" on="0"/>
        <pt x="312" y="0" on="1"/>
        <pt x="174" y="0" on="0"/>
        <pt x="63" y="19" on="1"/>
        <pt x="60" y="21" on="1"/>
        <pt x="60" y="682" on="1"/>
        <pt x="220" y="682" on="1"/>
        <pt x="220" y="421" on="1"/>
        <pt x="224" y="421" on="1"/>
        <pt x="254" y="501" on="0"/>
        <pt x="363" y="501" on="1"/>
      </contour>
      <contour>
        <pt x="325" y="136" on="0"/>
        <pt x="376" y="154" on="0"/>
        <pt x="397" y="202" on="0"/>
        <pt x="398" y="250" on="1"/>
        <pt x="398" y="312" on="0"/>
        <pt x="361" y="365" on="0"/>
        <pt x="311" y="365" on="1"/>
        <pt x="269" y="365" on="0"/>
        <pt x="220" y="313" on="0"/>
        <pt x="220" y="257" on="1"/>
        <pt x="220" y="140" on="1"/>
        <pt x="244" y="136" on="0"/>
        <pt x="276" y="136" on="1"/>
      </contour>
    </TTGlyph>
    <TTGlyph name="backslash" xMin="20" yMin="-102" xMax="484" yMax="642">
      <contour>
        <pt x="484" y="-102" on="1"/>
        <pt x="324" y="-102" on="1"/>
        <pt x="20" y="642" on="1"/>
        <pt x="180" y="642" on="1"/>
      </contour>
    </TTGlyph>
    <TTGlyph name="bar" xMin="60" yMin="-301" xMax="220" yMax="682">
      <contour>
        <pt x="220" y="682" on="1"/>
        <pt x="220" y="-301" on="1"/>
        <pt x="60" y="-301" on="1"/>
        <pt x="60" y="682" on="1"/>
      </contour>
    </TTGlyph>
    <TTGlyph name="braceleft" xMin="65" yMin="-249" xMax="338" yMax="797">
      <contour>
        <pt x="259" y="-88" on="1"/>
        <pt x="259" y="-114" on="0"/>
        <pt x="282" y="-136" on="0"/>
        <pt x="307" y="-136" on="1"/>
        <pt x="324" y="-136" on="0"/>
        <pt x="337" y="-131" on="1"/>
        <pt x="338" y="-132" on="1"/>
        <pt x="338" y="-239" on="1"/>
        <pt x="310" y="-249" on="0"/>
        <pt x="271" y="-249" on="1"/>
        <pt x="196" y="-249" on="0"/>
        <pt x="133" y="-177" on="0"/>
        <pt x="133" y="-109" on="1"/>
        <pt x="133" y="175" on="1"/>
        <pt x="133" y="220" on="0"/>
        <pt x="65" y="220" on="1"/>
        <pt x="65" y="329" on="1"/>
        <pt x="133" y="329" on="0"/>
        <pt x="133" y="365" on="1"/>
        <pt x="133" y="657" on="1"/>
        <pt x="133" y="725" on="0"/>
        <pt x="196" y="797" on="0"/>
        <pt x="271" y="797" on="1"/>
        <pt x="310" y="797" on="0"/>
        <pt x="338" y="787" on="1"/>
        <pt x="338" y="680" on="1"/>
        <pt x="337" y="679" on="1"/>
        <pt x="324" y="684" on="0"/>
        <pt x="307" y="684" on="1"/>
        <pt x="282" y="684" on="0"/>
        <pt x="259" y="662" on="0"/>
        <pt x="259" y="636" on="1"/>
        <pt x="259" y="352" on="1"/>
        <pt x="259" y="311" on="0"/>
        <pt x="210" y="278" on="0"/>
        <pt x="180" y="275" on="1"/>
        <pt x="180" y="271" on="1"/>
        <pt x="213" y="268" on="0"/>
        <pt x="259" y="238" on="0"/>
        <pt x="259" y="188" on="1"/>
      </contour>
    </TTGlyph>
    <TTGlyph name="braceright" xMin="70" yMin="-249" xMax="343" yMax="797">
      <contour>
        <pt x="149" y="238" on="0"/>
        <pt x="195" y="268" on="0"/>
        <pt x="228" y="271" on="1"/>
        <pt x="228" y="275" on="1"/>
        <pt x="198" y="278" on="0"/>
        <pt x="149" y="311" on="0"/>
        <pt x="149" y="352" on="1"/>
        <pt x="149" y="636" on="1"/>
        <pt x="149" y="662" on="0"/>
        <pt x="126" y="684" on="0"/>
        <pt x="101" y="684" on="1"/>
        <pt x="84" y="684" on="0"/>
        <pt x="71" y="679" on="1"/>
        <pt x="70" y="680" on="1"/>
        <pt x="70" y="787" on="1"/>
        <pt x="98" y="797" on="0"/>
        <pt x="137" y="797" on="1"/>
        <pt x="212" y="797" on="0"/>
        <pt x="275" y="725" on="0"/>
        <pt x="275" y="657" on="1"/>
        <pt x="275" y="365" on="1"/>
        <pt x="275" y="329" on="0"/>
        <pt x="343" y="329" on="1"/>
        <pt x="343" y="220" on="1"/>
        <pt x="275" y="220" on="0"/>
        <pt x="275" y="175" on="1"/>
        <pt x="275" y="-109" on="1"/>
        <pt x="275" y="-177" on="0"/>
        <pt x="212" y="-249" on="0"/>
        <pt x="137" y="-249" on="1"/>
        <pt x="98" y="-249" on="0"/>
        <pt x="70" y="-239" on="1"/>
        <pt x="70" y="-132" on="1"/>
        <pt x="71" y="-131" on="1"/>
        <pt x="84" y="-136" on="0"/>
        <pt x="101" y="-136" on="1"/>
        <pt x="126" y="-136" on="0"/>
        <pt x="149" y="-114" on="0"/>
        <pt x="149" y="-88" on="1"/>
        <pt x="149" y="188" on="1"/>
      </contour>
    </TTGlyph>
    <TTGlyph name="bracketleft" xMin="60" yMin="-259" xMax="313" yMax="797">
      <contour>
        <pt x="313" y="672" on="1"/>
        <pt x="208" y="672" on="1"/>
        <pt x="208" y="-134" on="1"/>
        <pt x="313" y="-134" on="1"/>
        <pt x="313" y="-259" on="1"/>
        <pt x="60" y="-259" on="1"/>
        <pt x="60" y="797" on="1"/>
        <pt x="313" y="797" on="1"/>
      </contour>
    </TTGlyph>
    <TTGlyph name="bracketright" xMin="30" yMin="-259" xMax="283" yMax="797">
      <contour>
        <pt x="283" y="797" on="1"/>
        <pt x="283" y="-259" on="1"/>
        <pt x="30" y="-259" on="1"/>
        <pt x="30" y="-134" on="1"/>
        <pt x="135" y="-134" on="1"/>
        <pt x="135" y="672" on="1"/>
        <pt x="30" y="672" on="1"/>
        <pt x="30" y="797" on="1"/>
      </contour>
    </TTGlyph>
    <TTGlyph name="breve" xMin="10" yMin="682" xMax="408" yMax="837">
      <contour>
        <pt x="301" y="806" on="0"/>
        <pt x="292" y="780" on="0"/>
        <pt x="260" y="770" on="0"/>
        <pt x="221" y="770" on="1"/>
        <pt x="171" y="770" on="0"/>
        <pt x="130" y="779" on="0"/>
        <pt x="118" y="805" on="0"/>
        <pt x="118" y="837" on="1"/>
        <pt x="10" y="837" on="1"/>
        <pt x="10" y="770" on="0"/>
        <pt x="38" y="707" on="0"/>
        <pt x="121" y="682" on="0"/>
        <pt x="211" y="682" on="1"/>
        <pt x="296" y="682" on="0"/>
        <pt x="378" y="708" on="0"/>
        <pt x="408" y="772" on="0"/>
        <pt x="408" y="837" on="1"/>
        <pt x="301" y="837" on="1"/>
      </contour>
    </TTGlyph>
    <TTGlyph name="brokenbar" xMin="76" yMin="-301" xMax="236" yMax="682">
      <contour>
        <pt x="76" y="682" on="1"/>
        <pt x="236" y="682" on="1"/>
        <pt x="236" y="241" on="1"/>
        <pt x="76" y="241" on="1"/>
      </contour>
      <contour>
        <pt x="236" y="-301" on="1"/>
        <pt x="76" y="-301" on="1"/>
        <pt x="76" y="139" on="1"/>
        <pt x="236" y="139" on="1"/>
      </contour>
    </TTGlyph>
    <TTGlyph name="bullet" xMin="30" yMin="184" xMax="343" yMax="427">
      <contour>
        <pt x="343" y="352" on="0"/>
        <pt x="343" y="306" on="1"/>
        <pt x="343" y="257" on="0"/>
        <pt x="336" y="200" on="1"/>
        <pt x="242" y="184" on="0"/>
        <pt x="187" y="184" on="1"/>
        <pt x="125" y="184" on="0"/>
        <pt x="38" y="200" on="1"/>
        <pt x="30" y="252" on="0"/>
        <pt x="30" y="306" on="1"/>
        <pt x="30" y="355" on="0"/>
        <pt x="38" y="414" on="1"/>
        <pt x="118" y="427" on="0"/>
        <pt x="187" y="427" on="1"/>
        <pt x="255" y="427" on="0"/>
        <pt x="336" y="414" on="1"/>
      </contour>
    </TTGlyph>
    <TTGlyph name="c" xMin="25" yMin="0" xMax="439" yMax="501">
      <contour>
        <pt x="439" y="20" on="1"/>
        <pt x="414" y="10" on="0"/>
        <pt x="317" y="0" on="0"/>
        <pt x="261" y="0" on="1"/>
        <pt x="178" y="0" on="0"/>
        <pt x="76" y="46" on="0"/>
        <pt x="25" y="155" on="0"/>
        <pt x="25" y="251" on="1"/>
        <pt x="25" y="390" on="0"/>
        <pt x="142" y="501" on="0"/>
        <pt x="260" y="501" on="1"/>
        <pt x="305" y="501" on="0"/>
        <pt x="403" y="489" on="0"/>
        <pt x="433" y="479" on="1"/>
        <pt x="434" y="345" on="1"/>
        <pt x="431" y="343" on="1"/>
        <pt x="371" y="355" on="0"/>
        <pt x="300" y="355" on="1"/>
        <pt x="234" y="355" on="0"/>
        <pt x="181" y="306" on="0"/>
        <pt x="181" y="246" on="1"/>
        <pt x="181" y="201" on="0"/>
        <pt x="203" y="158" on="0"/>
        <pt x="252" y="143" on="0"/>
        <pt x="300" y="143" on="1"/>
        <pt x="355" y="143" on="0"/>
        <pt x="435" y="153" on="1"/>
        <pt x="439" y="150" on="1"/>
      </contour>
    </TTGlyph>
    <TTGlyph name="cacute" xMin="25" yMin="0" xMax="439" yMax="697">
      <component glyphName="c" x="0" y="0" flags="0x0"/>
      <component glyphName="acute" x="151" y="-140" flags="0x4"/>
    </TTGlyph>
    <TTGlyph name="caron" xMin="10" yMin="691" xMax="338" yMax="836">
      <contour>
        <pt x="225" y="691" on="1"/>
        <pt x="117" y="691" on="1"/>
        <pt x="10" y="836" on="1"/>
        <pt x="126" y="836" on="1"/>
        <pt x="163" y="779" on="0"/>
        <pt x="173" y="752" on="1"/>
        <pt x="176" y="752" on="1"/>
        <pt x="182" y="774" on="0"/>
        <pt x="220" y="832" on="0"/>
        <pt x="223" y="836" on="1"/>
        <pt x="338" y="836" on="1"/>
      </contour>
    </TTGlyph>
    <TTGlyph name="ccaron" xMin="25" yMin="0" xMax="439" yMax="694">
      <component glyphName="c" x="0" y="0" flags="0x0"/>
      <component glyphName="caron" x="81" y="-142" flags="0x4"/>
    </TTGlyph>
    <TTGlyph name="ccedilla" xMin="25" yMin="-218" xMax="439" yMax="501">
      <contour>
        <pt x="399" y="4" on="0"/>
        <pt x="300" y="1" on="1"/>
        <pt x="292" y="-35" on="1"/>
        <pt x="338" y="-40" on="0"/>
        <pt x="378" y="-77" on="0"/>
        <pt x="378" y="-119" on="1"/>
        <pt x="378" y="-174" on="0"/>
        <pt x="322" y="-218" on="0"/>
        <pt x="253" y="-218" on="1"/>
        <pt x="185" y="-218" on="0"/>
        <pt x="149" y="-211" on="1"/>
        <pt x="149" y="-134" on="1"/>
        <pt x="154" y="-131" on="1"/>
        <pt x="178" y="-137" on="0"/>
        <pt x="224" y="-137" on="1"/>
        <pt x="263" y="-137" on="0"/>
        <pt x="294" y="-127" on="0"/>
        <pt x="294" y="-115" on="1"/>
        <pt x="294" y="-103" on="0"/>
        <pt x="258" y="-92" on="0"/>
        <pt x="206" y="-91" on="1"/>
        <pt x="192" y="-91" on="1"/>
        <pt x="211" y="2" on="1"/>
        <pt x="114" y="11" on="0"/>
        <pt x="25" y="124" on="0"/>
        <pt x="25" y="251" on="1"/>
        <pt x="25" y="390" on="0"/>
        <pt x="142" y="501" on="0"/>
        <pt x="260" y="501" on="1"/>
        <pt x="305" y="501" on="0"/>
        <pt x="403" y="489" on="0"/>
        <pt x="433" y="479" on="1"/>
        <pt x="434" y="345" on="1"/>
        <pt x="431" y="343" on="1"/>
        <pt x="371" y="355" on="0"/>
        <pt x="300" y="355" on="1"/>
        <pt x="234" y="355" on="0"/>
        <pt x="181" y="306" on="0"/>
        <pt x="181" y="246" on="1"/>
        <pt x="181" y="201" on="0"/>
        <pt x="203" y="158" on="0"/>
        <pt x="252" y="143" on="0"/>
        <pt x="300" y="143" on="1"/>
        <pt x="355" y="143" on="0"/>
        <pt x="435" y="153" on="1"/>
        <pt x="439" y="150" on="1"/>
        <pt x="439" y="20" on="1"/>
      </contour>
    </TTGlyph>
    <TTGlyph name="ccircumflex" xMin="25" yMin="0" xMax="439" yMax="694">
      <component glyphName="c" x="0" y="0" flags="0x0"/>
      <component glyphName="circumflex" x="96" y="-142" flags="0x4"/>
    </TTGlyph>
    <TTGlyph name="cdotaccent" xMin="25" yMin="0" xMax="439" yMax="659">
      <component glyphName="c" x="0" y="0" flags="0x0"/>
      <component glyphName="dotaccent" x="191" y="-97" flags="0x4"/>
    </TTGlyph>
    <TTGlyph name="cedilla" xMin="-3" yMin="-218" xMax="226" yMax="20">
      <contour>
        <pt x="26" y="-137" on="0"/>
        <pt x="72" y="-137" on="1"/>
        <pt x="111" y="-137" on="0"/>
        <pt x="142" y="-127" on="0"/>
        <pt x="142" y="-115" on="1"/>
        <pt x="142" y="-103" on="0"/>
        <pt x="106" y="-92" on="0"/>
        <pt x="54" y="-91" on="1"/>
        <pt x="40" y="-91" on="1"/>
        <pt x="63" y="20" on="1"/>
        <pt x="153" y="20" on="1"/>
        <pt x="140" y="-35" on="1"/>
        <pt x="186" y="-40" on="0"/>
        <pt x="226" y="-77" on="0"/>
        <pt x="226" y="-119" on="1"/>
        <pt x="226" y="-174" on="0"/>
        <pt x="170" y="-218" on="0"/>
        <pt x="101" y="-218" on="1"/>
        <pt x="33" y="-218" on="0"/>
        <pt x="-3" y="-211" on="1"/>
        <pt x="-3" y="-134" on="1"/>
        <pt x="2" y="-131" on="1"/>
      </contour>
    </TTGlyph>
    <TTGlyph name="cent" xMin="25" yMin="-110" xMax="439" yMax="616">
      <contour>
        <pt x="439" y="20" on="1"/>
        <pt x="414" y="10" on="0"/>
        <pt x="363" y="5" on="1"/>
        <pt x="363" y="-110" on="1"/>
        <pt x="213" y="-110" on="1"/>
        <pt x="213" y="2" on="1"/>
        <pt x="115" y="10" on="0"/>
        <pt x="25" y="124" on="0"/>
        <pt x="25" y="252" on="1"/>
        <pt x="25" y="376" on="0"/>
        <pt x="120" y="490" on="0"/>
        <pt x="213" y="499" on="1"/>
        <pt x="213" y="616" on="1"/>
        <pt x="363" y="616" on="1"/>
        <pt x="363" y="494" on="1"/>
        <pt x="408" y="487" on="0"/>
        <pt x="433" y="479" on="1"/>
        <pt x="434" y="345" on="1"/>
        <pt x="431" y="343" on="1"/>
        <pt x="371" y="355" on="0"/>
        <pt x="300" y="355" on="1"/>
        <pt x="234" y="355" on="0"/>
        <pt x="181" y="306" on="0"/>
        <pt x="181" y="246" on="1"/>
        <pt x="181" y="201" on="0"/>
        <pt x="203" y="158" on="0"/>
        <pt x="252" y="143" on="0"/>
        <pt x="300" y="143" on="1"/>
        <pt x="355" y="143" on="0"/>
        <pt x="435" y="153" on="1"/>
        <pt x="439" y="150" on="1"/>
      </contour>
    </TTGlyph>
    <TTGlyph name="circumflex" xMin="-23" yMin="691" xMax="305" yMax="836">
      <contour>
        <pt x="190" y="691" on="1"/>
        <pt x="187" y="695" on="0"/>
        <pt x="149" y="753" on="0"/>
        <pt x="143" y="775" on="1"/>
        <pt x="140" y="775" on="1"/>
        <pt x="130" y="748" on="0"/>
        <pt x="93" y="691" on="1"/>
        <pt x="-23" y="691" on="1"/>
        <pt x="84" y="836" on="1"/>
        <pt x="192" y="836" on="1"/>
        <pt x="305" y="691" on="1"/>
      </contour>
    </TTGlyph>
    <TTGlyph name="colon" xMin="60" yMin="0" xMax="250" yMax="466">
      <contour>
        <pt x="250" y="418" on="0"/>
        <pt x="250" y="393" on="1"/>
        <pt x="250" y="367" on="0"/>
        <pt x="247" y="328" on="1"/>
        <pt x="199" y="319" on="0"/>
        <pt x="154" y="319" on="1"/>
        <pt x="110" y="319" on="0"/>
        <pt x="65" y="328" on="1"/>
        <pt x="60" y="359" on="0"/>
        <pt x="60" y="392" on="1"/>
        <pt x="60" y="425" on="0"/>
        <pt x="65" y="457" on="1"/>
        <pt x="104" y="466" on="0"/>
        <pt x="156" y="466" on="1"/>
        <pt x="207" y="466" on="0"/>
        <pt x="247" y="457" on="1"/>
      </contour>
      <contour>
        <pt x="250" y="99" on="0"/>
        <pt x="250" y="74" on="1"/>
        <pt x="250" y="48" on="0"/>
        <pt x="247" y="10" on="1"/>
        <pt x="201" y="0" on="0"/>
        <pt x="154" y="0" on="1"/>
        <pt x="107" y="0" on="0"/>
        <pt x="66" y="10" on="1"/>
        <pt x="60" y="39" on="0"/>
        <pt x="60" y="73" on="1"/>
        <pt x="60" y="107" on="0"/>
        <pt x="66" y="139" on="1"/>
        <pt x="105" y="147" on="0"/>
        <pt x="156" y="147" on="1"/>
        <pt x="206" y="147" on="0"/>
        <pt x="247" y="139" on="1"/>
      </contour>
    </TTGlyph>
    <TTGlyph name="comma" xMin="5" yMin="-150" xMax="194" yMax="95">
      <contour>
        <pt x="65" y="-94" on="0"/>
        <pt x="73" y="-94" on="1"/>
        <pt x="104" y="-94" on="0"/>
        <pt x="133" y="-73" on="0"/>
        <pt x="133" y="-47" on="1"/>
        <pt x="132" y="-46" on="1"/>
        <pt x="115" y="-56" on="0"/>
        <pt x="83" y="-56" on="1"/>
        <pt x="45" y="-56" on="0"/>
        <pt x="5" y="-18" on="0"/>
        <pt x="5" y="18" on="1"/>
        <pt x="5" y="57" on="0"/>
        <pt x="46" y="95" on="0"/>
        <pt x="96" y="95" on="1"/>
        <pt x="147" y="95" on="0"/>
        <pt x="194" y="37" on="0"/>
        <pt x="194" y="-21" on="1"/>
        <pt x="194" y="-92" on="0"/>
        <pt x="137" y="-150" on="0"/>
        <pt x="79" y="-150" on="1"/>
        <pt x="74" y="-150" on="0"/>
        <pt x="58" y="-148" on="1"/>
        <pt x="58" y="-94" on="1"/>
        <pt x="59" y="-93" on="1"/>
      </contour>
    </TTGlyph>
    <TTGlyph name="copyright" xMin="65" yMin="-106" xMax="1058" yMax="817">
      <contour>
        <pt x="65" y="532" on="0"/>
        <pt x="157" y="730" on="0"/>
        <pt x="370" y="817" on="0"/>
        <pt x="562" y="817" on="1"/>
        <pt x="754" y="817" on="0"/>
        <pt x="967" y="730" on="0"/>
        <pt x="1058" y="533" on="0"/>
        <pt x="1058" y="356" on="1"/>
        <pt x="1058" y="179" on="0"/>
        <pt x="967" y="-20" on="0"/>
        <pt x="754" y="-106" on="0"/>
        <pt x="562" y="-106" on="1"/>
        <pt x="370" y="-106" on="0"/>
        <pt x="157" y="-20" on="0"/>
        <pt x="65" y="179" on="0"/>
        <pt x="65" y="356" on="1"/>
      </contour>
      <contour>
        <pt x="719" y="24" on="0"/>
        <pt x="870" y="82" on="0"/>
        <pt x="923" y="222" on="0"/>
        <pt x="923" y="363" on="1"/>
        <pt x="923" y="497" on="0"/>
        <pt x="868" y="631" on="0"/>
        <pt x="717" y="687" on="0"/>
        <pt x="562" y="687" on="1"/>
        <pt x="412" y="687" on="0"/>
        <pt x="265" y="630" on="0"/>
        <pt x="210" y="493" on="0"/>
        <pt x="210" y="356" on="1"/>
        <pt x="210" y="220" on="0"/>
        <pt x="265" y="82" on="0"/>
        <pt x="413" y="24" on="0"/>
        <pt x="562" y="24" on="1"/>
      </contour>
      <contour>
        <pt x="739" y="125" on="1"/>
        <pt x="715" y="115" on="0"/>
        <pt x="620" y="105" on="0"/>
        <pt x="564" y="105" on="1"/>
        <pt x="483" y="105" on="0"/>
        <pt x="383" y="150" on="0"/>
        <pt x="333" y="257" on="0"/>
        <pt x="333" y="351" on="1"/>
        <pt x="333" y="487" on="0"/>
        <pt x="448" y="596" on="0"/>
        <pt x="563" y="596" on="1"/>
        <pt x="606" y="596" on="0"/>
        <pt x="703" y="584" on="0"/>
        <pt x="733" y="575" on="1"/>
        <pt x="734" y="443" on="1"/>
        <pt x="731" y="441" on="1"/>
        <pt x="673" y="453" on="0"/>
        <pt x="603" y="453" on="1"/>
        <pt x="538" y="453" on="0"/>
        <pt x="486" y="405" on="0"/>
        <pt x="486" y="346" on="1"/>
        <pt x="486" y="302" on="0"/>
        <pt x="508" y="259" on="0"/>
        <pt x="556" y="245" on="0"/>
        <pt x="603" y="245" on="1"/>
        <pt x="657" y="245" on="0"/>
        <pt x="735" y="255" on="1"/>
        <pt x="739" y="252" on="1"/>
      </contour>
    </TTGlyph>
    <TTGlyph name="currency" xMin="10" yMin="28" xMax="622" yMax="621">
      <contour>
        <pt x="566" y="226" on="0"/>
        <pt x="538" y="170" on="1"/>
        <pt x="622" y="28" on="1"/>
        <pt x="452" y="28" on="1"/>
        <pt x="422" y="83" on="1"/>
        <pt x="375" y="72" on="0"/>
        <pt x="316" y="72" on="1"/>
        <pt x="256" y="72" on="0"/>
        <pt x="215" y="82" on="1"/>
        <pt x="185" y="28" on="1"/>
        <pt x="10" y="28" on="1"/>
        <pt x="96" y="168" on="1"/>
        <pt x="66" y="222" on="0"/>
        <pt x="66" y="321" on="1"/>
        <pt x="66" y="421" on="0"/>
        <pt x="97" y="479" on="1"/>
        <pt x="10" y="621" on="1"/>
        <pt x="185" y="621" on="1"/>
        <pt x="217" y="563" on="1"/>
        <pt x="257" y="573" on="0"/>
        <pt x="316" y="573" on="1"/>
        <pt x="373" y="573" on="0"/>
        <pt x="420" y="562" on="1"/>
        <pt x="452" y="621" on="1"/>
        <pt x="622" y="621" on="1"/>
        <pt x="536" y="477" on="1"/>
        <pt x="566" y="421" on="0"/>
        <pt x="566" y="321" on="1"/>
      </contour>
      <contour>
        <pt x="373" y="208" on="0"/>
        <pt x="415" y="258" on="0"/>
        <pt x="415" y="323" on="1"/>
        <pt x="415" y="385" on="0"/>
        <pt x="372" y="437" on="0"/>
        <pt x="316" y="437" on="1"/>
        <pt x="261" y="437" on="0"/>
        <pt x="217" y="385" on="0"/>
        <pt x="217" y="323" on="1"/>
        <pt x="217" y="258" on="0"/>
        <pt x="260" y="208" on="0"/>
        <pt x="316" y="208" on="1"/>
      </contour>
    </TTGlyph>
    <TTGlyph name="d" xMin="25" yMin="0" xMax="516" yMax="682">
      <contour>
        <pt x="516" y="682" on="1"/>
        <pt x="516" y="9" on="1"/>
        <pt x="364" y="9" on="1"/>
        <pt x="358" y="80" on="1"/>
        <pt x="354" y="80" on="1"/>
        <pt x="336" y="38" on="0"/>
        <pt x="272" y="0" on="0"/>
        <pt x="214" y="0" on="1"/>
        <pt x="115" y="0" on="0"/>
        <pt x="25" y="118" on="0"/>
        <pt x="25" y="240" on="1"/>
        <pt x="25" y="336" on="0"/>
        <pt x="70" y="450" on="0"/>
        <pt x="162" y="501" on="0"/>
        <pt x="235" y="501" on="1"/>
        <pt x="309" y="501" on="0"/>
        <pt x="354" y="477" on="1"/>
        <pt x="356" y="478" on="1"/>
        <pt x="356" y="682" on="1"/>
      </contour>
      <contour>
        <pt x="308" y="136" on="0"/>
        <pt x="356" y="188" on="0"/>
        <pt x="356" y="244" on="1"/>
        <pt x="356" y="349" on="1"/>
        <pt x="318" y="364" on="0"/>
        <pt x="269" y="364" on="1"/>
        <pt x="236" y="364" on="0"/>
        <pt x="199" y="345" on="0"/>
        <pt x="181" y="296" on="0"/>
        <pt x="181" y="251" on="1"/>
        <pt x="181" y="189" on="0"/>
        <pt x="216" y="136" on="0"/>
        <pt x="266" y="136" on="1"/>
      </contour>
    </TTGlyph>
    <TTGlyph name="dagger" xMin="20" yMin="-177" xMax="445" yMax="682">
      <contour>
        <pt x="312" y="414" on="0"/>
        <pt x="305" y="428" on="1"/>
        <pt x="306" y="429" on="1"/>
        <pt x="315" y="424" on="0"/>
        <pt x="336" y="421" on="0"/>
        <pt x="355" y="421" on="1"/>
        <pt x="445" y="421" on="1"/>
        <pt x="445" y="551" on="1"/>
        <pt x="356" y="551" on="1"/>
        <pt x="337" y="551" on="0"/>
        <pt x="316" y="548" on="0"/>
        <pt x="307" y="543" on="1"/>
        <pt x="306" y="544" on="1"/>
        <pt x="313" y="558" on="0"/>
        <pt x="313" y="593" on="1"/>
        <pt x="313" y="682" on="1"/>
        <pt x="153" y="682" on="1"/>
        <pt x="153" y="593" on="1"/>
        <pt x="153" y="558" on="0"/>
        <pt x="160" y="544" on="1"/>
        <pt x="159" y="543" on="1"/>
        <pt x="150" y="548" on="0"/>
        <pt x="129" y="551" on="0"/>
        <pt x="110" y="551" on="1"/>
        <pt x="20" y="551" on="1"/>
        <pt x="20" y="421" on="1"/>
        <pt x="110" y="421" on="1"/>
        <pt x="129" y="421" on="0"/>
        <pt x="150" y="424" on="0"/>
        <pt x="159" y="429" on="1"/>
        <pt x="160" y="428" on="1"/>
        <pt x="153" y="414" on="0"/>
        <pt x="153" y="379" on="1"/>
        <pt x="153" y="-177" on="1"/>
        <pt x="312" y="-177" on="1"/>
        <pt x="312" y="379" on="1"/>
      </contour>
    </TTGlyph>
    <TTGlyph name="daggerdbl" xMin="20" yMin="-177" xMax="445" yMax="682">
      <contour>
        <pt x="336" y="421" on="0"/>
        <pt x="315" y="424" on="0"/>
        <pt x="306" y="429" on="1"/>
        <pt x="305" y="428" on="1"/>
        <pt x="312" y="414" on="0"/>
        <pt x="312" y="379" on="1"/>
        <pt x="312" y="126" on="1"/>
        <pt x="312" y="91" on="0"/>
        <pt x="305" y="77" on="1"/>
        <pt x="306" y="76" on="1"/>
        <pt x="315" y="81" on="0"/>
        <pt x="336" y="84" on="0"/>
        <pt x="355" y="84" on="1"/>
        <pt x="445" y="84" on="1"/>
        <pt x="445" y="-46" on="1"/>
        <pt x="356" y="-46" on="1"/>
        <pt x="337" y="-46" on="0"/>
        <pt x="316" y="-43" on="0"/>
        <pt x="307" y="-38" on="1"/>
        <pt x="306" y="-39" on="1"/>
        <pt x="313" y="-53" on="0"/>
        <pt x="313" y="-88" on="1"/>
        <pt x="313" y="-177" on="1"/>
        <pt x="153" y="-177" on="1"/>
        <pt x="153" y="-88" on="1"/>
        <pt x="153" y="-53" on="0"/>
        <pt x="160" y="-39" on="1"/>
        <pt x="159" y="-38" on="1"/>
        <pt x="150" y="-43" on="0"/>
        <pt x="129" y="-46" on="0"/>
        <pt x="110" y="-46" on="1"/>
        <pt x="20" y="-46" on="1"/>
        <pt x="20" y="84" on="1"/>
        <pt x="110" y="84" on="1"/>
        <pt x="129" y="84" on="0"/>
        <pt x="150" y="81" on="0"/>
        <pt x="159" y="76" on="1"/>
        <pt x="160" y="77" on="1"/>
        <pt x="153" y="91" on="0"/>
        <pt x="153" y="126" on="1"/>
        <pt x="153" y="379" on="1"/>
        <pt x="153" y="414" on="0"/>
        <pt x="160" y="428" on="1"/>
        <pt x="159" y="429" on="1"/>
        <pt x="150" y="424" on="0"/>
        <pt x="129" y="421" on="0"/>
        <pt x="110" y="421" on="1"/>
        <pt x="20" y="421" on="1"/>
        <pt x="20" y="551" on="1"/>
        <pt x="110" y="551" on="1"/>
        <pt x="129" y="551" on="0"/>
        <pt x="150" y="548" on="0"/>
        <pt x="159" y="543" on="1"/>
        <pt x="160" y="544" on="1"/>
        <pt x="153" y="558" on="0"/>
        <pt x="153" y="593" on="1"/>
        <pt x="153" y="682" on="1"/>
        <pt x="313" y="682" on="1"/>
        <pt x="313" y="593" on="1"/>
        <pt x="313" y="558" on="0"/>
        <pt x="306" y="544" on="1"/>
        <pt x="307" y="543" on="1"/>
        <pt x="316" y="548" on="0"/>
        <pt x="337" y="551" on="0"/>
        <pt x="356" y="551" on="1"/>
        <pt x="445" y="551" on="1"/>
        <pt x="445" y="421" on="1"/>
        <pt x="355" y="421" on="1"/>
      </contour>
    </TTGlyph>
    <TTGlyph name="dcaron" xMin="25" yMin="0" xMax="599" yMax="876">
      <component glyphName="d" x="0" y="0" flags="0x0"/>
      <component glyphName="caron" x="261" y="40" flags="0x4"/>
    </TTGlyph>
    <TTGlyph name="dcroat" xMin="25" yMin="0" xMax="590" yMax="682">
      <contour>
        <pt x="590" y="533" on="1"/>
        <pt x="516" y="533" on="1"/>
        <pt x="516" y="9" on="1"/>
        <pt x="364" y="9" on="1"/>
        <pt x="358" y="80" on="1"/>
        <pt x="354" y="80" on="1"/>
        <pt x="336" y="38" on="0"/>
        <pt x="272" y="0" on="0"/>
        <pt x="214" y="0" on="1"/>
        <pt x="115" y="0" on="0"/>
        <pt x="25" y="118" on="0"/>
        <pt x="25" y="240" on="1"/>
        <pt x="25" y="336" on="0"/>
        <pt x="70" y="450" on="0"/>
        <pt x="162" y="501" on="0"/>
        <pt x="235" y="501" on="1"/>
        <pt x="309" y="501" on="0"/>
        <pt x="354" y="477" on="1"/>
        <pt x="356" y="478" on="1"/>
        <pt x="356" y="533" on="1"/>
        <pt x="286" y="533" on="1"/>
        <pt x="286" y="613" on="1"/>
        <pt x="356" y="613" on="1"/>
        <pt x="356" y="682" on="1"/>
        <pt x="516" y="682" on="1"/>
        <pt x="516" y="613" on="1"/>
        <pt x="590" y="613" on="1"/>
      </contour>
      <contour>
        <pt x="308" y="136" on="0"/>
        <pt x="356" y="188" on="0"/>
        <pt x="356" y="244" on="1"/>
        <pt x="356" y="349" on="1"/>
        <pt x="318" y="364" on="0"/>
        <pt x="269" y="364" on="1"/>
        <pt x="236" y="364" on="0"/>
        <pt x="199" y="345" on="0"/>
        <pt x="181" y="296" on="0"/>
        <pt x="181" y="251" on="1"/>
        <pt x="181" y="189" on="0"/>
        <pt x="216" y="136" on="0"/>
        <pt x="266" y="136" on="1"/>
      </contour>
    </TTGlyph>
    <TTGlyph name="degree" xMin="20" yMin="480" xMax="273" yMax="727">
      <contour>
        <pt x="273" y="540" on="0"/>
        <pt x="213" y="480" on="0"/>
        <pt x="146" y="480" on="1"/>
        <pt x="80" y="480" on="0"/>
        <pt x="20" y="540" on="0"/>
        <pt x="20" y="603" on="1"/>
        <pt x="20" y="667" on="0"/>
        <pt x="80" y="727" on="0"/>
        <pt x="146" y="727" on="1"/>
        <pt x="213" y="727" on="0"/>
        <pt x="273" y="667" on="0"/>
        <pt x="273" y="603" on="1"/>
      </contour>
      <contour>
        <pt x="177" y="549" on="0"/>
        <pt x="202" y="575" on="0"/>
        <pt x="202" y="603" on="1"/>
        <pt x="202" y="631" on="0"/>
        <pt x="177" y="657" on="0"/>
        <pt x="146" y="657" on="1"/>
        <pt x="115" y="657" on="0"/>
        <pt x="91" y="632" on="0"/>
        <pt x="91" y="603" on="1"/>
        <pt x="91" y="574" on="0"/>
        <pt x="115" y="549" on="0"/>
        <pt x="146" y="549" on="1"/>
      </contour>
    </TTGlyph>
    <TTGlyph name="dieresis" xMin="10" yMin="682" xMax="329" yMax="787">
      <contour>
        <pt x="144" y="744" on="0"/>
        <pt x="144" y="735" on="1"/>
        <pt x="144" y="725" on="0"/>
        <pt x="142" y="689" on="1"/>
        <pt x="110" y="682" on="0"/>
        <pt x="76" y="682" on="1"/>
        <pt x="44" y="682" on="0"/>
        <pt x="13" y="689" on="1"/>
        <pt x="10" y="715" on="0"/>
        <pt x="10" y="735" on="1"/>
        <pt x="10" y="753" on="0"/>
        <pt x="13" y="780" on="1"/>
        <pt x="44" y="787" on="0"/>
        <pt x="78" y="787" on="1"/>
        <pt x="111" y="787" on="0"/>
        <pt x="142" y="780" on="1"/>
      </contour>
      <contour>
        <pt x="329" y="744" on="0"/>
        <pt x="329" y="735" on="1"/>
        <pt x="329" y="725" on="0"/>
        <pt x="327" y="689" on="1"/>
        <pt x="295" y="682" on="0"/>
        <pt x="261" y="682" on="1"/>
        <pt x="229" y="682" on="0"/>
        <pt x="198" y="689" on="1"/>
        <pt x="195" y="715" on="0"/>
        <pt x="195" y="735" on="1"/>
        <pt x="195" y="753" on="0"/>
        <pt x="198" y="780" on="1"/>
        <pt x="229" y="787" on="0"/>
        <pt x="263" y="787" on="1"/>
        <pt x="296" y="787" on="0"/>
        <pt x="327" y="780" on="1"/>
      </contour>
    </TTGlyph>
    <TTGlyph name="divide" xMin="40" yMin="49" xMax="548" yMax="609">
      <contour>
        <pt x="384" y="564" on="0"/>
        <pt x="384" y="539" on="1"/>
        <pt x="384" y="514" on="0"/>
        <pt x="381" y="478" on="1"/>
        <pt x="325" y="469" on="0"/>
        <pt x="293" y="469" on="1"/>
        <pt x="259" y="469" on="0"/>
        <pt x="209" y="478" on="1"/>
        <pt x="204" y="507" on="0"/>
        <pt x="204" y="539" on="1"/>
        <pt x="204" y="570" on="0"/>
        <pt x="209" y="601" on="1"/>
        <pt x="246" y="609" on="0"/>
        <pt x="295" y="609" on="1"/>
        <pt x="341" y="609" on="0"/>
        <pt x="381" y="601" on="1"/>
      </contour>
      <contour>
        <pt x="40" y="394" on="1"/>
        <pt x="548" y="394" on="1"/>
        <pt x="548" y="270" on="1"/>
        <pt x="40" y="270" on="1"/>
      </contour>
      <contour>
        <pt x="389" y="135" on="0"/>
        <pt x="389" y="122" on="1"/>
        <pt x="389" y="110" on="0"/>
        <pt x="385" y="58" on="1"/>
        <pt x="327" y="49" on="0"/>
        <pt x="293" y="49" on="1"/>
        <pt x="257" y="49" on="0"/>
        <pt x="205" y="58" on="1"/>
        <pt x="199" y="94" on="0"/>
        <pt x="199" y="122" on="1"/>
        <pt x="199" y="148" on="0"/>
        <pt x="205" y="187" on="1"/>
        <pt x="244" y="195" on="0"/>
        <pt x="295" y="195" on="1"/>
        <pt x="344" y="195" on="0"/>
        <pt x="385" y="187" on="1"/>
      </contour>
    </TTGlyph>
    <TTGlyph name="dollar" xMin="40" yMin="-110" xMax="567" yMax="766">
      <contour>
        <pt x="567" y="115" on="0"/>
        <pt x="476" y="20" on="0"/>
        <pt x="373" y="6" on="1"/>
        <pt x="373" y="-110" on="1"/>
        <pt x="213" y="-110" on="1"/>
        <pt x="213" y="2" on="1"/>
        <pt x="125" y="6" on="0"/>
        <pt x="40" y="28" on="1"/>
        <pt x="40" y="169" on="1"/>
        <pt x="44" y="172" on="1"/>
        <pt x="138" y="140" on="0"/>
        <pt x="245" y="140" on="1"/>
        <pt x="315" y="140" on="0"/>
        <pt x="384" y="152" on="0"/>
        <pt x="407" y="179" on="0"/>
        <pt x="407" y="203" on="1"/>
        <pt x="407" y="223" on="0"/>
        <pt x="391" y="244" on="0"/>
        <pt x="345" y="257" on="0"/>
        <pt x="300" y="261" on="1"/>
        <pt x="234" y="267" on="1"/>
        <pt x="126" y="277" on="0"/>
        <pt x="40" y="370" on="0"/>
        <pt x="40" y="460" on="1"/>
        <pt x="40" y="542" on="0"/>
        <pt x="120" y="630" on="0"/>
        <pt x="213" y="644" on="1"/>
        <pt x="213" y="766" on="1"/>
        <pt x="373" y="766" on="1"/>
        <pt x="373" y="650" on="1"/>
        <pt x="475" y="644" on="0"/>
        <pt x="543" y="616" on="1"/>
        <pt x="540" y="480" on="1"/>
        <pt x="537" y="476" on="1"/>
        <pt x="438" y="511" on="0"/>
        <pt x="330" y="511" on="1"/>
        <pt x="278" y="511" on="0"/>
        <pt x="222" y="500" on="0"/>
        <pt x="200" y="476" on="0"/>
        <pt x="200" y="454" on="1"/>
        <pt x="200" y="431" on="0"/>
        <pt x="215" y="410" on="0"/>
        <pt x="257" y="399" on="0"/>
        <pt x="305" y="394" on="1"/>
        <pt x="368" y="387" on="1"/>
        <pt x="447" y="378" on="0"/>
        <pt x="533" y="333" on="0"/>
        <pt x="567" y="258" on="0"/>
        <pt x="567" y="200" on="1"/>
      </contour>
    </TTGlyph>
    <TTGlyph name="dotaccent" xMin="3" yMin="641" xMax="151" yMax="756">
      <contour>
        <pt x="151" y="709" on="0"/>
        <pt x="151" y="699" on="1"/>
        <pt x="151" y="688" on="0"/>
        <pt x="149" y="648" on="1"/>
        <pt x="113" y="641" on="0"/>
        <pt x="76" y="641" on="1"/>
        <pt x="41" y="641" on="0"/>
        <pt x="6" y="648" on="1"/>
        <pt x="3" y="677" on="0"/>
        <pt x="3" y="699" on="1"/>
        <pt x="3" y="719" on="0"/>
        <pt x="6" y="749" on="1"/>
        <pt x="41" y="756" on="0"/>
        <pt x="78" y="756" on="1"/>
        <pt x="114" y="756" on="0"/>
        <pt x="149" y="749" on="1"/>
      </contour>
    </TTGlyph>
    <TTGlyph name="dotlessi" xMin="51" yMin="9" xMax="211" yMax="496">
      <contour>
        <pt x="51" y="9" on="1"/>
        <pt x="51" y="496" on="1"/>
        <pt x="211" y="496" on="1"/>
        <pt x="211" y="9" on="1"/>
      </contour>
    </TTGlyph>
    <TTGlyph name="dvBH_LA" xMin="-70" yMin="9" xMax="1226" yMax="607">
      <contour>
        <pt x="1226" y="500" on="1"/>
        <pt x="1126" y="500" on="1"/>
        <pt x="1126" y="9" on="1"/>
        <pt x="977" y="9" on="1"/>
        <pt x="977" y="223" on="1"/>
        <pt x="974" y="265" on="0"/>
        <pt x="944" y="294" on="0"/>
        <pt x="912" y="294" on="1"/>
        <pt x="885" y="294" on="0"/>
        <pt x="857" y="278" on="0"/>
        <pt x="844" y="235" on="0"/>
        <pt x="844" y="193" on="1"/>
        <pt x="844" y="126" on="1"/>
        <pt x="712" y="126" on="1"/>
        <pt x="712" y="193" on="1"/>
        <pt x="712" y="252" on="0"/>
        <pt x="681" y="294" on="0"/>
        <pt x="644" y="294" on="1"/>
        <pt x="605" y="294" on="0"/>
        <pt x="573" y="253" on="0"/>
        <pt x="573" y="203" on="1"/>
        <pt x="573" y="153" on="0"/>
        <pt x="599" y="62" on="0"/>
        <pt x="628" y="14" on="1"/>
        <pt x="628" y="9" on="1"/>
        <pt x="486" y="9" on="1"/>
        <pt x="443" y="87" on="0"/>
        <pt x="431" y="168" on="1"/>
        <pt x="251" y="168" on="1"/>
        <pt x="249" y="137" on="0"/>
        <pt x="229" y="105" on="0"/>
        <pt x="185" y="94" on="0"/>
        <pt x="143" y="94" on="1"/>
        <pt x="93" y="94" on="0"/>
        <pt x="43" y="110" on="0"/>
        <pt x="23" y="149" on="0"/>
        <pt x="23" y="187" on="1"/>
        <pt x="23" y="242" on="0"/>
        <pt x="58" y="280" on="0"/>
        <pt x="104" y="280" on="1"/>
        <pt x="104" y="433" on="1"/>
        <pt x="104" y="471" on="0"/>
        <pt x="84" y="500" on="0"/>
        <pt x="53" y="500" on="1"/>
        <pt x="-70" y="500" on="1"/>
        <pt x="-70" y="607" on="1"/>
        <pt x="90" y="607" on="1"/>
        <pt x="153" y="607" on="0"/>
        <pt x="223" y="571" on="0"/>
        <pt x="252" y="492" on="0"/>
        <pt x="252" y="422" on="1"/>
        <pt x="252" y="280" on="1"/>
        <pt x="428" y="280" on="1"/>
        <pt x="438" y="352" on="0"/>
        <pt x="529" y="420" on="0"/>
        <pt x="610" y="420" on="1"/>
        <pt x="756" y="420" on="0"/>
        <pt x="771" y="326" on="1"/>
        <pt x="774" y="326" on="1"/>
        <pt x="782" y="371" on="0"/>
        <pt x="842" y="419" on="0"/>
        <pt x="904" y="419" on="1"/>
        <pt x="952" y="419" on="0"/>
        <pt x="975" y="393" on="1"/>
        <pt x="977" y="395" on="1"/>
        <pt x="977" y="500" on="1"/>
        <pt x="352" y="500" on="1"/>
        <pt x="352" y="607" on="1"/>
        <pt x="1226" y="607" on="1"/>
      </contour>
    </TTGlyph>
    <TTGlyph name="dvBH_NA" xMin="-70" yMin="9" xMax="1018" yMax="607">
      <contour>
        <pt x="1018" y="500" on="1"/>
        <pt x="918" y="500" on="1"/>
        <pt x="918" y="9" on="1"/>
        <pt x="769" y="9" on="1"/>
        <pt x="769" y="229" on="1"/>
        <pt x="617" y="228" on="1"/>
        <pt x="616" y="185" on="0"/>
        <pt x="598" y="146" on="0"/>
        <pt x="557" y="134" on="0"/>
        <pt x="514" y="134" on="1"/>
        <pt x="470" y="134" on="0"/>
        <pt x="428" y="152" on="0"/>
        <pt x="420" y="178" on="1"/>
        <pt x="252" y="178" on="1"/>
        <pt x="250" y="142" on="0"/>
        <pt x="232" y="107" on="0"/>
        <pt x="188" y="94" on="0"/>
        <pt x="143" y="94" on="1"/>
        <pt x="93" y="94" on="0"/>
        <pt x="43" y="110" on="0"/>
        <pt x="23" y="149" on="0"/>
        <pt x="23" y="187" on="1"/>
        <pt x="23" y="242" on="0"/>
        <pt x="58" y="280" on="0"/>
        <pt x="104" y="280" on="1"/>
        <pt x="104" y="433" on="1"/>
        <pt x="104" y="471" on="0"/>
        <pt x="84" y="500" on="0"/>
        <pt x="53" y="500" on="1"/>
        <pt x="-70" y="500" on="1"/>
        <pt x="-70" y="607" on="1"/>
        <pt x="90" y="607" on="1"/>
        <pt x="153" y="607" on="0"/>
        <pt x="223" y="571" on="0"/>
        <pt x="252" y="492" on="0"/>
        <pt x="252" y="422" on="1"/>
        <pt x="252" y="290" on="1"/>
        <pt x="418" y="290" on="1"/>
        <pt x="425" y="321" on="0"/>
        <pt x="467" y="340" on="0"/>
        <pt x="517" y="340" on="1"/>
        <pt x="769" y="341" on="1"/>
        <pt x="769" y="500" on="1"/>
        <pt x="352" y="500" on="1"/>
        <pt x="352" y="607" on="1"/>
        <pt x="1018" y="607" on="1"/>
      </contour>
    </TTGlyph>
    <TTGlyph name="dvBH_RA" xMin="-70" yMin="-3" xMax="676" yMax="607">
      <contour>
        <pt x="676" y="500" on="1"/>
        <pt x="576" y="500" on="1"/>
        <pt x="576" y="9" on="1"/>
        <pt x="437" y="9" on="1"/>
        <pt x="437" y="124" on="1"/>
        <pt x="435" y="124" on="1"/>
        <pt x="364" y="-3" on="1"/>
        <pt x="198" y="-3" on="1"/>
        <pt x="198" y="1" on="1"/>
        <pt x="226" y="46" on="0"/>
        <pt x="327" y="161" on="0"/>
        <pt x="375" y="206" on="1"/>
        <pt x="375" y="208" on="1"/>
        <pt x="251" y="208" on="1"/>
        <pt x="249" y="177" on="0"/>
        <pt x="229" y="145" on="0"/>
        <pt x="185" y="134" on="0"/>
        <pt x="142" y="134" on="1"/>
        <pt x="92" y="134" on="0"/>
        <pt x="42" y="150" on="0"/>
        <pt x="23" y="189" on="0"/>
        <pt x="23" y="227" on="1"/>
        <pt x="23" y="282" on="0"/>
        <pt x="58" y="320" on="0"/>
        <pt x="104" y="320" on="1"/>
        <pt x="104" y="433" on="1"/>
        <pt x="104" y="471" on="0"/>
        <pt x="84" y="500" on="0"/>
        <pt x="53" y="500" on="1"/>
        <pt x="-70" y="500" on="1"/>
        <pt x="-70" y="607" on="1"/>
        <pt x="90" y="607" on="1"/>
        <pt x="153" y="607" on="0"/>
        <pt x="223" y="571" on="0"/>
        <pt x="252" y="492" on="0"/>
        <pt x="252" y="422" on="1"/>
        <pt x="252" y="320" on="1"/>
        <pt x="427" y="320" on="1"/>
        <pt x="427" y="607" on="1"/>
        <pt x="676" y="607" on="1"/>
      </contour>
    </TTGlyph>
    <TTGlyph name="dvBH_R_YA" xMin="-70" yMin="-3" xMax="1130" yMax="607">
      <contour>
        <pt x="1130" y="500" on="1"/>
        <pt x="1030" y="500" on="1"/>
        <pt x="1030" y="9" on="1"/>
        <pt x="882" y="9" on="1"/>
        <pt x="882" y="98" on="1"/>
        <pt x="878" y="100" on="1"/>
        <pt x="808" y="76" on="0"/>
        <pt x="712" y="76" on="1"/>
        <pt x="546" y="76" on="0"/>
        <pt x="480" y="157" on="1"/>
        <pt x="374" y="-3" on="1"/>
        <pt x="188" y="-3" on="1"/>
        <pt x="188" y="1" on="1"/>
        <pt x="226" y="58" on="0"/>
        <pt x="346" y="194" on="0"/>
        <pt x="406" y="246" on="1"/>
        <pt x="251" y="246" on="1"/>
        <pt x="249" y="215" on="0"/>
        <pt x="229" y="183" on="0"/>
        <pt x="185" y="172" on="0"/>
        <pt x="142" y="172" on="1"/>
        <pt x="92" y="172" on="0"/>
        <pt x="42" y="188" on="0"/>
        <pt x="23" y="227" on="0"/>
        <pt x="23" y="265" on="1"/>
        <pt x="23" y="320" on="0"/>
        <pt x="58" y="358" on="0"/>
        <pt x="104" y="358" on="1"/>
        <pt x="104" y="433" on="1"/>
        <pt x="104" y="471" on="0"/>
        <pt x="84" y="500" on="0"/>
        <pt x="53" y="500" on="1"/>
        <pt x="-70" y="500" on="1"/>
        <pt x="-70" y="607" on="1"/>
        <pt x="90" y="607" on="1"/>
        <pt x="153" y="607" on="0"/>
        <pt x="223" y="571" on="0"/>
        <pt x="252" y="492" on="0"/>
        <pt x="252" y="422" on="1"/>
        <pt x="252" y="358" on="1"/>
        <pt x="520" y="358" on="1"/>
        <pt x="550" y="360" on="0"/>
        <pt x="580" y="378" on="0"/>
        <pt x="591" y="416" on="0"/>
        <pt x="591" y="454" on="1"/>
        <pt x="591" y="500" on="1"/>
        <pt x="352" y="500" on="1"/>
        <pt x="352" y="607" on="1"/>
        <pt x="1130" y="607" on="1"/>
      </contour>
      <contour>
        <pt x="882" y="500" on="1"/>
        <pt x="733" y="500" on="1"/>
        <pt x="733" y="412" on="1"/>
        <pt x="733" y="335" on="0"/>
        <pt x="659" y="265" on="0"/>
        <pt x="569" y="260" on="1"/>
        <pt x="570" y="230" on="0"/>
        <pt x="645" y="200" on="0"/>
        <pt x="726" y="200" on="1"/>
        <pt x="822" y="200" on="0"/>
        <pt x="882" y="228" on="1"/>
      </contour>
    </TTGlyph>
    <TTGlyph name="dvBH_VA" xMin="-70" yMin="9" xMax="1043" yMax="607">
      <contour>
        <pt x="1043" y="500" on="1"/>
        <pt x="943" y="500" on="1"/>
        <pt x="943" y="9" on="1"/>
        <pt x="795" y="9" on="1"/>
        <pt x="795" y="84" on="1"/>
        <pt x="792" y="85" on="1"/>
        <pt x="765" y="72" on="0"/>
        <pt x="681" y="56" on="0"/>
        <pt x="639" y="56" on="1"/>
        <pt x="545" y="56" on="0"/>
        <pt x="444" y="109" on="0"/>
        <pt x="427" y="168" on="1"/>
        <pt x="251" y="168" on="1"/>
        <pt x="249" y="137" on="0"/>
        <pt x="229" y="105" on="0"/>
        <pt x="185" y="94" on="0"/>
        <pt x="143" y="94" on="1"/>
        <pt x="93" y="94" on="0"/>
        <pt x="43" y="110" on="0"/>
        <pt x="23" y="149" on="0"/>
        <pt x="23" y="187" on="1"/>
        <pt x="23" y="242" on="0"/>
        <pt x="58" y="280" on="0"/>
        <pt x="104" y="280" on="1"/>
        <pt x="104" y="433" on="1"/>
        <pt x="104" y="471" on="0"/>
        <pt x="84" y="500" on="0"/>
        <pt x="53" y="500" on="1"/>
        <pt x="-70" y="500" on="1"/>
        <pt x="-70" y="607" on="1"/>
        <pt x="90" y="607" on="1"/>
        <pt x="153" y="607" on="0"/>
        <pt x="223" y="571" on="0"/>
        <pt x="252" y="492" on="0"/>
        <pt x="252" y="422" on="1"/>
        <pt x="252" y="280" on="1"/>
        <pt x="418" y="280" on="1"/>
        <pt x="424" y="364" on="0"/>
        <pt x="515" y="439" on="0"/>
        <pt x="605" y="439" on="1"/>
        <pt x="675" y="439" on="0"/>
        <pt x="737" y="423" on="1"/>
        <pt x="737" y="308" on="1"/>
        <pt x="733" y="307" on="1"/>
        <pt x="696" y="315" on="0"/>
        <pt x="650" y="315" on="1"/>
        <pt x="602" y="315" on="0"/>
        <pt x="567" y="288" on="0"/>
        <pt x="567" y="246" on="1"/>
        <pt x="567" y="204" on="0"/>
        <pt x="615" y="176" on="0"/>
        <pt x="678" y="176" on="1"/>
        <pt x="749" y="176" on="0"/>
        <pt x="795" y="199" on="1"/>
        <pt x="795" y="500" on="1"/>
        <pt x="352" y="500" on="1"/>
        <pt x="352" y="607" on="1"/>
        <pt x="1043" y="607" on="1"/>
      </contour>
    </TTGlyph>
    <TTGlyph name="dvBH_YA" xMin="-70" yMin="9" xMax="1110" yMax="607">
      <contour>
        <pt x="1110" y="500" on="1"/>
        <pt x="1010" y="500" on="1"/>
        <pt x="1010" y="9" on="1"/>
        <pt x="862" y="9" on="1"/>
        <pt x="862" y="98" on="1"/>
        <pt x="858" y="100" on="1"/>
        <pt x="788" y="76" on="0"/>
        <pt x="692" y="76" on="1"/>
        <pt x="523" y="76" on="0"/>
        <pt x="455" y="168" on="1"/>
        <pt x="251" y="168" on="1"/>
        <pt x="249" y="137" on="0"/>
        <pt x="229" y="105" on="0"/>
        <pt x="185" y="94" on="0"/>
        <pt x="143" y="94" on="1"/>
        <pt x="93" y="94" on="0"/>
        <pt x="43" y="110" on="0"/>
        <pt x="23" y="149" on="0"/>
        <pt x="23" y="187" on="1"/>
        <pt x="23" y="242" on="0"/>
        <pt x="58" y="280" on="0"/>
        <pt x="104" y="280" on="1"/>
        <pt x="104" y="433" on="1"/>
        <pt x="104" y="471" on="0"/>
        <pt x="84" y="500" on="0"/>
        <pt x="53" y="500" on="1"/>
        <pt x="-70" y="500" on="1"/>
        <pt x="-70" y="607" on="1"/>
        <pt x="90" y="607" on="1"/>
        <pt x="153" y="607" on="0"/>
        <pt x="223" y="571" on="0"/>
        <pt x="252" y="492" on="0"/>
        <pt x="252" y="422" on="1"/>
        <pt x="252" y="280" on="1"/>
        <pt x="416" y="280" on="1"/>
        <pt x="415" y="290" on="0"/>
        <pt x="415" y="312" on="1"/>
        <pt x="415" y="367" on="1"/>
        <pt x="463" y="367" on="1"/>
        <pt x="512" y="367" on="0"/>
        <pt x="556" y="380" on="0"/>
        <pt x="571" y="420" on="0"/>
        <pt x="571" y="464" on="1"/>
        <pt x="571" y="500" on="1"/>
        <pt x="352" y="500" on="1"/>
        <pt x="352" y="607" on="1"/>
        <pt x="1110" y="607" on="1"/>
      </contour>
      <contour>
        <pt x="862" y="500" on="1"/>
        <pt x="713" y="500" on="1"/>
        <pt x="713" y="422" on="1"/>
        <pt x="713" y="345" on="0"/>
        <pt x="639" y="275" on="0"/>
        <pt x="549" y="270" on="1"/>
        <pt x="551" y="200" on="0"/>
        <pt x="706" y="200" on="1"/>
        <pt x="802" y="200" on="0"/>
        <pt x="862" y="228" on="1"/>
      </contour>
    </TTGlyph>
    <TTGlyph name="dvB_BA" xMin="-50" yMin="9" xMax="1097" yMax="607">
      <contour>
        <pt x="1097" y="500" on="1"/>
        <pt x="998" y="500" on="1"/>
        <pt x="998" y="9" on="1"/>
        <pt x="850" y="9" on="1"/>
        <pt x="850" y="90" on="1"/>
        <pt x="848" y="91" on="1"/>
        <pt x="792" y="64" on="0"/>
        <pt x="685" y="64" on="1"/>
        <pt x="565" y="64" on="0"/>
        <pt x="510" y="103" on="1"/>
        <pt x="404" y="64" on="0"/>
        <pt x="264" y="64" on="1"/>
        <pt x="180" y="64" on="0"/>
        <pt x="78" y="100" on="0"/>
        <pt x="30" y="182" on="0"/>
        <pt x="30" y="252" on="1"/>
        <pt x="30" y="353" on="0"/>
        <pt x="125" y="439" on="0"/>
        <pt x="221" y="439" on="1"/>
        <pt x="305" y="439" on="0"/>
        <pt x="371" y="422" on="1"/>
        <pt x="371" y="319" on="1"/>
        <pt x="367" y="318" on="1"/>
        <pt x="344" y="324" on="0"/>
        <pt x="284" y="332" on="0"/>
        <pt x="258" y="332" on="1"/>
        <pt x="240" y="332" on="0"/>
        <pt x="232" y="331" on="1"/>
        <pt x="232" y="330" on="1"/>
        <pt x="432" y="192" on="1"/>
        <pt x="455" y="198" on="1"/>
        <pt x="451" y="219" on="0"/>
        <pt x="451" y="252" on="1"/>
        <pt x="451" y="354" on="0"/>
        <pt x="542" y="439" on="0"/>
        <pt x="637" y="439" on="1"/>
        <pt x="675" y="439" on="0"/>
        <pt x="766" y="430" on="0"/>
        <pt x="792" y="422" on="1"/>
        <pt x="792" y="319" on="1"/>
        <pt x="788" y="318" on="1"/>
        <pt x="770" y="323" on="0"/>
        <pt x="704" y="332" on="0"/>
        <pt x="679" y="332" on="1"/>
        <pt x="661" y="332" on="0"/>
        <pt x="653" y="331" on="1"/>
        <pt x="653" y="330" on="1"/>
        <pt x="848" y="195" on="1"/>
        <pt x="850" y="195" on="1"/>
        <pt x="850" y="500" on="1"/>
        <pt x="-50" y="500" on="1"/>
        <pt x="-50" y="607" on="1"/>
        <pt x="1097" y="607" on="1"/>
      </contour>
      <contour>
        <pt x="173" y="307" on="1"/>
        <pt x="175" y="310" on="1"/>
      </contour>
      <contour>
        <pt x="594" y="307" on="1"/>
        <pt x="596" y="310" on="1"/>
      </contour>
      <contour>
        <pt x="162" y="207" on="0"/>
        <pt x="218" y="173" on="0"/>
        <pt x="290" y="173" on="1"/>
        <pt x="316" y="173" on="0"/>
        <pt x="344" y="176" on="1"/>
        <pt x="344" y="177" on="1"/>
        <pt x="170" y="297" on="1"/>
        <pt x="168" y="297" on="1"/>
        <pt x="162" y="281" on="0"/>
        <pt x="162" y="254" on="1"/>
      </contour>
      <contour>
        <pt x="583" y="207" on="0"/>
        <pt x="639" y="173" on="0"/>
        <pt x="711" y="173" on="1"/>
        <pt x="738" y="173" on="0"/>
        <pt x="765" y="176" on="1"/>
        <pt x="765" y="177" on="1"/>
        <pt x="591" y="297" on="1"/>
        <pt x="589" y="297" on="1"/>
        <pt x="583" y="281" on="0"/>
        <pt x="583" y="254" on="1"/>
      </contour>
    </TTGlyph>
    <TTGlyph name="dvB_BHA" xMin="-50" yMin="9" xMax="1077" yMax="607">
      <contour>
        <pt x="1077" y="500" on="1"/>
        <pt x="977" y="500" on="1"/>
        <pt x="977" y="9" on="1"/>
        <pt x="828" y="9" on="1"/>
        <pt x="828" y="168" on="1"/>
        <pt x="672" y="168" on="1"/>
        <pt x="670" y="137" on="0"/>
        <pt x="650" y="105" on="0"/>
        <pt x="606" y="94" on="0"/>
        <pt x="563" y="94" on="1"/>
        <pt x="560" y="94" on="1"/>
        <pt x="498" y="64" on="0"/>
        <pt x="355" y="34" on="0"/>
        <pt x="265" y="34" on="1"/>
        <pt x="181" y="34" on="0"/>
        <pt x="79" y="70" on="0"/>
        <pt x="31" y="152" on="0"/>
        <pt x="31" y="222" on="1"/>
        <pt x="31" y="324" on="0"/>
        <pt x="122" y="409" on="0"/>
        <pt x="217" y="409" on="1"/>
        <pt x="255" y="409" on="0"/>
        <pt x="346" y="400" on="0"/>
        <pt x="372" y="392" on="1"/>
        <pt x="372" y="289" on="1"/>
        <pt x="368" y="288" on="1"/>
        <pt x="350" y="293" on="0"/>
        <pt x="284" y="302" on="0"/>
        <pt x="259" y="302" on="1"/>
        <pt x="241" y="302" on="0"/>
        <pt x="233" y="301" on="1"/>
        <pt x="233" y="300" on="1"/>
        <pt x="433" y="162" on="1"/>
        <pt x="445" y="165" on="1"/>
        <pt x="444" y="172" on="0"/>
        <pt x="444" y="187" on="1"/>
        <pt x="444" y="242" on="0"/>
        <pt x="479" y="280" on="0"/>
        <pt x="525" y="280" on="1"/>
        <pt x="525" y="433" on="1"/>
        <pt x="525" y="471" on="0"/>
        <pt x="505" y="500" on="0"/>
        <pt x="474" y="500" on="1"/>
        <pt x="-50" y="500" on="1"/>
        <pt x="-50" y="607" on="1"/>
        <pt x="511" y="607" on="1"/>
        <pt x="574" y="607" on="0"/>
        <pt x="644" y="571" on="0"/>
        <pt x="673" y="492" on="0"/>
        <pt x="673" y="422" on="1"/>
        <pt x="673" y="280" on="1"/>
        <pt x="828" y="280" on="1"/>
        <pt x="828" y="607" on="1"/>
        <pt x="1077" y="607" on="1"/>
      </contour>
      <contour>
        <pt x="174" y="277" on="1"/>
        <pt x="176" y="280" on="1"/>
      </contour>
      <contour>
        <pt x="163" y="177" on="0"/>
        <pt x="219" y="143" on="0"/>
        <pt x="291" y="143" on="1"/>
        <pt x="316" y="143" on="0"/>
        <pt x="345" y="146" on="1"/>
        <pt x="345" y="147" on="1"/>
        <pt x="171" y="267" on="1"/>
        <pt x="169" y="267" on="1"/>
        <pt x="163" y="251" on="0"/>
        <pt x="163" y="224" on="1"/>
      </contour>
    </TTGlyph>
    <TTGlyph name="dvB_BH_RA" xMin="-50" yMin="-3" xMax="1097" yMax="607">
      <contour>
        <pt x="1097" y="500" on="1"/>
        <pt x="997" y="500" on="1"/>
        <pt x="997" y="9" on="1"/>
        <pt x="858" y="9" on="1"/>
        <pt x="858" y="124" on="1"/>
        <pt x="856" y="124" on="1"/>
        <pt x="785" y="-3" on="1"/>
        <pt x="619" y="-3" on="1"/>
        <pt x="619" y="1" on="1"/>
        <pt x="647" y="46" on="0"/>
        <pt x="748" y="161" on="0"/>
        <pt x="796" y="206" on="1"/>
        <pt x="796" y="208" on="1"/>
        <pt x="672" y="208" on="1"/>
        <pt x="670" y="177" on="0"/>
        <pt x="650" y="145" on="0"/>
        <pt x="606" y="134" on="0"/>
        <pt x="563" y="134" on="1"/>
        <pt x="560" y="134" on="1"/>
        <pt x="498" y="104" on="0"/>
        <pt x="355" y="74" on="0"/>
        <pt x="265" y="74" on="1"/>
        <pt x="181" y="74" on="0"/>
        <pt x="79" y="110" on="0"/>
        <pt x="31" y="192" on="0"/>
        <pt x="31" y="262" on="1"/>
        <pt x="31" y="364" on="0"/>
        <pt x="122" y="449" on="0"/>
        <pt x="217" y="449" on="1"/>
        <pt x="255" y="449" on="0"/>
        <pt x="346" y="440" on="0"/>
        <pt x="372" y="432" on="1"/>
        <pt x="372" y="329" on="1"/>
        <pt x="368" y="328" on="1"/>
        <pt x="350" y="333" on="0"/>
        <pt x="284" y="342" on="0"/>
        <pt x="259" y="342" on="1"/>
        <pt x="241" y="342" on="0"/>
        <pt x="233" y="341" on="1"/>
        <pt x="233" y="340" on="1"/>
        <pt x="433" y="202" on="1"/>
        <pt x="445" y="205" on="1"/>
        <pt x="444" y="212" on="0"/>
        <pt x="444" y="227" on="1"/>
        <pt x="444" y="282" on="0"/>
        <pt x="479" y="320" on="0"/>
        <pt x="525" y="320" on="1"/>
        <pt x="525" y="433" on="1"/>
        <pt x="525" y="471" on="0"/>
        <pt x="505" y="500" on="0"/>
        <pt x="474" y="500" on="1"/>
        <pt x="-50" y="500" on="1"/>
        <pt x="-50" y="607" on="1"/>
        <pt x="511" y="607" on="1"/>
        <pt x="574" y="607" on="0"/>
        <pt x="644" y="571" on="0"/>
        <pt x="673" y="492" on="0"/>
        <pt x="673" y="422" on="1"/>
        <pt x="673" y="320" on="1"/>
        <pt x="848" y="320" on="1"/>
        <pt x="848" y="607" on="1"/>
        <pt x="1097" y="607" on="1"/>
      </contour>
      <contour>
        <pt x="174" y="317" on="1"/>
        <pt x="176" y="320" on="1"/>
      </contour>
      <contour>
        <pt x="163" y="217" on="0"/>
        <pt x="219" y="183" on="0"/>
        <pt x="291" y="183" on="1"/>
        <pt x="317" y="183" on="0"/>
        <pt x="345" y="186" on="1"/>
        <pt x="345" y="187" on="1"/>
        <pt x="171" y="307" on="1"/>
        <pt x="169" y="307" on="1"/>
        <pt x="163" y="291" on="0"/>
        <pt x="163" y="264" on="1"/>
      </contour>
    </TTGlyph>
    <TTGlyph name="dvB_DA" xMin="-50" yMin="9" xMax="1012" yMax="607">
      <contour>
        <pt x="642" y="321" on="0"/>
        <pt x="600" y="308" on="0"/>
        <pt x="583" y="277" on="0"/>
        <pt x="583" y="247" on="1"/>
        <pt x="583" y="217" on="0"/>
        <pt x="601" y="189" on="0"/>
        <pt x="647" y="179" on="0"/>
        <pt x="695" y="179" on="1"/>
        <pt x="757" y="179" on="0"/>
        <pt x="801" y="197" on="0"/>
        <pt x="801" y="218" on="1"/>
        <pt x="801" y="250" on="1"/>
        <pt x="917" y="250" on="1"/>
        <pt x="917" y="9" on="1"/>
        <pt x="773" y="9" on="1"/>
        <pt x="773" y="38" on="0"/>
        <pt x="778" y="72" on="0"/>
        <pt x="783" y="87" on="1"/>
        <pt x="780" y="89" on="1"/>
        <pt x="737" y="65" on="0"/>
        <pt x="647" y="65" on="1"/>
        <pt x="553" y="65" on="0"/>
        <pt x="505" y="101" on="1"/>
        <pt x="397" y="64" on="0"/>
        <pt x="264" y="64" on="1"/>
        <pt x="180" y="64" on="0"/>
        <pt x="78" y="100" on="0"/>
        <pt x="30" y="182" on="0"/>
        <pt x="30" y="252" on="1"/>
        <pt x="30" y="353" on="0"/>
        <pt x="125" y="439" on="0"/>
        <pt x="221" y="439" on="1"/>
        <pt x="305" y="439" on="0"/>
        <pt x="371" y="422" on="1"/>
        <pt x="371" y="319" on="1"/>
        <pt x="367" y="318" on="1"/>
        <pt x="344" y="324" on="0"/>
        <pt x="284" y="332" on="0"/>
        <pt x="258" y="332" on="1"/>
        <pt x="240" y="332" on="0"/>
        <pt x="232" y="331" on="1"/>
        <pt x="232" y="330" on="1"/>
        <pt x="432" y="192" on="1"/>
        <pt x="452" y="197" on="1"/>
        <pt x="447" y="225" on="0"/>
        <pt x="447" y="253" on="1"/>
        <pt x="447" y="321" on="0"/>
        <pt x="491" y="400" on="0"/>
        <pt x="586" y="435" on="0"/>
        <pt x="667" y="435" on="1"/>
        <pt x="743" y="435" on="0"/>
        <pt x="780" y="434" on="1"/>
        <pt x="780" y="500" on="1"/>
        <pt x="-50" y="500" on="1"/>
        <pt x="-50" y="607" on="1"/>
        <pt x="1012" y="607" on="1"/>
        <pt x="1012" y="500" on="1"/>
        <pt x="912" y="500" on="1"/>
        <pt x="912" y="321" on="1"/>
        <pt x="684" y="321" on="1"/>
      </contour>
      <contour>
        <pt x="173" y="307" on="1"/>
        <pt x="175" y="310" on="1"/>
      </contour>
      <contour>
        <pt x="162" y="207" on="0"/>
        <pt x="218" y="173" on="0"/>
        <pt x="290" y="173" on="1"/>
        <pt x="316" y="173" on="0"/>
        <pt x="344" y="176" on="1"/>
        <pt x="344" y="177" on="1"/>
        <pt x="170" y="297" on="1"/>
        <pt x="168" y="297" on="1"/>
        <pt x="162" y="281" on="0"/>
        <pt x="162" y="254" on="1"/>
      </contour>
    </TTGlyph>
    <TTGlyph name="dvB_DHA" xMin="-50" yMin="9" xMax="1104" yMax="607">
      <contour>
        <pt x="1104" y="500" on="1"/>
        <pt x="1004" y="500" on="1"/>
        <pt x="1004" y="9" on="1"/>
        <pt x="855" y="9" on="1"/>
        <pt x="855" y="83" on="1"/>
        <pt x="852" y="85" on="1"/>
        <pt x="819" y="71" on="0"/>
        <pt x="724" y="54" on="0"/>
        <pt x="670" y="54" on="1"/>
        <pt x="555" y="54" on="0"/>
        <pt x="507" y="102" on="1"/>
        <pt x="401" y="64" on="0"/>
        <pt x="264" y="64" on="1"/>
        <pt x="180" y="64" on="0"/>
        <pt x="78" y="100" on="0"/>
        <pt x="30" y="182" on="0"/>
        <pt x="30" y="252" on="1"/>
        <pt x="30" y="353" on="0"/>
        <pt x="125" y="439" on="0"/>
        <pt x="221" y="439" on="1"/>
        <pt x="305" y="439" on="0"/>
        <pt x="371" y="422" on="1"/>
        <pt x="371" y="319" on="1"/>
        <pt x="367" y="318" on="1"/>
        <pt x="344" y="324" on="0"/>
        <pt x="284" y="332" on="0"/>
        <pt x="258" y="332" on="1"/>
        <pt x="240" y="332" on="0"/>
        <pt x="232" y="331" on="1"/>
        <pt x="232" y="330" on="1"/>
        <pt x="432" y="192" on="1"/>
        <pt x="445" y="195" on="0"/>
        <pt x="469" y="203" on="1"/>
        <pt x="469" y="216" on="1"/>
        <pt x="469" y="266" on="0"/>
        <pt x="530" y="331" on="0"/>
        <pt x="584" y="334" on="1"/>
        <pt x="584" y="338" on="1"/>
        <pt x="526" y="340" on="0"/>
        <pt x="460" y="392" on="0"/>
        <pt x="460" y="436" on="1"/>
        <pt x="460" y="476" on="0"/>
        <pt x="490" y="497" on="1"/>
        <pt x="490" y="500" on="1"/>
        <pt x="-50" y="500" on="1"/>
        <pt x="-50" y="607" on="1"/>
        <pt x="750" y="607" on="1"/>
        <pt x="750" y="500" on="1"/>
        <pt x="681" y="500" on="1"/>
        <pt x="636" y="500" on="0"/>
        <pt x="606" y="476" on="0"/>
        <pt x="606" y="447" on="1"/>
        <pt x="606" y="419" on="0"/>
        <pt x="651" y="395" on="0"/>
        <pt x="711" y="395" on="1"/>
        <pt x="740" y="395" on="1"/>
        <pt x="740" y="280" on="1"/>
        <pt x="711" y="280" on="1"/>
        <pt x="655" y="280" on="0"/>
        <pt x="614" y="258" on="0"/>
        <pt x="614" y="228" on="1"/>
        <pt x="614" y="199" on="0"/>
        <pt x="658" y="177" on="0"/>
        <pt x="721" y="177" on="1"/>
        <pt x="753" y="177" on="0"/>
        <pt x="836" y="192" on="0"/>
        <pt x="855" y="203" on="1"/>
        <pt x="855" y="607" on="1"/>
        <pt x="1104" y="607" on="1"/>
      </contour>
      <contour>
        <pt x="173" y="307" on="1"/>
        <pt x="175" y="310" on="1"/>
      </contour>
      <contour>
        <pt x="162" y="207" on="0"/>
        <pt x="218" y="173" on="0"/>
        <pt x="290" y="173" on="1"/>
        <pt x="316" y="173" on="0"/>
        <pt x="344" y="176" on="1"/>
        <pt x="344" y="177" on="1"/>
        <pt x="170" y="297" on="1"/>
        <pt x="168" y="297" on="1"/>
        <pt x="162" y="281" on="0"/>
        <pt x="162" y="254" on="1"/>
      </contour>
    </TTGlyph>
    <TTGlyph name="dvB_DH_VA" xMin="-50" yMin="9" xMax="1476" yMax="607">
      <contour>
        <pt x="1476" y="500" on="1"/>
        <pt x="1376" y="500" on="1"/>
        <pt x="1376" y="9" on="1"/>
        <pt x="1228" y="9" on="1"/>
        <pt x="1228" y="84" on="1"/>
        <pt x="1225" y="85" on="1"/>
        <pt x="1198" y="72" on="0"/>
        <pt x="1114" y="56" on="0"/>
        <pt x="1072" y="56" on="1"/>
        <pt x="967" y="56" on="0"/>
        <pt x="917" y="89" on="1"/>
        <pt x="875" y="71" on="0"/>
        <pt x="778" y="54" on="0"/>
        <pt x="707" y="54" on="1"/>
        <pt x="633" y="54" on="0"/>
        <pt x="537" y="78" on="0"/>
        <pt x="510" y="103" on="1"/>
        <pt x="404" y="64" on="0"/>
        <pt x="264" y="64" on="1"/>
        <pt x="180" y="64" on="0"/>
        <pt x="78" y="100" on="0"/>
        <pt x="30" y="182" on="0"/>
        <pt x="30" y="252" on="1"/>
        <pt x="30" y="353" on="0"/>
        <pt x="125" y="439" on="0"/>
        <pt x="221" y="439" on="1"/>
        <pt x="305" y="439" on="0"/>
        <pt x="371" y="422" on="1"/>
        <pt x="371" y="319" on="1"/>
        <pt x="367" y="318" on="1"/>
        <pt x="344" y="324" on="0"/>
        <pt x="284" y="332" on="0"/>
        <pt x="258" y="332" on="1"/>
        <pt x="240" y="332" on="0"/>
        <pt x="232" y="331" on="1"/>
        <pt x="232" y="330" on="1"/>
        <pt x="432" y="192" on="1"/>
        <pt x="445" y="195" on="0"/>
        <pt x="469" y="203" on="1"/>
        <pt x="469" y="216" on="1"/>
        <pt x="469" y="266" on="0"/>
        <pt x="530" y="331" on="0"/>
        <pt x="584" y="334" on="1"/>
        <pt x="584" y="338" on="1"/>
        <pt x="526" y="340" on="0"/>
        <pt x="460" y="392" on="0"/>
        <pt x="460" y="436" on="1"/>
        <pt x="460" y="476" on="0"/>
        <pt x="490" y="497" on="1"/>
        <pt x="490" y="500" on="1"/>
        <pt x="-50" y="500" on="1"/>
        <pt x="-50" y="607" on="1"/>
        <pt x="695" y="607" on="1"/>
        <pt x="695" y="500" on="1"/>
        <pt x="681" y="500" on="1"/>
        <pt x="636" y="500" on="0"/>
        <pt x="606" y="476" on="0"/>
        <pt x="606" y="447" on="1"/>
        <pt x="606" y="419" on="0"/>
        <pt x="651" y="395" on="0"/>
        <pt x="711" y="395" on="1"/>
        <pt x="740" y="395" on="1"/>
        <pt x="740" y="280" on="1"/>
        <pt x="711" y="280" on="1"/>
        <pt x="655" y="280" on="0"/>
        <pt x="614" y="258" on="0"/>
        <pt x="614" y="228" on="1"/>
        <pt x="614" y="199" on="0"/>
        <pt x="658" y="177" on="0"/>
        <pt x="718" y="177" on="1"/>
        <pt x="800" y="177" on="0"/>
        <pt x="854" y="195" on="1"/>
        <pt x="850" y="218" on="0"/>
        <pt x="850" y="251" on="1"/>
        <pt x="850" y="350" on="0"/>
        <pt x="941" y="439" on="0"/>
        <pt x="1038" y="439" on="1"/>
        <pt x="1108" y="439" on="0"/>
        <pt x="1170" y="423" on="1"/>
        <pt x="1170" y="308" on="1"/>
        <pt x="1166" y="307" on="1"/>
        <pt x="1129" y="315" on="0"/>
        <pt x="1083" y="315" on="1"/>
        <pt x="1035" y="315" on="0"/>
        <pt x="1000" y="288" on="0"/>
        <pt x="1000" y="246" on="1"/>
        <pt x="1000" y="204" on="0"/>
        <pt x="1048" y="176" on="0"/>
        <pt x="1111" y="176" on="1"/>
        <pt x="1182" y="176" on="0"/>
        <pt x="1228" y="199" on="1"/>
        <pt x="1228" y="500" on="1"/>
        <pt x="800" y="500" on="1"/>
        <pt x="800" y="607" on="1"/>
        <pt x="1476" y="607" on="1"/>
      </contour>
      <contour>
        <pt x="173" y="307" on="1"/>
        <pt x="175" y="310" on="1"/>
      </contour>
      <contour>
        <pt x="162" y="207" on="0"/>
        <pt x="218" y="173" on="0"/>
        <pt x="290" y="173" on="1"/>
        <pt x="316" y="173" on="0"/>
        <pt x="344" y="176" on="1"/>
        <pt x="344" y="177" on="1"/>
        <pt x="170" y="297" on="1"/>
        <pt x="168" y="297" on="1"/>
        <pt x="162" y="281" on="0"/>
        <pt x="162" y="254" on="1"/>
      </contour>
    </TTGlyph>
    <TTGlyph name="dvB_JA" xMin="-60" yMin="0" xMax="1114" yMax="607">
      <contour>
        <pt x="1114" y="500" on="1"/>
        <pt x="1014" y="500" on="1"/>
        <pt x="1014" y="9" on="1"/>
        <pt x="867" y="9" on="1"/>
        <pt x="867" y="297" on="1"/>
        <pt x="705" y="297" on="1"/>
        <pt x="705" y="295" on="1"/>
        <pt x="733" y="284" on="0"/>
        <pt x="762" y="224" on="0"/>
        <pt x="762" y="180" on="1"/>
        <pt x="762" y="111" on="0"/>
        <pt x="731" y="34" on="0"/>
        <pt x="654" y="0" on="0"/>
        <pt x="584" y="0" on="1"/>
        <pt x="470" y="0" on="0"/>
        <pt x="422" y="39" on="1"/>
        <pt x="421" y="39" on="1"/>
        <pt x="365" y="0" on="0"/>
        <pt x="264" y="0" on="1"/>
        <pt x="180" y="0" on="0"/>
        <pt x="78" y="36" on="0"/>
        <pt x="30" y="118" on="0"/>
        <pt x="30" y="188" on="1"/>
        <pt x="30" y="290" on="0"/>
        <pt x="121" y="375" on="0"/>
        <pt x="216" y="375" on="1"/>
        <pt x="254" y="375" on="0"/>
        <pt x="345" y="366" on="0"/>
        <pt x="371" y="358" on="1"/>
        <pt x="371" y="255" on="1"/>
        <pt x="367" y="254" on="1"/>
        <pt x="349" y="259" on="0"/>
        <pt x="283" y="268" on="0"/>
        <pt x="258" y="268" on="1"/>
        <pt x="243" y="268" on="1"/>
        <pt x="379" y="173" on="1"/>
        <pt x="415" y="147" on="0"/>
        <pt x="491" y="121" on="0"/>
        <pt x="541" y="121" on="1"/>
        <pt x="575" y="121" on="0"/>
        <pt x="610" y="135" on="0"/>
        <pt x="626" y="172" on="0"/>
        <pt x="626" y="209" on="1"/>
        <pt x="626" y="240" on="0"/>
        <pt x="609" y="273" on="0"/>
        <pt x="567" y="287" on="0"/>
        <pt x="525" y="287" on="1"/>
        <pt x="495" y="287" on="1"/>
        <pt x="495" y="403" on="1"/>
        <pt x="867" y="403" on="1"/>
        <pt x="867" y="500" on="1"/>
        <pt x="-60" y="500" on="1"/>
        <pt x="-60" y="607" on="1"/>
        <pt x="1114" y="607" on="1"/>
      </contour>
      <contour>
        <pt x="338" y="122" on="1"/>
        <pt x="171" y="239" on="1"/>
        <pt x="162" y="221" on="0"/>
        <pt x="162" y="190" on="1"/>
        <pt x="162" y="144" on="0"/>
        <pt x="212" y="109" on="0"/>
        <pt x="270" y="109" on="1"/>
        <pt x="290" y="109" on="0"/>
        <pt x="328" y="115" on="0"/>
        <pt x="338" y="120" on="1"/>
      </contour>
    </TTGlyph>
    <TTGlyph name="dvB_JHA" xMin="-50" yMin="-74" xMax="1267" yMax="607">
      <contour>
        <pt x="1267" y="500" on="1"/>
        <pt x="1167" y="500" on="1"/>
        <pt x="1167" y="9" on="1"/>
        <pt x="1019" y="9" on="1"/>
        <pt x="1019" y="118" on="1"/>
        <pt x="896" y="118" on="1"/>
        <pt x="890" y="53" on="0"/>
        <pt x="802" y="0" on="0"/>
        <pt x="705" y="0" on="1"/>
        <pt x="662" y="0" on="0"/>
        <pt x="588" y="10" on="0"/>
        <pt x="567" y="19" on="1"/>
        <pt x="564" y="16" on="1"/>
        <pt x="571" y="-4" on="0"/>
        <pt x="576" y="-44" on="0"/>
        <pt x="576" y="-74" on="1"/>
        <pt x="451" y="-74" on="1"/>
        <pt x="451" y="51" on="1"/>
        <pt x="369" y="32" on="0"/>
        <pt x="274" y="32" on="1"/>
        <pt x="190" y="32" on="0"/>
        <pt x="88" y="68" on="0"/>
        <pt x="40" y="150" on="0"/>
        <pt x="40" y="220" on="1"/>
        <pt x="40" y="321" on="0"/>
        <pt x="136" y="407" on="0"/>
        <pt x="231" y="407" on="1"/>
        <pt x="271" y="407" on="0"/>
        <pt x="354" y="398" on="0"/>
        <pt x="381" y="390" on="1"/>
        <pt x="381" y="287" on="1"/>
        <pt x="377" y="286" on="1"/>
        <pt x="357" y="292" on="0"/>
        <pt x="296" y="300" on="0"/>
        <pt x="268" y="300" on="1"/>
        <pt x="250" y="300" on="0"/>
        <pt x="242" y="299" on="1"/>
        <pt x="242" y="298" on="1"/>
        <pt x="452" y="157" on="1"/>
        <pt x="554" y="157" on="1"/>
        <pt x="554" y="149" on="1"/>
        <pt x="554" y="134" on="0"/>
        <pt x="571" y="119" on="0"/>
        <pt x="616" y="113" on="0"/>
        <pt x="663" y="113" on="1"/>
        <pt x="703" y="113" on="0"/>
        <pt x="743" y="119" on="0"/>
        <pt x="757" y="134" on="0"/>
        <pt x="757" y="149" on="1"/>
        <pt x="757" y="164" on="0"/>
        <pt x="744" y="179" on="0"/>
        <pt x="708" y="185" on="0"/>
        <pt x="670" y="185" on="1"/>
        <pt x="615" y="185" on="1"/>
        <pt x="527" y="185" on="0"/>
        <pt x="453" y="246" on="0"/>
        <pt x="453" y="318" on="1"/>
        <pt x="453" y="388" on="0"/>
        <pt x="534" y="447" on="0"/>
        <pt x="627" y="447" on="1"/>
        <pt x="782" y="447" on="1"/>
        <pt x="782" y="500" on="1"/>
        <pt x="-50" y="500" on="1"/>
        <pt x="-50" y="607" on="1"/>
        <pt x="1267" y="607" on="1"/>
      </contour>
      <contour>
        <pt x="1019" y="500" on="1"/>
        <pt x="900" y="500" on="1"/>
        <pt x="900" y="340" on="1"/>
        <pt x="631" y="340" on="1"/>
        <pt x="612" y="340" on="0"/>
        <pt x="593" y="328" on="0"/>
        <pt x="593" y="311" on="1"/>
        <pt x="593" y="294" on="0"/>
        <pt x="612" y="282" on="0"/>
        <pt x="631" y="282" on="1"/>
        <pt x="698" y="282" on="1"/>
        <pt x="780" y="282" on="0"/>
        <pt x="866" y="256" on="0"/>
        <pt x="883" y="223" on="1"/>
        <pt x="1019" y="223" on="1"/>
      </contour>
      <contour>
        <pt x="172" y="175" on="0"/>
        <pt x="228" y="141" on="0"/>
        <pt x="300" y="141" on="1"/>
        <pt x="338" y="141" on="0"/>
        <pt x="355" y="142" on="1"/>
        <pt x="355" y="143" on="1"/>
        <pt x="177" y="262" on="1"/>
        <pt x="172" y="250" on="0"/>
        <pt x="172" y="222" on="1"/>
      </contour>
    </TTGlyph>
    <TTGlyph name="dvB_J_YA" xMin="-60" yMin="0" xMax="1518" yMax="607">
      <contour>
        <pt x="1518" y="500" on="1"/>
        <pt x="1418" y="500" on="1"/>
        <pt x="1418" y="9" on="1"/>
        <pt x="1270" y="9" on="1"/>
        <pt x="1270" y="98" on="1"/>
        <pt x="1266" y="100" on="1"/>
        <pt x="1196" y="76" on="0"/>
        <pt x="1100" y="76" on="1"/>
        <pt x="979" y="76" on="0"/>
        <pt x="840" y="172" on="0"/>
        <pt x="826" y="268" on="1"/>
        <pt x="705" y="268" on="1"/>
        <pt x="705" y="266" on="1"/>
        <pt x="733" y="255" on="0"/>
        <pt x="762" y="198" on="0"/>
        <pt x="762" y="161" on="1"/>
        <pt x="762" y="103" on="0"/>
        <pt x="731" y="34" on="0"/>
        <pt x="653" y="0" on="0"/>
        <pt x="584" y="0" on="1"/>
        <pt x="470" y="0" on="0"/>
        <pt x="422" y="39" on="1"/>
        <pt x="421" y="39" on="1"/>
        <pt x="365" y="0" on="0"/>
        <pt x="264" y="0" on="1"/>
        <pt x="180" y="0" on="0"/>
        <pt x="78" y="36" on="0"/>
        <pt x="30" y="118" on="0"/>
        <pt x="30" y="188" on="1"/>
        <pt x="30" y="290" on="0"/>
        <pt x="121" y="375" on="0"/>
        <pt x="216" y="375" on="1"/>
        <pt x="254" y="375" on="0"/>
        <pt x="345" y="366" on="0"/>
        <pt x="371" y="358" on="1"/>
        <pt x="371" y="255" on="1"/>
        <pt x="367" y="254" on="1"/>
        <pt x="349" y="259" on="0"/>
        <pt x="283" y="268" on="0"/>
        <pt x="258" y="268" on="1"/>
        <pt x="243" y="268" on="1"/>
        <pt x="379" y="173" on="1"/>
        <pt x="415" y="147" on="0"/>
        <pt x="491" y="121" on="0"/>
        <pt x="541" y="121" on="1"/>
        <pt x="590" y="121" on="0"/>
        <pt x="626" y="150" on="0"/>
        <pt x="626" y="190" on="1"/>
        <pt x="626" y="216" on="0"/>
        <pt x="609" y="245" on="0"/>
        <pt x="566" y="258" on="0"/>
        <pt x="525" y="258" on="1"/>
        <pt x="495" y="258" on="1"/>
        <pt x="495" y="374" on="1"/>
        <pt x="908" y="374" on="1"/>
        <pt x="938" y="376" on="0"/>
        <pt x="968" y="394" on="0"/>
        <pt x="979" y="432" on="0"/>
        <pt x="979" y="470" on="1"/>
        <pt x="979" y="500" on="1"/>
        <pt x="-60" y="500" on="1"/>
        <pt x="-60" y="607" on="1"/>
        <pt x="1518" y="607" on="1"/>
      </contour>
      <contour>
        <pt x="1270" y="500" on="1"/>
        <pt x="1121" y="500" on="1"/>
        <pt x="1121" y="428" on="1"/>
        <pt x="1121" y="353" on="0"/>
        <pt x="1052" y="278" on="0"/>
        <pt x="970" y="271" on="1"/>
        <pt x="970" y="268" on="1"/>
        <pt x="957" y="268" on="1"/>
        <pt x="959" y="233" on="0"/>
        <pt x="1033" y="200" on="0"/>
        <pt x="1114" y="200" on="1"/>
        <pt x="1210" y="200" on="0"/>
        <pt x="1270" y="228" on="1"/>
      </contour>
      <contour>
        <pt x="338" y="122" on="1"/>
        <pt x="171" y="239" on="1"/>
        <pt x="162" y="221" on="0"/>
        <pt x="162" y="190" on="1"/>
        <pt x="162" y="144" on="0"/>
        <pt x="212" y="109" on="0"/>
        <pt x="270" y="109" on="1"/>
        <pt x="290" y="109" on="0"/>
        <pt x="328" y="115" on="0"/>
        <pt x="338" y="120" on="1"/>
      </contour>
    </TTGlyph>
    <TTGlyph name="dvB_JxA" xMin="-60" yMin="-153" xMax="1114" yMax="607">
      <contour>
        <pt x="1114" y="500" on="1"/>
        <pt x="1014" y="500" on="1"/>
        <pt x="1014" y="9" on="1"/>
        <pt x="867" y="9" on="1"/>
        <pt x="867" y="297" on="1"/>
        <pt x="705" y="297" on="1"/>
        <pt x="705" y="295" on="1"/>
        <pt x="733" y="284" on="0"/>
        <pt x="762" y="224" on="0"/>
        <pt x="762" y="180" on="1"/>
        <pt x="762" y="111" on="0"/>
        <pt x="731" y="34" on="0"/>
        <pt x="654" y="0" on="0"/>
        <pt x="584" y="0" on="1"/>
        <pt x="470" y="0" on="0"/>
        <pt x="422" y="39" on="1"/>
        <pt x="421" y="39" on="1"/>
        <pt x="365" y="0" on="0"/>
        <pt x="264" y="0" on="1"/>
        <pt x="180" y="0" on="0"/>
        <pt x="78" y="36" on="0"/>
        <pt x="30" y="118" on="0"/>
        <pt x="30" y="188" on="1"/>
        <pt x="30" y="290" on="0"/>
        <pt x="121" y="375" on="0"/>
        <pt x="216" y="375" on="1"/>
        <pt x="254" y="375" on="0"/>
        <pt x="345" y="366" on="0"/>
        <pt x="371" y="358" on="1"/>
        <pt x="371" y="255" on="1"/>
        <pt x="367" y="254" on="1"/>
        <pt x="349" y="259" on="0"/>
        <pt x="283" y="268" on="0"/>
        <pt x="258" y="268" on="1"/>
        <pt x="243" y="268" on="1"/>
        <pt x="379" y="173" on="1"/>
        <pt x="415" y="147" on="0"/>
        <pt x="491" y="121" on="0"/>
        <pt x="541" y="121" on="1"/>
        <pt x="575" y="121" on="0"/>
        <pt x="610" y="135" on="0"/>
        <pt x="626" y="172" on="0"/>
        <pt x="626" y="209" on="1"/>
        <pt x="626" y="240" on="0"/>
        <pt x="609" y="273" on="0"/>
        <pt x="567" y="287" on="0"/>
        <pt x="525" y="287" on="1"/>
        <pt x="495" y="287" on="1"/>
        <pt x="495" y="403" on="1"/>
        <pt x="867" y="403" on="1"/>
        <pt x="867" y="500" on="1"/>
        <pt x="-60" y="500" on="1"/>
        <pt x="-60" y="607" on="1"/>
        <pt x="1114" y="607" on="1"/>
      </contour>
      <contour>
        <pt x="338" y="122" on="1"/>
        <pt x="171" y="239" on="1"/>
        <pt x="162" y="221" on="0"/>
        <pt x="162" y="190" on="1"/>
        <pt x="162" y="144" on="0"/>
        <pt x="212" y="109" on="0"/>
        <pt x="270" y="109" on="1"/>
        <pt x="290" y="109" on="0"/>
        <pt x="328" y="115" on="0"/>
        <pt x="338" y="120" on="1"/>
      </contour>
      <contour>
        <pt x="547" y="-43" on="0"/>
        <pt x="579" y="-50" on="1"/>
        <pt x="582" y="-80" on="0"/>
        <pt x="582" y="-98" on="1"/>
        <pt x="582" y="-118" on="0"/>
        <pt x="579" y="-146" on="1"/>
        <pt x="545" y="-153" on="0"/>
        <pt x="510" y="-153" on="1"/>
        <pt x="475" y="-153" on="0"/>
        <pt x="444" y="-146" on="1"/>
        <pt x="440" y="-122" on="0"/>
        <pt x="440" y="-99" on="1"/>
        <pt x="440" y="-77" on="0"/>
        <pt x="444" y="-50" on="1"/>
        <pt x="475" y="-43" on="0"/>
        <pt x="512" y="-43" on="1"/>
      </contour>
    </TTGlyph>
    <TTGlyph name="dvB_LA" xMin="-50" yMin="9" xMax="1255" yMax="607">
      <contour>
        <pt x="1255" y="500" on="1"/>
        <pt x="1155" y="500" on="1"/>
        <pt x="1155" y="9" on="1"/>
        <pt x="1006" y="9" on="1"/>
        <pt x="1006" y="223" on="1"/>
        <pt x="1003" y="265" on="0"/>
        <pt x="973" y="294" on="0"/>
        <pt x="941" y="294" on="1"/>
        <pt x="914" y="294" on="0"/>
        <pt x="886" y="278" on="0"/>
        <pt x="873" y="235" on="0"/>
        <pt x="873" y="193" on="1"/>
        <pt x="873" y="126" on="1"/>
        <pt x="741" y="126" on="1"/>
        <pt x="741" y="193" on="1"/>
        <pt x="741" y="252" on="0"/>
        <pt x="710" y="294" on="0"/>
        <pt x="673" y="294" on="1"/>
        <pt x="634" y="294" on="0"/>
        <pt x="602" y="253" on="0"/>
        <pt x="602" y="203" on="1"/>
        <pt x="602" y="153" on="0"/>
        <pt x="628" y="62" on="0"/>
        <pt x="657" y="14" on="1"/>
        <pt x="657" y="9" on="1"/>
        <pt x="515" y="9" on="1"/>
        <pt x="494" y="47" on="0"/>
        <pt x="478" y="93" on="1"/>
        <pt x="386" y="64" on="0"/>
        <pt x="264" y="64" on="1"/>
        <pt x="180" y="64" on="0"/>
        <pt x="78" y="100" on="0"/>
        <pt x="30" y="182" on="0"/>
        <pt x="30" y="252" on="1"/>
        <pt x="30" y="353" on="0"/>
        <pt x="125" y="439" on="0"/>
        <pt x="221" y="439" on="1"/>
        <pt x="305" y="439" on="0"/>
        <pt x="371" y="422" on="1"/>
        <pt x="371" y="319" on="1"/>
        <pt x="367" y="318" on="1"/>
        <pt x="344" y="324" on="0"/>
        <pt x="284" y="332" on="0"/>
        <pt x="258" y="332" on="1"/>
        <pt x="240" y="332" on="0"/>
        <pt x="232" y="331" on="1"/>
        <pt x="232" y="330" on="1"/>
        <pt x="432" y="192" on="1"/>
        <pt x="456" y="198" on="1"/>
        <pt x="454" y="224" on="0"/>
        <pt x="454" y="236" on="1"/>
        <pt x="454" y="332" on="0"/>
        <pt x="546" y="420" on="0"/>
        <pt x="639" y="420" on="1"/>
        <pt x="785" y="420" on="0"/>
        <pt x="800" y="326" on="1"/>
        <pt x="803" y="326" on="1"/>
        <pt x="811" y="371" on="0"/>
        <pt x="871" y="419" on="0"/>
        <pt x="933" y="419" on="1"/>
        <pt x="981" y="419" on="0"/>
        <pt x="1004" y="393" on="1"/>
        <pt x="1006" y="395" on="1"/>
        <pt x="1006" y="500" on="1"/>
        <pt x="-50" y="500" on="1"/>
        <pt x="-50" y="607" on="1"/>
        <pt x="1255" y="607" on="1"/>
      </contour>
      <contour>
        <pt x="173" y="307" on="1"/>
        <pt x="175" y="310" on="1"/>
      </contour>
      <contour>
        <pt x="162" y="207" on="0"/>
        <pt x="218" y="173" on="0"/>
        <pt x="290" y="173" on="1"/>
        <pt x="316" y="173" on="0"/>
        <pt x="344" y="176" on="1"/>
        <pt x="344" y="177" on="1"/>
        <pt x="170" y="297" on="1"/>
        <pt x="168" y="297" on="1"/>
        <pt x="162" y="281" on="0"/>
        <pt x="162" y="254" on="1"/>
      </contour>
    </TTGlyph>
    <TTGlyph name="dvB_L_YA" xMin="-50" yMin="9" xMax="1681" yMax="607">
      <component glyphName="uni092C094D" x="0" y="0" flags="0x0"/>
      <component glyphName="dvL_YA" x="421" y="0" flags="0x0"/>
    </TTGlyph>
    <TTGlyph name="dvB_NA" xMin="-50" yMin="9" xMax="1047" yMax="607">
      <contour>
        <pt x="1047" y="500" on="1"/>
        <pt x="947" y="500" on="1"/>
        <pt x="947" y="9" on="1"/>
        <pt x="798" y="9" on="1"/>
        <pt x="798" y="209" on="1"/>
        <pt x="645" y="208" on="1"/>
        <pt x="643" y="164" on="0"/>
        <pt x="608" y="136" on="0"/>
        <pt x="560" y="134" on="1"/>
        <pt x="498" y="104" on="0"/>
        <pt x="355" y="74" on="0"/>
        <pt x="265" y="74" on="1"/>
        <pt x="181" y="74" on="0"/>
        <pt x="79" y="110" on="0"/>
        <pt x="31" y="192" on="0"/>
        <pt x="31" y="262" on="1"/>
        <pt x="31" y="364" on="0"/>
        <pt x="122" y="449" on="0"/>
        <pt x="217" y="449" on="1"/>
        <pt x="255" y="449" on="0"/>
        <pt x="346" y="440" on="0"/>
        <pt x="372" y="432" on="1"/>
        <pt x="372" y="329" on="1"/>
        <pt x="368" y="328" on="1"/>
        <pt x="350" y="333" on="0"/>
        <pt x="284" y="342" on="0"/>
        <pt x="259" y="342" on="1"/>
        <pt x="241" y="342" on="0"/>
        <pt x="233" y="341" on="1"/>
        <pt x="233" y="340" on="1"/>
        <pt x="433" y="202" on="1"/>
        <pt x="438" y="202" on="0"/>
        <pt x="444" y="205" on="1"/>
        <pt x="443" y="211" on="0"/>
        <pt x="443" y="227" on="1"/>
        <pt x="443" y="269" on="0"/>
        <pt x="460" y="307" on="0"/>
        <pt x="502" y="320" on="0"/>
        <pt x="546" y="320" on="1"/>
        <pt x="798" y="321" on="1"/>
        <pt x="798" y="500" on="1"/>
        <pt x="-50" y="500" on="1"/>
        <pt x="-50" y="607" on="1"/>
        <pt x="1047" y="607" on="1"/>
      </contour>
      <contour>
        <pt x="174" y="317" on="1"/>
        <pt x="176" y="320" on="1"/>
      </contour>
      <contour>
        <pt x="163" y="217" on="0"/>
        <pt x="219" y="183" on="0"/>
        <pt x="291" y="183" on="1"/>
        <pt x="317" y="183" on="0"/>
        <pt x="345" y="186" on="1"/>
        <pt x="345" y="187" on="1"/>
        <pt x="171" y="307" on="1"/>
        <pt x="169" y="307" on="1"/>
        <pt x="163" y="291" on="0"/>
        <pt x="163" y="264" on="1"/>
      </contour>
    </TTGlyph>
    <TTGlyph name="dvB_RA" xMin="-50" yMin="-35" xMax="676" yMax="607">
      <contour>
        <pt x="676" y="500" on="1"/>
        <pt x="577" y="500" on="1"/>
        <pt x="577" y="9" on="1"/>
        <pt x="429" y="9" on="1"/>
        <pt x="429" y="106" on="1"/>
        <pt x="425" y="106" on="1"/>
        <pt x="333" y="-35" on="1"/>
        <pt x="158" y="-35" on="1"/>
        <pt x="158" y="-31" on="1"/>
        <pt x="185" y="3" on="0"/>
        <pt x="234" y="52" on="0"/>
        <pt x="267" y="78" on="1"/>
        <pt x="267" y="81" on="1"/>
        <pt x="268" y="82" on="1"/>
        <pt x="264" y="82" on="1"/>
        <pt x="140" y="82" on="0"/>
        <pt x="30" y="161" on="0"/>
        <pt x="30" y="252" on="1"/>
        <pt x="30" y="354" on="0"/>
        <pt x="121" y="439" on="0"/>
        <pt x="216" y="439" on="1"/>
        <pt x="254" y="439" on="0"/>
        <pt x="345" y="430" on="0"/>
        <pt x="371" y="422" on="1"/>
        <pt x="371" y="319" on="1"/>
        <pt x="367" y="318" on="1"/>
        <pt x="349" y="323" on="0"/>
        <pt x="283" y="332" on="0"/>
        <pt x="258" y="332" on="1"/>
        <pt x="240" y="332" on="0"/>
        <pt x="232" y="331" on="1"/>
        <pt x="232" y="330" on="1"/>
        <pt x="416" y="203" on="1"/>
        <pt x="429" y="207" on="1"/>
        <pt x="429" y="500" on="1"/>
        <pt x="-50" y="500" on="1"/>
        <pt x="-50" y="607" on="1"/>
        <pt x="676" y="607" on="1"/>
      </contour>
      <contour>
        <pt x="173" y="307" on="1"/>
        <pt x="175" y="310" on="1"/>
      </contour>
      <contour>
        <pt x="162" y="215" on="0"/>
        <pt x="219" y="185" on="0"/>
        <pt x="290" y="185" on="1"/>
        <pt x="302" y="185" on="0"/>
        <pt x="330" y="187" on="1"/>
        <pt x="170" y="297" on="1"/>
        <pt x="168" y="297" on="1"/>
        <pt x="162" y="281" on="0"/>
        <pt x="162" y="254" on="1"/>
      </contour>
    </TTGlyph>
    <TTGlyph name="dvB_SA" xMin="-50" yMin="9" xMax="1148" yMax="607">
      <contour>
        <pt x="1148" y="500" on="1"/>
        <pt x="1048" y="500" on="1"/>
        <pt x="1048" y="9" on="1"/>
        <pt x="900" y="9" on="1"/>
        <pt x="900" y="195" on="1"/>
        <pt x="608" y="195" on="1"/>
        <pt x="608" y="191" on="1"/>
        <pt x="653" y="161" on="0"/>
        <pt x="746" y="60" on="0"/>
        <pt x="779" y="11" on="1"/>
        <pt x="779" y="9" on="1"/>
        <pt x="613" y="9" on="1"/>
        <pt x="526" y="109" on="1"/>
        <pt x="410" y="64" on="0"/>
        <pt x="264" y="64" on="1"/>
        <pt x="180" y="64" on="0"/>
        <pt x="78" y="100" on="0"/>
        <pt x="30" y="182" on="0"/>
        <pt x="30" y="252" on="1"/>
        <pt x="30" y="353" on="0"/>
        <pt x="125" y="439" on="0"/>
        <pt x="221" y="439" on="1"/>
        <pt x="305" y="439" on="0"/>
        <pt x="371" y="422" on="1"/>
        <pt x="371" y="319" on="1"/>
        <pt x="367" y="318" on="1"/>
        <pt x="344" y="324" on="0"/>
        <pt x="284" y="332" on="0"/>
        <pt x="258" y="332" on="1"/>
        <pt x="240" y="332" on="0"/>
        <pt x="232" y="331" on="1"/>
        <pt x="232" y="330" on="1"/>
        <pt x="432" y="192" on="1"/>
        <pt x="455" y="198" on="1"/>
        <pt x="455" y="307" on="1"/>
        <pt x="507" y="307" on="1"/>
        <pt x="555" y="307" on="0"/>
        <pt x="589" y="344" on="0"/>
        <pt x="589" y="382" on="1"/>
        <pt x="589" y="500" on="1"/>
        <pt x="-50" y="500" on="1"/>
        <pt x="-50" y="607" on="1"/>
        <pt x="1148" y="607" on="1"/>
      </contour>
      <contour>
        <pt x="900" y="500" on="1"/>
        <pt x="737" y="500" on="1"/>
        <pt x="737" y="422" on="1"/>
        <pt x="737" y="381" on="0"/>
        <pt x="718" y="327" on="0"/>
        <pt x="696" y="309" on="1"/>
        <pt x="900" y="309" on="1"/>
      </contour>
      <contour>
        <pt x="173" y="307" on="1"/>
        <pt x="175" y="310" on="1"/>
      </contour>
      <contour>
        <pt x="162" y="207" on="0"/>
        <pt x="218" y="173" on="0"/>
        <pt x="290" y="173" on="1"/>
        <pt x="316" y="173" on="0"/>
        <pt x="344" y="176" on="1"/>
        <pt x="344" y="177" on="1"/>
        <pt x="170" y="297" on="1"/>
        <pt x="168" y="297" on="1"/>
        <pt x="162" y="281" on="0"/>
        <pt x="162" y="254" on="1"/>
      </contour>
    </TTGlyph>
    <TTGlyph name="dvB_SHA" xMin="-50" yMin="9" xMax="1161" yMax="615">
      <contour>
        <pt x="713" y="149" on="0"/>
        <pt x="831" y="11" on="1"/>
        <pt x="831" y="9" on="1"/>
        <pt x="653" y="9" on="1"/>
        <pt x="524" y="143" on="1"/>
        <pt x="484" y="102" on="0"/>
        <pt x="367" y="64" on="0"/>
        <pt x="264" y="64" on="1"/>
        <pt x="180" y="64" on="0"/>
        <pt x="78" y="100" on="0"/>
        <pt x="30" y="182" on="0"/>
        <pt x="30" y="252" on="1"/>
        <pt x="30" y="353" on="0"/>
        <pt x="126" y="439" on="0"/>
        <pt x="223" y="439" on="1"/>
        <pt x="314" y="439" on="0"/>
        <pt x="371" y="422" on="1"/>
        <pt x="371" y="319" on="1"/>
        <pt x="367" y="318" on="1"/>
        <pt x="347" y="324" on="0"/>
        <pt x="285" y="332" on="0"/>
        <pt x="258" y="332" on="1"/>
        <pt x="240" y="332" on="0"/>
        <pt x="232" y="331" on="1"/>
        <pt x="232" y="330" on="1"/>
        <pt x="416" y="203" on="1"/>
        <pt x="439" y="214" on="0"/>
        <pt x="447" y="224" on="1"/>
        <pt x="447" y="343" on="1"/>
        <pt x="542" y="343" on="1"/>
        <pt x="619" y="343" on="0"/>
        <pt x="695" y="396" on="0"/>
        <pt x="695" y="442" on="1"/>
        <pt x="695" y="476" on="0"/>
        <pt x="671" y="506" on="0"/>
        <pt x="643" y="506" on="1"/>
        <pt x="590" y="506" on="0"/>
        <pt x="590" y="457" on="1"/>
        <pt x="590" y="443" on="0"/>
        <pt x="593" y="434" on="1"/>
        <pt x="593" y="432" on="1"/>
        <pt x="471" y="432" on="1"/>
        <pt x="467" y="450" on="0"/>
        <pt x="467" y="467" on="1"/>
        <pt x="467" y="615" on="0"/>
        <pt x="648" y="615" on="1"/>
        <pt x="741" y="615" on="0"/>
        <pt x="829" y="526" on="0"/>
        <pt x="829" y="433" on="1"/>
        <pt x="829" y="342" on="0"/>
        <pt x="712" y="230" on="0"/>
        <pt x="601" y="230" on="1"/>
        <pt x="594" y="230" on="1"/>
        <pt x="594" y="228" on="1"/>
      </contour>
      <contour>
        <pt x="436" y="500" on="1"/>
        <pt x="-50" y="500" on="1"/>
        <pt x="-50" y="607" on="1"/>
        <pt x="436" y="607" on="1"/>
      </contour>
      <contour>
        <pt x="1161" y="500" on="1"/>
        <pt x="1061" y="500" on="1"/>
        <pt x="1061" y="9" on="1"/>
        <pt x="913" y="9" on="1"/>
        <pt x="913" y="607" on="1"/>
        <pt x="1161" y="607" on="1"/>
      </contour>
      <contour>
        <pt x="173" y="307" on="1"/>
        <pt x="175" y="310" on="1"/>
      </contour>
      <contour>
        <pt x="162" y="207" on="0"/>
        <pt x="215" y="173" on="0"/>
        <pt x="280" y="173" on="1"/>
        <pt x="311" y="173" on="0"/>
        <pt x="341" y="179" on="1"/>
        <pt x="170" y="297" on="1"/>
        <pt x="168" y="297" on="1"/>
        <pt x="162" y="281" on="0"/>
        <pt x="162" y="254" on="1"/>
      </contour>
    </TTGlyph>
    <TTGlyph name="dvB_TA" xMin="-50" yMin="6" xMax="1049" yMax="607">
      <contour>
        <pt x="1049" y="500" on="1"/>
        <pt x="949" y="500" on="1"/>
        <pt x="949" y="9" on="1"/>
        <pt x="801" y="9" on="1"/>
        <pt x="801" y="267" on="1"/>
        <pt x="781" y="276" on="0"/>
        <pt x="724" y="287" on="0"/>
        <pt x="696" y="287" on="1"/>
        <pt x="650" y="287" on="0"/>
        <pt x="608" y="256" on="0"/>
        <pt x="608" y="221" on="1"/>
        <pt x="608" y="181" on="0"/>
        <pt x="638" y="68" on="0"/>
        <pt x="663" y="9" on="1"/>
        <pt x="663" y="6" on="1"/>
        <pt x="519" y="6" on="1"/>
        <pt x="502" y="46" on="0"/>
        <pt x="487" y="95" on="1"/>
        <pt x="389" y="64" on="0"/>
        <pt x="264" y="64" on="1"/>
        <pt x="180" y="64" on="0"/>
        <pt x="78" y="100" on="0"/>
        <pt x="30" y="182" on="0"/>
        <pt x="30" y="252" on="1"/>
        <pt x="30" y="353" on="0"/>
        <pt x="125" y="439" on="0"/>
        <pt x="221" y="439" on="1"/>
        <pt x="305" y="439" on="0"/>
        <pt x="371" y="422" on="1"/>
        <pt x="371" y="319" on="1"/>
        <pt x="367" y="318" on="1"/>
        <pt x="344" y="324" on="0"/>
        <pt x="284" y="332" on="0"/>
        <pt x="258" y="332" on="1"/>
        <pt x="240" y="332" on="0"/>
        <pt x="232" y="331" on="1"/>
        <pt x="232" y="330" on="1"/>
        <pt x="432" y="192" on="1"/>
        <pt x="446" y="195" on="0"/>
        <pt x="464" y="201" on="1"/>
        <pt x="460" y="229" on="0"/>
        <pt x="460" y="264" on="1"/>
        <pt x="460" y="346" on="0"/>
        <pt x="558" y="412" on="0"/>
        <pt x="658" y="412" on="1"/>
        <pt x="698" y="412" on="0"/>
        <pt x="773" y="400" on="0"/>
        <pt x="799" y="389" on="1"/>
        <pt x="801" y="390" on="1"/>
        <pt x="801" y="500" on="1"/>
        <pt x="-50" y="500" on="1"/>
        <pt x="-50" y="607" on="1"/>
        <pt x="1049" y="607" on="1"/>
      </contour>
      <contour>
        <pt x="173" y="307" on="1"/>
        <pt x="175" y="310" on="1"/>
      </contour>
      <contour>
        <pt x="162" y="207" on="0"/>
        <pt x="218" y="173" on="0"/>
        <pt x="290" y="173" on="1"/>
        <pt x="316" y="173" on="0"/>
        <pt x="344" y="176" on="1"/>
        <pt x="344" y="177" on="1"/>
        <pt x="170" y="297" on="1"/>
        <pt x="168" y="297" on="1"/>
        <pt x="162" y="281" on="0"/>
        <pt x="162" y="254" on="1"/>
      </contour>
    </TTGlyph>
    <TTGlyph name="dvB_VA" xMin="-50" yMin="9" xMax="1072" yMax="607">
      <contour>
        <pt x="1072" y="500" on="1"/>
        <pt x="972" y="500" on="1"/>
        <pt x="972" y="9" on="1"/>
        <pt x="824" y="9" on="1"/>
        <pt x="824" y="84" on="1"/>
        <pt x="821" y="85" on="1"/>
        <pt x="794" y="72" on="0"/>
        <pt x="710" y="56" on="0"/>
        <pt x="668" y="56" on="1"/>
        <pt x="550" y="56" on="0"/>
        <pt x="498" y="99" on="1"/>
        <pt x="395" y="64" on="0"/>
        <pt x="264" y="64" on="1"/>
        <pt x="180" y="64" on="0"/>
        <pt x="78" y="100" on="0"/>
        <pt x="30" y="182" on="0"/>
        <pt x="30" y="252" on="1"/>
        <pt x="30" y="353" on="0"/>
        <pt x="125" y="439" on="0"/>
        <pt x="221" y="439" on="1"/>
        <pt x="305" y="439" on="0"/>
        <pt x="371" y="422" on="1"/>
        <pt x="371" y="319" on="1"/>
        <pt x="367" y="318" on="1"/>
        <pt x="344" y="324" on="0"/>
        <pt x="284" y="332" on="0"/>
        <pt x="258" y="332" on="1"/>
        <pt x="240" y="332" on="0"/>
        <pt x="232" y="331" on="1"/>
        <pt x="232" y="330" on="1"/>
        <pt x="432" y="192" on="1"/>
        <pt x="450" y="196" on="1"/>
        <pt x="446" y="219" on="0"/>
        <pt x="446" y="251" on="1"/>
        <pt x="446" y="350" on="0"/>
        <pt x="537" y="439" on="0"/>
        <pt x="634" y="439" on="1"/>
        <pt x="704" y="439" on="0"/>
        <pt x="766" y="423" on="1"/>
        <pt x="766" y="308" on="1"/>
        <pt x="762" y="307" on="1"/>
        <pt x="725" y="315" on="0"/>
        <pt x="679" y="315" on="1"/>
        <pt x="631" y="315" on="0"/>
        <pt x="596" y="288" on="0"/>
        <pt x="596" y="246" on="1"/>
        <pt x="596" y="204" on="0"/>
        <pt x="644" y="176" on="0"/>
        <pt x="707" y="176" on="1"/>
        <pt x="778" y="176" on="0"/>
        <pt x="824" y="199" on="1"/>
        <pt x="824" y="500" on="1"/>
        <pt x="-50" y="500" on="1"/>
        <pt x="-50" y="607" on="1"/>
        <pt x="1072" y="607" on="1"/>
      </contour>
      <contour>
        <pt x="173" y="307" on="1"/>
        <pt x="175" y="310" on="1"/>
      </contour>
      <contour>
        <pt x="162" y="207" on="0"/>
        <pt x="218" y="173" on="0"/>
        <pt x="290" y="173" on="1"/>
        <pt x="316" y="173" on="0"/>
        <pt x="344" y="176" on="1"/>
        <pt x="344" y="177" on="1"/>
        <pt x="170" y="297" on="1"/>
        <pt x="168" y="297" on="1"/>
        <pt x="162" y="281" on="0"/>
        <pt x="162" y="254" on="1"/>
      </contour>
    </TTGlyph>
    <TTGlyph name="dvB_YA" xMin="-50" yMin="9" xMax="1139" yMax="607">
      <contour>
        <pt x="1139" y="500" on="1"/>
        <pt x="1039" y="500" on="1"/>
        <pt x="1039" y="9" on="1"/>
        <pt x="891" y="9" on="1"/>
        <pt x="891" y="98" on="1"/>
        <pt x="887" y="100" on="1"/>
        <pt x="816" y="76" on="0"/>
        <pt x="721" y="76" on="1"/>
        <pt x="609" y="76" on="0"/>
        <pt x="542" y="116" on="1"/>
        <pt x="424" y="64" on="0"/>
        <pt x="264" y="64" on="1"/>
        <pt x="180" y="64" on="0"/>
        <pt x="78" y="100" on="0"/>
        <pt x="30" y="182" on="0"/>
        <pt x="30" y="252" on="1"/>
        <pt x="30" y="353" on="0"/>
        <pt x="125" y="439" on="0"/>
        <pt x="221" y="439" on="1"/>
        <pt x="305" y="439" on="0"/>
        <pt x="371" y="422" on="1"/>
        <pt x="371" y="319" on="1"/>
        <pt x="367" y="318" on="1"/>
        <pt x="344" y="324" on="0"/>
        <pt x="284" y="332" on="0"/>
        <pt x="258" y="332" on="1"/>
        <pt x="240" y="332" on="0"/>
        <pt x="232" y="331" on="1"/>
        <pt x="232" y="330" on="1"/>
        <pt x="432" y="192" on="1"/>
        <pt x="443" y="194" on="0"/>
        <pt x="459" y="199" on="0"/>
        <pt x="465" y="201" on="1"/>
        <pt x="444" y="248" on="0"/>
        <pt x="444" y="312" on="1"/>
        <pt x="444" y="367" on="1"/>
        <pt x="492" y="367" on="1"/>
        <pt x="541" y="367" on="0"/>
        <pt x="585" y="380" on="0"/>
        <pt x="600" y="420" on="0"/>
        <pt x="600" y="464" on="1"/>
        <pt x="600" y="500" on="1"/>
        <pt x="-50" y="500" on="1"/>
        <pt x="-50" y="607" on="1"/>
        <pt x="1139" y="607" on="1"/>
      </contour>
      <contour>
        <pt x="891" y="500" on="1"/>
        <pt x="742" y="500" on="1"/>
        <pt x="742" y="422" on="1"/>
        <pt x="742" y="345" on="0"/>
        <pt x="668" y="275" on="0"/>
        <pt x="578" y="270" on="1"/>
        <pt x="580" y="200" on="0"/>
        <pt x="735" y="200" on="1"/>
        <pt x="831" y="200" on="0"/>
        <pt x="891" y="228" on="1"/>
      </contour>
      <contour>
        <pt x="173" y="307" on="1"/>
        <pt x="175" y="310" on="1"/>
      </contour>
      <contour>
        <pt x="162" y="207" on="0"/>
        <pt x="218" y="173" on="0"/>
        <pt x="290" y="173" on="1"/>
        <pt x="316" y="173" on="0"/>
        <pt x="344" y="176" on="1"/>
        <pt x="344" y="177" on="1"/>
        <pt x="170" y="297" on="1"/>
        <pt x="168" y="297" on="1"/>
        <pt x="162" y="281" on="0"/>
        <pt x="162" y="254" on="1"/>
      </contour>
    </TTGlyph>
    <TTGlyph name="dvCH_RA" xMin="-60" yMin="-99" xMax="727" yMax="607">
      <contour>
        <pt x="562" y="500" on="1"/>
        <pt x="562" y="446" on="1"/>
        <pt x="612" y="435" on="0"/>
        <pt x="656" y="359" on="0"/>
        <pt x="656" y="280" on="1"/>
        <pt x="656" y="212" on="0"/>
        <pt x="627" y="112" on="0"/>
        <pt x="547" y="41" on="0"/>
        <pt x="473" y="25" on="1"/>
        <pt x="543" y="-95" on="1"/>
        <pt x="543" y="-99" on="1"/>
        <pt x="394" y="-99" on="1"/>
        <pt x="351" y="14" on="1"/>
        <pt x="347" y="14" on="1"/>
        <pt x="343" y="14" on="1"/>
        <pt x="302" y="-99" on="1"/>
        <pt x="153" y="-99" on="1"/>
        <pt x="153" y="-95" on="1"/>
        <pt x="216" y="23" on="1"/>
        <pt x="34" y="52" on="0"/>
        <pt x="34" y="173" on="1"/>
        <pt x="34" y="229" on="0"/>
        <pt x="86" y="292" on="0"/>
        <pt x="142" y="299" on="1"/>
        <pt x="142" y="303" on="1"/>
        <pt x="86" y="305" on="0"/>
        <pt x="26" y="363" on="0"/>
        <pt x="26" y="410" on="1"/>
        <pt x="26" y="441" on="0"/>
        <pt x="54" y="490" on="0"/>
        <pt x="74" y="498" on="1"/>
        <pt x="74" y="500" on="1"/>
        <pt x="-60" y="500" on="1"/>
        <pt x="-60" y="607" on="1"/>
        <pt x="727" y="607" on="1"/>
        <pt x="727" y="500" on="1"/>
      </contour>
      <contour>
        <pt x="434" y="500" on="1"/>
        <pt x="259" y="500" on="1"/>
        <pt x="214" y="500" on="0"/>
        <pt x="174" y="467" on="0"/>
        <pt x="174" y="429" on="1"/>
        <pt x="174" y="390" on="0"/>
        <pt x="220" y="359" on="0"/>
        <pt x="279" y="359" on="1"/>
        <pt x="285" y="359" on="1"/>
        <pt x="285" y="243" on="1"/>
        <pt x="279" y="243" on="1"/>
        <pt x="224" y="243" on="0"/>
        <pt x="182" y="219" on="0"/>
        <pt x="182" y="187" on="1"/>
        <pt x="182" y="152" on="0"/>
        <pt x="253" y="122" on="0"/>
        <pt x="344" y="122" on="1"/>
        <pt x="415" y="122" on="0"/>
        <pt x="497" y="149" on="0"/>
        <pt x="513" y="176" on="1"/>
        <pt x="524" y="194" on="0"/>
        <pt x="530" y="253" on="0"/>
        <pt x="530" y="295" on="1"/>
        <pt x="530" y="330" on="0"/>
        <pt x="512" y="356" on="0"/>
        <pt x="487" y="356" on="1"/>
        <pt x="463" y="356" on="0"/>
        <pt x="446" y="330" on="0"/>
        <pt x="446" y="295" on="1"/>
        <pt x="446" y="270" on="0"/>
        <pt x="453" y="240" on="1"/>
        <pt x="453" y="238" on="1"/>
        <pt x="343" y="238" on="1"/>
        <pt x="333" y="274" on="0"/>
        <pt x="333" y="315" on="1"/>
        <pt x="333" y="381" on="0"/>
        <pt x="384" y="442" on="0"/>
        <pt x="434" y="449" on="1"/>
      </contour>
    </TTGlyph>
    <TTGlyph name="dvCH_R_YA" xMin="-60" yMin="-99" xMax="1361" yMax="607">
      <contour>
        <pt x="1361" y="500" on="1"/>
        <pt x="1262" y="500" on="1"/>
        <pt x="1262" y="9" on="1"/>
        <pt x="1114" y="9" on="1"/>
        <pt x="1114" y="67" on="1"/>
        <pt x="1112" y="68" on="1"/>
        <pt x="1089" y="60" on="0"/>
        <pt x="1007" y="50" on="0"/>
        <pt x="964" y="50" on="1"/>
        <pt x="845" y="50" on="0"/>
        <pt x="727" y="130" on="0"/>
        <pt x="727" y="216" on="1"/>
        <pt x="727" y="275" on="1"/>
        <pt x="805" y="275" on="1"/>
        <pt x="849" y="275" on="0"/>
        <pt x="880" y="291" on="0"/>
        <pt x="880" y="312" on="1"/>
        <pt x="880" y="333" on="0"/>
        <pt x="849" y="349" on="0"/>
        <pt x="805" y="349" on="1"/>
        <pt x="652" y="349" on="1"/>
        <pt x="656" y="325" on="0"/>
        <pt x="656" y="285" on="1"/>
        <pt x="656" y="216" on="0"/>
        <pt x="628" y="116" on="0"/>
        <pt x="549" y="42" on="0"/>
        <pt x="476" y="26" on="1"/>
        <pt x="546" y="-95" on="1"/>
        <pt x="546" y="-99" on="1"/>
        <pt x="397" y="-99" on="1"/>
        <pt x="354" y="14" on="1"/>
        <pt x="350" y="14" on="1"/>
        <pt x="346" y="14" on="1"/>
        <pt x="305" y="-99" on="1"/>
        <pt x="156" y="-99" on="1"/>
        <pt x="156" y="-95" on="1"/>
        <pt x="219" y="23" on="1"/>
        <pt x="37" y="52" on="0"/>
        <pt x="37" y="173" on="1"/>
        <pt x="37" y="229" on="0"/>
        <pt x="89" y="292" on="0"/>
        <pt x="145" y="299" on="1"/>
        <pt x="145" y="303" on="1"/>
        <pt x="89" y="305" on="0"/>
        <pt x="29" y="363" on="0"/>
        <pt x="29" y="410" on="1"/>
        <pt x="29" y="441" on="0"/>
        <pt x="57" y="490" on="0"/>
        <pt x="77" y="498" on="1"/>
        <pt x="77" y="500" on="1"/>
        <pt x="-60" y="500" on="1"/>
        <pt x="-60" y="607" on="1"/>
        <pt x="1361" y="607" on="1"/>
      </contour>
      <contour>
        <pt x="1114" y="500" on="1"/>
        <pt x="262" y="500" on="1"/>
        <pt x="217" y="500" on="0"/>
        <pt x="177" y="467" on="0"/>
        <pt x="177" y="429" on="1"/>
        <pt x="177" y="390" on="0"/>
        <pt x="223" y="359" on="0"/>
        <pt x="282" y="359" on="1"/>
        <pt x="288" y="359" on="1"/>
        <pt x="288" y="243" on="1"/>
        <pt x="282" y="243" on="1"/>
        <pt x="227" y="243" on="0"/>
        <pt x="185" y="219" on="0"/>
        <pt x="185" y="187" on="1"/>
        <pt x="185" y="152" on="0"/>
        <pt x="256" y="122" on="0"/>
        <pt x="347" y="122" on="1"/>
        <pt x="418" y="122" on="0"/>
        <pt x="500" y="149" on="0"/>
        <pt x="516" y="176" on="1"/>
        <pt x="527" y="194" on="0"/>
        <pt x="533" y="257" on="0"/>
        <pt x="533" y="300" on="1"/>
        <pt x="533" y="335" on="0"/>
        <pt x="515" y="361" on="0"/>
        <pt x="490" y="361" on="1"/>
        <pt x="466" y="361" on="0"/>
        <pt x="449" y="335" on="0"/>
        <pt x="449" y="300" on="1"/>
        <pt x="449" y="275" on="0"/>
        <pt x="456" y="245" on="1"/>
        <pt x="456" y="243" on="1"/>
        <pt x="346" y="243" on="1"/>
        <pt x="336" y="279" on="0"/>
        <pt x="336" y="320" on="1"/>
        <pt x="336" y="375" on="0"/>
        <pt x="372" y="435" on="0"/>
        <pt x="436" y="456" on="0"/>
        <pt x="486" y="457" on="1"/>
        <pt x="846" y="457" on="1"/>
        <pt x="939" y="457" on="0"/>
        <pt x="1015" y="396" on="0"/>
        <pt x="1015" y="328" on="1"/>
        <pt x="1015" y="258" on="0"/>
        <pt x="944" y="194" on="0"/>
        <pt x="859" y="194" on="1"/>
        <pt x="861" y="176" on="0"/>
        <pt x="924" y="158" on="0"/>
        <pt x="994" y="158" on="1"/>
        <pt x="1065" y="158" on="0"/>
        <pt x="1114" y="176" on="1"/>
      </contour>
    </TTGlyph>
    <TTGlyph name="dvCH_VA" xMin="-60" yMin="-285" xMax="727" yMax="607">
      <contour>
        <pt x="567" y="500" on="1"/>
        <pt x="567" y="444" on="1"/>
        <pt x="614" y="432" on="0"/>
        <pt x="656" y="357" on="0"/>
        <pt x="656" y="280" on="1"/>
        <pt x="656" y="201" on="0"/>
        <pt x="625" y="94" on="0"/>
        <pt x="584" y="60" on="1"/>
        <pt x="584" y="-285" on="1"/>
        <pt x="446" y="-285" on="1"/>
        <pt x="446" y="-222" on="1"/>
        <pt x="442" y="-219" on="1"/>
        <pt x="416" y="-228" on="0"/>
        <pt x="333" y="-238" on="0"/>
        <pt x="292" y="-238" on="1"/>
        <pt x="178" y="-238" on="0"/>
        <pt x="86" y="-159" on="0"/>
        <pt x="86" y="-74" on="1"/>
        <pt x="86" y="-35" on="0"/>
        <pt x="113" y="23" on="0"/>
        <pt x="137" y="39" on="1"/>
        <pt x="137" y="41" on="1"/>
        <pt x="90" y="51" on="0"/>
        <pt x="34" y="121" on="0"/>
        <pt x="34" y="173" on="1"/>
        <pt x="34" y="229" on="0"/>
        <pt x="86" y="292" on="0"/>
        <pt x="142" y="299" on="1"/>
        <pt x="142" y="303" on="1"/>
        <pt x="86" y="305" on="0"/>
        <pt x="26" y="363" on="0"/>
        <pt x="26" y="410" on="1"/>
        <pt x="26" y="441" on="0"/>
        <pt x="54" y="490" on="0"/>
        <pt x="74" y="498" on="1"/>
        <pt x="74" y="500" on="1"/>
        <pt x="-60" y="500" on="1"/>
        <pt x="-60" y="607" on="1"/>
        <pt x="727" y="607" on="1"/>
        <pt x="727" y="500" on="1"/>
      </contour>
      <contour>
        <pt x="429" y="500" on="1"/>
        <pt x="259" y="500" on="1"/>
        <pt x="214" y="500" on="0"/>
        <pt x="174" y="467" on="0"/>
        <pt x="174" y="429" on="1"/>
        <pt x="174" y="390" on="0"/>
        <pt x="220" y="359" on="0"/>
        <pt x="279" y="359" on="1"/>
        <pt x="285" y="359" on="1"/>
        <pt x="285" y="243" on="1"/>
        <pt x="279" y="243" on="1"/>
        <pt x="224" y="243" on="0"/>
        <pt x="182" y="219" on="0"/>
        <pt x="182" y="187" on="1"/>
        <pt x="182" y="152" on="0"/>
        <pt x="253" y="122" on="0"/>
        <pt x="344" y="122" on="1"/>
        <pt x="415" y="122" on="0"/>
        <pt x="497" y="149" on="0"/>
        <pt x="513" y="176" on="1"/>
        <pt x="524" y="194" on="0"/>
        <pt x="530" y="253" on="0"/>
        <pt x="530" y="295" on="1"/>
        <pt x="530" y="330" on="0"/>
        <pt x="512" y="356" on="0"/>
        <pt x="487" y="356" on="1"/>
        <pt x="463" y="356" on="0"/>
        <pt x="446" y="330" on="0"/>
        <pt x="446" y="295" on="1"/>
        <pt x="446" y="270" on="0"/>
        <pt x="453" y="240" on="1"/>
        <pt x="453" y="238" on="1"/>
        <pt x="343" y="238" on="1"/>
        <pt x="333" y="274" on="0"/>
        <pt x="333" y="315" on="1"/>
        <pt x="333" y="379" on="0"/>
        <pt x="381" y="440" on="0"/>
        <pt x="429" y="448" on="1"/>
      </contour>
      <contour>
        <pt x="446" y="7" on="1"/>
        <pt x="403" y="1" on="0"/>
        <pt x="347" y="1" on="1"/>
        <pt x="291" y="2" on="1"/>
        <pt x="251" y="2" on="0"/>
        <pt x="221" y="-25" on="0"/>
        <pt x="221" y="-58" on="1"/>
        <pt x="221" y="-94" on="0"/>
        <pt x="269" y="-122" on="0"/>
        <pt x="330" y="-122" on="1"/>
        <pt x="403" y="-122" on="0"/>
        <pt x="446" y="-104" on="1"/>
      </contour>
    </TTGlyph>
    <TTGlyph name="dvCH_YA" xMin="-60" yMin="0" xMax="1361" yMax="607">
      <contour>
        <pt x="1361" y="500" on="1"/>
        <pt x="1262" y="500" on="1"/>
        <pt x="1262" y="9" on="1"/>
        <pt x="1114" y="9" on="1"/>
        <pt x="1114" y="67" on="1"/>
        <pt x="1112" y="68" on="1"/>
        <pt x="1089" y="60" on="0"/>
        <pt x="1007" y="50" on="0"/>
        <pt x="964" y="50" on="1"/>
        <pt x="845" y="50" on="0"/>
        <pt x="727" y="130" on="0"/>
        <pt x="727" y="216" on="1"/>
        <pt x="727" y="275" on="1"/>
        <pt x="805" y="275" on="1"/>
        <pt x="849" y="275" on="0"/>
        <pt x="880" y="291" on="0"/>
        <pt x="880" y="312" on="1"/>
        <pt x="880" y="333" on="0"/>
        <pt x="849" y="349" on="0"/>
        <pt x="805" y="349" on="1"/>
        <pt x="641" y="349" on="1"/>
        <pt x="646" y="327" on="0"/>
        <pt x="646" y="285" on="1"/>
        <pt x="646" y="190" on="0"/>
        <pt x="600" y="69" on="0"/>
        <pt x="465" y="0" on="0"/>
        <pt x="337" y="0" on="1"/>
        <pt x="172" y="0" on="0"/>
        <pt x="24" y="82" on="0"/>
        <pt x="24" y="173" on="1"/>
        <pt x="24" y="229" on="0"/>
        <pt x="76" y="292" on="0"/>
        <pt x="132" y="299" on="1"/>
        <pt x="132" y="303" on="1"/>
        <pt x="76" y="305" on="0"/>
        <pt x="16" y="363" on="0"/>
        <pt x="16" y="410" on="1"/>
        <pt x="16" y="441" on="0"/>
        <pt x="44" y="490" on="0"/>
        <pt x="64" y="498" on="1"/>
        <pt x="64" y="500" on="1"/>
        <pt x="-60" y="500" on="1"/>
        <pt x="-60" y="607" on="1"/>
        <pt x="1361" y="607" on="1"/>
      </contour>
      <contour>
        <pt x="1114" y="500" on="1"/>
        <pt x="249" y="500" on="1"/>
        <pt x="204" y="500" on="0"/>
        <pt x="164" y="467" on="0"/>
        <pt x="164" y="429" on="1"/>
        <pt x="164" y="390" on="0"/>
        <pt x="210" y="359" on="0"/>
        <pt x="269" y="359" on="1"/>
        <pt x="275" y="359" on="1"/>
        <pt x="275" y="243" on="1"/>
        <pt x="269" y="243" on="1"/>
        <pt x="214" y="243" on="0"/>
        <pt x="172" y="219" on="0"/>
        <pt x="172" y="187" on="1"/>
        <pt x="172" y="152" on="0"/>
        <pt x="243" y="122" on="0"/>
        <pt x="334" y="122" on="1"/>
        <pt x="405" y="122" on="0"/>
        <pt x="487" y="149" on="0"/>
        <pt x="503" y="176" on="1"/>
        <pt x="514" y="194" on="0"/>
        <pt x="520" y="257" on="0"/>
        <pt x="520" y="300" on="1"/>
        <pt x="520" y="335" on="0"/>
        <pt x="502" y="361" on="0"/>
        <pt x="477" y="361" on="1"/>
        <pt x="453" y="361" on="0"/>
        <pt x="436" y="335" on="0"/>
        <pt x="436" y="300" on="1"/>
        <pt x="436" y="275" on="0"/>
        <pt x="443" y="245" on="1"/>
        <pt x="443" y="243" on="1"/>
        <pt x="333" y="243" on="1"/>
        <pt x="323" y="279" on="0"/>
        <pt x="323" y="320" on="1"/>
        <pt x="323" y="376" on="0"/>
        <pt x="360" y="436" on="0"/>
        <pt x="426" y="457" on="0"/>
        <pt x="478" y="457" on="1"/>
        <pt x="483" y="457" on="1"/>
        <pt x="846" y="457" on="1"/>
        <pt x="939" y="457" on="0"/>
        <pt x="1015" y="396" on="0"/>
        <pt x="1015" y="328" on="1"/>
        <pt x="1015" y="258" on="0"/>
        <pt x="944" y="194" on="0"/>
        <pt x="859" y="194" on="1"/>
        <pt x="861" y="176" on="0"/>
        <pt x="924" y="158" on="0"/>
        <pt x="994" y="158" on="1"/>
        <pt x="1065" y="158" on="0"/>
        <pt x="1114" y="176" on="1"/>
      </contour>
    </TTGlyph>
    <TTGlyph name="dvC_CA" xMin="-35" yMin="9" xMax="1129" yMax="607">
      <contour>
        <pt x="1129" y="500" on="1"/>
        <pt x="1029" y="500" on="1"/>
        <pt x="1029" y="9" on="1"/>
        <pt x="880" y="9" on="1"/>
        <pt x="880" y="114" on="1"/>
        <pt x="878" y="115" on="1"/>
        <pt x="845" y="101" on="0"/>
        <pt x="757" y="84" on="0"/>
        <pt x="713" y="84" on="1"/>
        <pt x="582" y="84" on="0"/>
        <pt x="536" y="143" on="1"/>
        <pt x="537" y="136" on="1"/>
        <pt x="487" y="110" on="0"/>
        <pt x="371" y="84" on="0"/>
        <pt x="296" y="84" on="1"/>
        <pt x="194" y="84" on="0"/>
        <pt x="84" y="151" on="0"/>
        <pt x="84" y="221" on="1"/>
        <pt x="84" y="280" on="0"/>
        <pt x="115" y="304" on="1"/>
        <pt x="113" y="307" on="1"/>
        <pt x="70" y="292" on="0"/>
        <pt x="13" y="292" on="1"/>
        <pt x="13" y="423" on="1"/>
        <pt x="352" y="423" on="1"/>
        <pt x="352" y="317" on="1"/>
        <pt x="272" y="317" on="1"/>
        <pt x="249" y="317" on="0"/>
        <pt x="225" y="296" on="0"/>
        <pt x="225" y="270" on="1"/>
        <pt x="225" y="246" on="0"/>
        <pt x="245" y="222" on="0"/>
        <pt x="298" y="211" on="0"/>
        <pt x="350" y="211" on="1"/>
        <pt x="452" y="211" on="0"/>
        <pt x="514" y="252" on="1"/>
        <pt x="520" y="287" on="0"/>
        <pt x="542" y="304" on="1"/>
        <pt x="540" y="307" on="1"/>
        <pt x="497" y="292" on="0"/>
        <pt x="440" y="292" on="1"/>
        <pt x="440" y="423" on="1"/>
        <pt x="779" y="423" on="1"/>
        <pt x="779" y="317" on="1"/>
        <pt x="699" y="317" on="1"/>
        <pt x="676" y="317" on="0"/>
        <pt x="652" y="296" on="0"/>
        <pt x="652" y="270" on="1"/>
        <pt x="652" y="238" on="0"/>
        <pt x="690" y="213" on="0"/>
        <pt x="742" y="211" on="1"/>
        <pt x="779" y="210" on="0"/>
        <pt x="857" y="227" on="0"/>
        <pt x="880" y="242" on="1"/>
        <pt x="880" y="500" on="1"/>
        <pt x="-35" y="500" on="1"/>
        <pt x="-35" y="607" on="1"/>
        <pt x="1129" y="607" on="1"/>
      </contour>
    </TTGlyph>
    <TTGlyph name="dvC_CHA" xMin="-35" yMin="0" xMax="1154" yMax="607">
      <contour>
        <pt x="989" y="500" on="1"/>
        <pt x="989" y="446" on="1"/>
        <pt x="1039" y="435" on="0"/>
        <pt x="1083" y="359" on="0"/>
        <pt x="1083" y="280" on="1"/>
        <pt x="1083" y="186" on="0"/>
        <pt x="1037" y="67" on="0"/>
        <pt x="902" y="0" on="0"/>
        <pt x="774" y="0" on="1"/>
        <pt x="641" y="0" on="0"/>
        <pt x="495" y="52" on="0"/>
        <pt x="472" y="109" on="1"/>
        <pt x="400" y="84" on="0"/>
        <pt x="296" y="84" on="1"/>
        <pt x="194" y="84" on="0"/>
        <pt x="84" y="151" on="0"/>
        <pt x="84" y="221" on="1"/>
        <pt x="84" y="280" on="0"/>
        <pt x="115" y="304" on="1"/>
        <pt x="113" y="307" on="1"/>
        <pt x="70" y="292" on="0"/>
        <pt x="13" y="292" on="1"/>
        <pt x="13" y="423" on="1"/>
        <pt x="352" y="423" on="1"/>
        <pt x="352" y="317" on="1"/>
        <pt x="272" y="317" on="1"/>
        <pt x="249" y="317" on="0"/>
        <pt x="225" y="296" on="0"/>
        <pt x="225" y="270" on="1"/>
        <pt x="225" y="246" on="0"/>
        <pt x="244" y="222" on="0"/>
        <pt x="296" y="211" on="0"/>
        <pt x="347" y="211" on="1"/>
        <pt x="421" y="211" on="0"/>
        <pt x="470" y="229" on="1"/>
        <pt x="492" y="289" on="0"/>
        <pt x="569" y="299" on="1"/>
        <pt x="569" y="303" on="1"/>
        <pt x="513" y="305" on="0"/>
        <pt x="453" y="363" on="0"/>
        <pt x="453" y="410" on="1"/>
        <pt x="453" y="441" on="0"/>
        <pt x="481" y="490" on="0"/>
        <pt x="501" y="498" on="1"/>
        <pt x="501" y="500" on="1"/>
        <pt x="-35" y="500" on="1"/>
        <pt x="-35" y="607" on="1"/>
        <pt x="1154" y="607" on="1"/>
        <pt x="1154" y="500" on="1"/>
      </contour>
      <contour>
        <pt x="861" y="500" on="1"/>
        <pt x="686" y="500" on="1"/>
        <pt x="641" y="500" on="0"/>
        <pt x="601" y="467" on="0"/>
        <pt x="601" y="429" on="1"/>
        <pt x="601" y="390" on="0"/>
        <pt x="647" y="359" on="0"/>
        <pt x="706" y="359" on="1"/>
        <pt x="712" y="359" on="1"/>
        <pt x="712" y="243" on="1"/>
        <pt x="706" y="243" on="1"/>
        <pt x="651" y="243" on="0"/>
        <pt x="609" y="219" on="0"/>
        <pt x="609" y="187" on="1"/>
        <pt x="609" y="152" on="0"/>
        <pt x="680" y="122" on="0"/>
        <pt x="771" y="122" on="1"/>
        <pt x="842" y="122" on="0"/>
        <pt x="924" y="149" on="0"/>
        <pt x="940" y="176" on="1"/>
        <pt x="951" y="194" on="0"/>
        <pt x="957" y="253" on="0"/>
        <pt x="957" y="295" on="1"/>
        <pt x="957" y="330" on="0"/>
        <pt x="939" y="356" on="0"/>
        <pt x="914" y="356" on="1"/>
        <pt x="890" y="356" on="0"/>
        <pt x="873" y="330" on="0"/>
        <pt x="873" y="295" on="1"/>
        <pt x="873" y="270" on="0"/>
        <pt x="880" y="240" on="1"/>
        <pt x="880" y="238" on="1"/>
        <pt x="770" y="238" on="1"/>
        <pt x="760" y="274" on="0"/>
        <pt x="760" y="315" on="1"/>
        <pt x="760" y="381" on="0"/>
        <pt x="811" y="442" on="0"/>
        <pt x="861" y="449" on="1"/>
      </contour>
    </TTGlyph>
</ttFont>
